<mxfile host="Electron" modified="2024-08-11T04:57:37.329Z" agent="Mozilla/5.0 (Macintosh; Intel Mac OS X 10_15_7) AppleWebKit/537.36 (KHTML, like Gecko) draw.io/21.2.8 Chrome/112.0.5615.165 Electron/24.2.0 Safari/537.36" etag="rXpXsA2iAVY8603wQF0F" version="21.2.8" type="device">
  <diagram name="Page-1" id="y1zEI30KJuH2ID3HTNyQ">
    <mxGraphModel dx="1466" dy="1103" grid="1" gridSize="10" guides="1" tooltips="1" connect="1" arrows="1" fold="1" page="1" pageScale="1" pageWidth="1169" pageHeight="827" math="0" shadow="0">
      <root>
        <mxCell id="0" />
        <mxCell id="1" parent="0" />
        <mxCell id="XoPRiA-ML8OkZGicO-Hc-75" value="" style="rounded=1;whiteSpace=wrap;html=1;fillColor=none;dashed=1;" vertex="1" parent="1">
          <mxGeometry x="500" y="110" width="920" height="730" as="geometry" />
        </mxCell>
        <mxCell id="XoPRiA-ML8OkZGicO-Hc-73" value="" style="rounded=1;whiteSpace=wrap;html=1;fillColor=none;dashed=1;" vertex="1" parent="1">
          <mxGeometry x="510" y="340" width="560" height="460" as="geometry" />
        </mxCell>
        <mxCell id="XoPRiA-ML8OkZGicO-Hc-57" style="edgeStyle=orthogonalEdgeStyle;rounded=1;orthogonalLoop=1;jettySize=auto;html=1;entryX=0.5;entryY=1;entryDx=0;entryDy=0;" edge="1" parent="1" source="XoPRiA-ML8OkZGicO-Hc-54" target="XoPRiA-ML8OkZGicO-Hc-19">
          <mxGeometry relative="1" as="geometry" />
        </mxCell>
        <mxCell id="XoPRiA-ML8OkZGicO-Hc-71" style="edgeStyle=orthogonalEdgeStyle;rounded=1;orthogonalLoop=1;jettySize=auto;html=1;exitX=0;exitY=0.25;exitDx=0;exitDy=0;startArrow=classic;startFill=1;" edge="1" parent="1" source="XoPRiA-ML8OkZGicO-Hc-54" target="XoPRiA-ML8OkZGicO-Hc-2">
          <mxGeometry relative="1" as="geometry" />
        </mxCell>
        <mxCell id="XoPRiA-ML8OkZGicO-Hc-54" value="" style="rounded=1;whiteSpace=wrap;html=1;fillColor=none;dashed=1;" vertex="1" parent="1">
          <mxGeometry x="570" y="540" width="220" height="220" as="geometry" />
        </mxCell>
        <mxCell id="XoPRiA-ML8OkZGicO-Hc-25" value="" style="rounded=1;whiteSpace=wrap;html=1;fillColor=none;dashed=1;" vertex="1" parent="1">
          <mxGeometry x="730" y="140" width="280" height="150" as="geometry" />
        </mxCell>
        <mxCell id="XoPRiA-ML8OkZGicO-Hc-41" style="edgeStyle=orthogonalEdgeStyle;rounded=1;orthogonalLoop=1;jettySize=auto;html=1;entryX=0;entryY=0.5;entryDx=0;entryDy=0;entryPerimeter=0;" edge="1" parent="1" source="XoPRiA-ML8OkZGicO-Hc-33" target="XoPRiA-ML8OkZGicO-Hc-11">
          <mxGeometry relative="1" as="geometry">
            <Array as="points">
              <mxPoint x="1150" y="500" />
              <mxPoint x="1150" y="400" />
            </Array>
          </mxGeometry>
        </mxCell>
        <mxCell id="XoPRiA-ML8OkZGicO-Hc-42" style="edgeStyle=orthogonalEdgeStyle;rounded=1;orthogonalLoop=1;jettySize=auto;html=1;" edge="1" parent="1" source="XoPRiA-ML8OkZGicO-Hc-33" target="XoPRiA-ML8OkZGicO-Hc-10">
          <mxGeometry relative="1" as="geometry">
            <Array as="points">
              <mxPoint x="1150" y="500" />
              <mxPoint x="1150" y="520" />
            </Array>
          </mxGeometry>
        </mxCell>
        <mxCell id="XoPRiA-ML8OkZGicO-Hc-43" style="edgeStyle=orthogonalEdgeStyle;rounded=1;orthogonalLoop=1;jettySize=auto;html=1;entryX=0;entryY=0.5;entryDx=0;entryDy=0;entryPerimeter=0;" edge="1" parent="1" source="XoPRiA-ML8OkZGicO-Hc-33" target="XoPRiA-ML8OkZGicO-Hc-12">
          <mxGeometry relative="1" as="geometry">
            <Array as="points">
              <mxPoint x="1150" y="500" />
              <mxPoint x="1150" y="640" />
            </Array>
          </mxGeometry>
        </mxCell>
        <mxCell id="XoPRiA-ML8OkZGicO-Hc-33" value="" style="rounded=1;whiteSpace=wrap;html=1;fillColor=none;dashed=1;" vertex="1" parent="1">
          <mxGeometry x="830" y="350" width="220" height="200" as="geometry" />
        </mxCell>
        <mxCell id="XoPRiA-ML8OkZGicO-Hc-20" value="" style="edgeStyle=orthogonalEdgeStyle;rounded=0;orthogonalLoop=1;jettySize=auto;html=1;entryX=0.5;entryY=0;entryDx=0;entryDy=0;startArrow=classic;startFill=1;" edge="1" parent="1" source="XoPRiA-ML8OkZGicO-Hc-1" target="XoPRiA-ML8OkZGicO-Hc-2">
          <mxGeometry relative="1" as="geometry" />
        </mxCell>
        <mxCell id="XoPRiA-ML8OkZGicO-Hc-1" value="" style="shape=image;verticalLabelPosition=bottom;labelBackgroundColor=default;verticalAlign=top;aspect=fixed;imageAspect=0;image=data:image/png,iVBORw0KGgoAAAANSUhEUgAAAgAAAAIACAYAAAD0eNT6AAAABHNCSVQICAgIfAhkiAAAAAlwSFlzAAAOxAAADsQBlSsOGwAAABl0RVh0U29mdHdhcmUAd3d3Lmlua3NjYXBlLm9yZ5vuPBoAACAASURBVHic7N1pnBTV2T7+61T13j09MyyKSwRUNpFNRMSNWRAZFo0mg2FAQGI0asDENcmTPJnkyS9Rg4mCiTsaFTDwjwsgoAIz4oIIKIIoi3EBBZRllt67uur8XwwQlll6Zrr6ru6+v59PXgRm6lzg0HXq1LnPDTDGGGOMMcYYY4wxxhhjjDHGGGOMMcYYY4wxxhhjjDHGGGOMMcYYY4wxxhhjjDHGGGOMMcYYY4wxxhhjjDHGGGOMMcYYY4wxxhhjjDHGGGOMMcYYY4wxxhhjjDHGGGOMMcYYY4wxxhhjjDHGGGOMMcYYY4wxxhhjjDHGGGOMMcYYY4wxxhhjjDHGGGOMMcYYY4wxxhhjjDHGGGOMMcYYY4wxxhhjjDHGGGOMMcYYY4wxxhhjjDHGGGOMMcYYY4wxxhhjjDHGGGOMMcYYY4wxxhhjjDHGGGOMMcYYY4wxxhhjjDHGGGOMMcYYY4wxxhhjjDHGGGOMMcYYY4wxxhhjjDHGGGOMMcYYY4wxxhhjjDHGGGOMMcYYY4wxxhhjjDHGGGOMMcYYY4wxxhhjjDHGGGOMMcYYY4wxxhhjjDHGGGOMMcYYY4wxxhhjjDHGGGOMMcYYY4wxxhhjjDHGGGOMMcYYY4wxxhhjjDHGGGOMMcYYY4wxxhhjjDHGGGOMMcYYY4wxxhhjjDHGGGOMMcYYY4wxxhhjjDHGGGOMMcYYY4wxxhhjjDHGGGOMMcYYY4wxxhhjjDHGGGOMMcYYY4wxxhhjjDHGGGOMMcYYY4wxxhhjjDHGGGOMMcYYY4wxlj6COgBjjLH06HXfK3lw6RcbAv2EgY7//R1lp4T4WHfHPvr8pvF1dAlZOvEEgDHGsljPmYs7wZ64BkA5gOEA7M18uQZgqSHEU6cfzF9WXVmcSEtIRoInAIwxlmX6/nVBB01xjIWQ5QCuQPM3/UZJYIeiyJ9um37NqtQnZFbAEwDGGMsCxz3pFwGwpeCyEsAjea7vfr7hppu0FFyPWQhPABhjLEOl4kk/OeLVsB4v//r28RFzrs8o8ASAMcYyiElP+kmQVfaaxKgtlePj6RmPmS1NPziMMcba6tibfqIIJJ/dojheaH8QwC3pH5uZgVcAGGPMguie9JslIcTI7TO+v4I6CGs/ngAwxphFpO+dfttJ4OMdNR8NQGWlQZ2FtY8VZpSMMZazjn7S14AiQFr6c1kA5/YqGDR2G7CIOgtrH0v/oDHGWDayxjv9tjMU/cfgCUDG41cAjDGWBpmwvN8KkbCudeSywMyWUbNOxhjLJJm2vN8Kbq9dPQ/AO9RBWNtlyw8jY4xZQqYv7ydLGmof8AQgo2XlDyZjjKXTscv7iUxf3k+KENJHnYG1D08AGGOsDY6+6WvAFYDM+pv+MSQc1BFY+/AEgDHGknTqvQvOEDIxw+mwj4qrah8BqVBnIiMEbyLPcDwBYIyxZpw9fakz0GnffQ63Y6LLaesksn91PykGjB3UGVj78ASAMcaacPL/PX2v4Qnenm/z813/ODZpbKbOwNqHJwCMMXaczvc/3cUpne95XO6u1Fksav+nNR//hzoEax+eADDG2FHyf/PYWR7h3eR02j3UWaxKAnO5F0Dmy90NLIwxdpz8X/6jsMCf/6HTwTf/5gghn6bOwNqPJwCMMXaIv7Bwg9PpzKPOYWUCWLx9xjUfUedg7ccTAMYYA9D593Pudbtc3alzWJkAwlDU26hzsNTgOk7GWM4rvHdBfge72K/abLwvqhlC4JZtM65+hDoHSw1eAWCM5Ty7FnmIb/4tEPJPfPPPLjwBYIzlPLfTeTV1BoubvX3GNf9DHYKlFk8AGGM5rfMf5g9yOpx+6hwWFQJw0/bbrp5BHYSlHk8AGGM5TcjYdbwb6gQGgAVCUfttv+3qx6nDMHPwOy/GWE6z2Wz9qTNYhsAuYYgXAPHUtp9ftY06DjMXTwAYYzlNKMpp1BlICeyClP+fYWDhZz+/+j0IIakjsfTgCQBjLLdJmYuNfr4WUrwohbFw+/Sr3zly0/8FcSqWVjwBYK0S/eWksw3IfgpwsgGZ3+7rQdi2Ga4uNdLmr4Oar0OoPqEHC2DUnyUiezsKPZyK3GZRBCLSkAelFNvdtb4PxeOPa9SZWCsJWPpnLIX+e9OfcdRNn4/1yVm89YW1KPbrCf2ljolSiO8D6Emdx6oEUCOBpRLi325Xj1cEN0vJCKf9+fkqr8dbRJ3DFLy8z5rBEwDWpPD//Oh7Qld+A+DHAFTqPBnmEwlUeu6dt5A6CGveyX/85+z8PP/PqHOkDN/0WZJ4AsAaFfllxVQAjwJwEkfJcOJ5l8v+E1H5TJQ6CWtc5z/8c1Ch3/9Bhn8aNr68z1gzMvtHnqWcrKxUYpHt90mBO6mzZA+x1lDE1d4/Pb+HOglrXNeZ/wo47Q4fdY5W4Sd91k68CZAdIxbddr8U4g7qHNlFDlUMrJT3lA8T9y2so07DThSLxl5y2h3XUedoUVM3fd69z9qAVwDYEZF7KiZD4J/UObLYMtd/tHFi4UKdOgg7VsHP/1ZQePppB+x2uxVPR+XlfWYKngAwAEDkN9d1R0L/FPzO31QCmO66d97D1DnYiQp/++SrnTt1HE2d4xC+6TPT8QSAAQAiv5w4D5ATqHPkgP0ulzhLVM6tpw7CjjPj/h5dTuqy3Z+XRzJ8Qk8gkdCWOuyuP/I7fZYOVlzuYmkWv2fSAEBeS50jR3SKRuXt1CFYI2bdvePbffuqIpH0FWwk9ARq6mqx8+tv8PlXX2Hn17v9n/3imjV882fpwBMABgPGJPDPQjpNoQ7AGielMfvrPbsRDAVNGyORSKC2tg67vmm46e/bfwDRWBRouOVfgukPDDJtcMaOwh/6DFLgSuoMOaZb7J6J/ahDsEbs6bpISvnVnm+/RU1dLSRS8yB+zJP+zq/w3YH9iESP3PSPpRg3pWRQxlrAE4AcF72rogf4eN+0M2CMoc7AGrFwvA6JJ6UE9u0/gJ27vkE0GmvTpY5f3j/uSb9pUrkON/+5sE2DMtYKfA5AjjNs6MdvGwkIcS51BNYUx2NA/DcAnLF4DDu/+Roupwv5/jzkeX1Q1Kafm7SEhmAohEAghGg8iZt9o6QHNtt1AGa18Q/AWFJ4ApDjFEOcInkGkH4Sp1JHYE2YPWMfbpv5IiSOVMVEY1FE90Xx7f59sKs2OJ1OqOrh9hgSCV1HLBpHQk+kJoMQPwPkbID/cTLz8CuAHGco0k2dIScp8FJHYM36R6O/KgEtkUAwFEJdff2h/wUQCoVTd/Nv0AMz/lqSygsydjyeAOQ4RYKb1FAwEKKOwJrx0J1vQ4oPSDMIeQvp+Czr8QQgxxlC7KXOkJP47z0TPE46usRVuHVmV9IMLKvxBCDHqXpiC3WGnCTlJ9QRWAtigecA1BAmUGHDDYTjsyzHE4Ac57z/X59C4gvqHLnGUJWl1BlYCx6vDEOI50gzSHkTps/i/hzMFDwBYJACi6gz5Jidnj89/yF1CJYEqT+MNhbzpYboDBG7mm58ls14AsAgIeaC9EMuxwgxT/Dfd2aYdfcOAKtoQ4hbacdn2YonAAzee+euExIvUefIBVKiNh6N/4U6B2sN+XfiANwfgJmCJwCsgVR+DUCjjpH1hPxT/t8WHqSOwVphT9dFAL4izcD9AZgJeALAAACu+5/fJqS8gzpHVpNY6Xbt+Rt1DNZKh/oDkGbg/gDMBDwBYEe47ps/G0I8Rp0jK0l8oSXkj0RldUqPi2Pp4ngMQNu6AqXEkf4AjKUMTwDYMVwHvNMBOYc6R5bZIgRG+B+Yv586CGuj2TP2QeBF0gwN/QEEaQaWVXgCwI4hHn9cc987/8cCuAkAP6223zKX1C523Tvvc+ogrH0KfPn/Io7A/QFYSvFskjUpdve1faSi/l4C5dRZMtBXkPhf133znuOSv8xU9HSVK6Lgh7quV8Tj8aGxeLzDlzt3IRanexNgs6mvJ/76iyvIArCswhMA1qLIPRMuATAZQhkHyC7UeSwsCoiVEMa/XQfynhePP85VFRmk74IFDl+k06REQr82nkicr8ViHQx57Nytrq4e3+7fR5QQDZ/YCXTD3++krUpgWYEnACxpsrJSCYe3nqeooh+k0kVA5if7vc8kOo7fL23dzczXHCdk8Cbbd486BPRUXlcCEQEcAMR2pyv+rqhcGEzl9Zm5hj27ariWMG7QEomiWCx2mmEYzX4mSsPA5zt3QtdT+mPUKh06FK45WPnji8gCsKzBEwCWHtP/MgZCLCHNIFGB2XfOJ83ASA2dW12sR7XrE7oxPBaLna4beqv3QX13YD9qa+vMiJcUVVXQ9eTTCz7/5Xi6ECwr2KgDsBwx+86lmPHANgC9CFNMB8ATgBwyaMGKc+xBcYOmJ0bFYvEeNftr2v2ZV+DPR21dHdnODl03ENNjTwH4IU0Cli14BYClz4yZtwF4kDSDVIZi9u3vk2Zgprns2Te7R7TEjQmZGB2Pa700TTOlk97Xu3cjHImYcemkeNzuWPi+W11kAVhW4AkAS5+778tDVP0agJ8wxXOYdedkwvFZCg2eV9VJjctpCT0xOqEl+kVj8Q7peDQPhoLYvfdb08dplt1+Ph64bQNtCJbJeALA0mv6A7Mh5M8IE8SRMLriH3fvJczA2qhhp37n8UeX5klJsBYvgS92fQVNozsqw+12vhq5b/pYsgAs4/EeAJZeQp8FKLeA7hAqB1TlRgB/IBqftdIxO/W/jZ9WY9TSP7gIIN/nx/4aur5O0ag2Ejf/uRCP/KqGLATLaPT/kFjumfGXZYAYRZhgDzoEu6GyMk6YgTWhtaV5VHTdwOdffQmSFYjDpLwNs++aRReAZTJeAWAElNmApJwAnIIDvh+AKwIs4cI5q4ZqwviJntCLY/FY1wM1dSp1pmSoqgKfz4tAgPDoh4b+ALMBwadNslaz5MyaZTspMOOBT0FZEiixBrPv5MNUCFzyz7d6xmT8Oj2hj4hrWv94PO6hztRWkWgUu775hjiFGIFZd6wkDsEyEK8AMAJCAjMfAWVJoMAwTP/rBVwSaL5Ln1t9SlhP/FRq2ti4lujzXe1+N3WmVHG7XHA6nKT9ASDkLQB4AsBajVcAGA0uCcxajTXRIX1PbjLy/gCADh1ncX8A1lo8AWB0uCQwKxzdREfTtPPj8fgJTXSymRX6A0Dgj3jozt/SBWCZiCcAjM6M+3sAylbQlQQCEr/D7Du5JLCVMmWnfrpQ9wcA5D5I5/cwewbhuwiWaXL6Hy2zAC4JzAgXPldVlIgnpiV0Y3gsHj1d1w26SZsFxTUNX+7aSdYfoIGcgFl3vUCZgGUW3gTIiFmgJLDG+0MA8wgzWM7xTXQOHqzlz4pmOOx2eFxu0v4AgLgVAE8AWNJ4BYARs0BJIPAeZt05jHB8ckea6BiJ0XHNvCY62SwYDGH3t8TbSaQ4D7Pv+JA2BMsUPKtnxCxQEghcmGslgcc30dlbU5OWJjrZzOf1wm63kfYHgGLcBOCndAFYJuEVAEaPSwJNZ5kmOlnu4MEa0v4AgAhDi5/O/QFYMngCwKyBSwJT7tid+vHTDEPnf+8m4/4ALJPwKwBmDdwlsN2GPbtquKbpN2m6fmksFjvtQE0d3/DTTFUV+LxeBILcH4BZH39AMOvgksBWGf3qli5C6pcCGAFg1N5vvz2D9MbDAHB/AJY5eAWAWQiXBDZn3OL1nSTsw6QQFwMYAakPps7ETuR2ueB0OhGLcX8AZm28AsAshEsCjzbytY+8dk0MQ8MT/ggAg9DMK5K9335Lu/TMjuD+ACwT8AoAs5DcLgksqqqyeUMdB+DwDV/DZQAc6c7B2s+f58P+moOU/QFU2HADAO4PwJrEKwDMWnKoJLB8wQI17Ok9EMAIIeUlUojhAPLaej1eAbAW7g/ArI4nAMx6srgkcMySTWfiv0v6IwAUpuraPAGwFu4PwKyOXwEw68miksArX/ngVF21NWzaA0YDOL2912SZgfsDMKvjFQBmTRlaEjjytY9OsmtiOBpu+JcD6G5KukbwCoD1cH8AZmW8AsAsKjNKAssXbPGFPfqF+O/GvfPAE2t2CPcHYFbGH1TMoqxZEjhu8XqPIRwXHdq0dzGA4QDsNPGOxSsA1sT9AZhV8QoAsyhrlATab5914ciSIg2HnvAN4FIATil47sySk5+fjwO1NYT9AaQHNtt1ALg/ADsGTwCYdbn0OYiqf0CaSwI9bjc6deyITh074qSOnVbDIk/4LDNxfwBmVfwYw6xtxsxZAKabOYTP60XHDh3QqUNHdOxQCLs9M+/3/ArgRKqqGg6H4yuHzbY6HI3+SNM0J0UO7g/ArIhXAJjFGbMB5VaksCTQ6XSiQ0EBOnXsiM6dOsLtcqfq0oyYUBTptNtrHA7HWlVV562dXDQPQhiDn3p9OdXNH+D+AMyaeAWAWV97SwIFUJCfj1NP7oKTOneG1+NJYTjryMUVAEUI2B3OA067/X2o+LdP7ppbff310aO/ZugzK6+vrQ/MoXsH34D7AzCr4RUAlgHaXhLYqWNH9OnRE35/m0/YZVYiAIfdEXbY7ZtsNttLwuZ5dO2kC+ub+vLSee+dvKdm/2PUN3+A+wMw6+EVAJYBWl8S6HDYMbBvP3Tu3MnEXNaSjSsAAgI2uy1qt9m32VTxqiwwHt7wg1F7kv3+gU8s/zIcjnQ1M2NrcH8AZiW8AsAygJCQf/kHhHgoma/Oz/NjyHmD4HSSvfJl7WCz2TSnw7HdpqrLbXb10TXXFX/WlusMmbNyTl2g3jI3fwA4uVOnutraOj/IHr5EZ4jY1eDjgRl4AsAyhdt4GlH1/9BCSaA/z48Lzj8PDjt30c0Uh3bq77bbbNWqw/X3tZMuea+91xz69IrL60LBqSmIlzKqqhoFefnFwH/+AqCULgn3B2AN+BUAyxwtlAR63G5cPPRCOByZWcbXXpnyCkBVVcPhdHxjU5Q1qlTmv3/DiJdTef2hz7/nD9fv3xvTNEuVd+Tn5f9h3bSS32H6zGsg8G/SMNwfgIFXAFhGabok0Gaz4fxBg3L25m9lQgg4HY6Dh0vz3F/gherKYtMOx49H61Zb7ebv9Xo2rJtW8jsAwN4zXsEpO78CQPd6gvsDMPAKAMs0jZQECkXggvMGo1OHDlSpLMEyKwDH7dT3hMQ/qm8tTkuwC55e+bva+vrKdIyVLKfDEfY78ru88+NLAkd+cfrM30Dg/+hScX8AxisALOOcWBJ4bq8+OX/zpyQA2B3/veGrifiTa24YlfbuN0OfeWtwXfDg/6Z73OYIIeDMc/3wnUlH3fwBAI7HgPhvABDtVOX+AIxXAFjGObYk8Owzu6PX2T2IM1lDOlcA7Ha75rDbP7OrtuUum2326snDv0jLwE0oqqyyHTgl+m0sGrXUTNCfl//4+mklNzX6mzNmzgfwo/QmOsYOzLqjF/cHyF28AsAyzH9LAk85+WT0PPts6kA5wW63a3a7fZdNVd9VbK6H3p98yXrqTEcLfE9/LRa01s3f7XLvavLmDwACf4cknQD0wIy/lmAWHw+cq3gCwDKQ85lCv/vPA8491yN4EcsUqqoYDodzt91mq3Yo9ifenTp8NXWmpgx9ZuX1NXWBEuocR7Pb7JrH5R/W7Bc9dOfbmDHzQwCD0pOqEdwfIKfxBIBlnHGXD++o6bpQVZU6StZoqokOda6WXPTkyq61ofDjgJVWsQXcXtfNa6Zc1HL7Pykeg5CPpiFUE+PjKtw6syv3B8hNPAFgGaVs6Q6/YUQWqYrNUmVemUYRAo7DpXkCSxKdIs9sGDc6fOQLphCGa4WwkVidSCQs9TmW5/MtWT91xFNJfXEs8Bxcvj8DKDQ3VZO4P0AO4/VTljEGr19v77LXsQykp6hZV7ObAFvZRCcTDH7qjXmBYHACdY6juVzO/ZsKg10wfnzyHX9ue+AhSDnDxFgt4P4AucpSM2fGmtNlr2M2+OaflENNdGIOu/1zu2pbLt2Jv62bcMUu6lypMnTOqqvqgvWWuvmrimq4XY7SVt38AUDqDwPKdHB/AJZmvALAMsKYJR/9DyD+SJ3Dyvbt31+raYlvbHZluTehPlp9Q9ua6Fhdv7lvFRp19bs1Le6iznKYgIC/MO9X6yaX3tumC8yYuQK0k9u3MevOSwnHZwR4BYBZ3pglm8oB/IE6hwXtBfAWgBWKVJe/P7VkJ3WgdFAjkbdjFrr5A4DX61nb5ps/AEj8A4J0AnAJpj8wiPsD5BaeADBLG7fo4yEGjGfQyPn/OWgfgGoh5TtSiLdfHdt/A3WgdDv/6RX319cHzqHOcTSH3RHyx+wj2nUR7g/ACPArAGZZ4xZ91F0K8Z4UOIk6C5EQgDUAVgBYMWR9vw8rK61fmmeWIc+vGBKoCa01DMMyn1tCUWRBoW/U2kmlr7f7YtwfgKUZrwAwSzpc7gfk1M0/AeAjHLrhe8Lq6oXj+8YP/+arZLHoFVVW2Q6Ewq9b6eYPAH6v59GU3PwBcH8Alm48AWCWM3j9eruyN/IigHOps5hMB7ARR274wXcWjr8oQpzJkupPj6+KheIF1DmO5nG7d6ybdvktKbvg7Bn7MGPmS6DsDyDEzwA5m/sD5AaeADDLyfJyv89x6IYPYMWrY/vzcmsLLni6enpdfY2ldqjb7TYtz+0ZnvILc38AlkaWWk5jLAvL/T4/vGnPUOTSZaMHfE0dKJNc9uyb3Q8E6rdrFjrtTwiBPH9exfqppfNNGWDGzA9A2h8AL+KhO39ANj5LG54AMMsYu3jztVLI+cjgn0sh8Z0UeENIrDQU26qlY87hM9bbSkql/+PLv4lGo12ooxzNl+d78YNpl5t3g5z+wE2k/QEAHTrO4v4A2c8ys2qW28Yt+niIIYw5yOCbPwBIgddfHdv/Ouoc2WDw06v+FbDYzd/lcu374PoR5Zhm4iDcH4ClCddWM3IN5X7GEgAe6iwpMH70q1ssddPKRMOeq/p+KBj4IXWOo6mqYtjcnuGmd0l8vDIMIZ4zdYyWSHkTps8iqkZg6cITAEaqbOkOv6GIRVlU6+8AjJuoQ2Syi55956T6QOgFQ1pnI7qAgN/nv+eDycM/TcuAUn8YpD2Oj/QHYFmMJwCMzOD16+2KkX3lfkLKm8oXbHFQ58hU4VjgLU3TLPX06fN63147tXhm2gacdfcOAKvSNl6jxK204zOz8QSAkcnicr9TQl7dUsvXmWLoMytnhsORntQ5juawO0I4OXpF2geW+EfaxzxWQ38AlrV4AsBINJT7IWuXyhUD06kzZJqhz799YV0geDt1jqMpqiK9Ps+oDePGhdM++N4zXgFAuxNf4ddZ2Syjd1xnsrKyif7dtXV5CWiRLWteO0idJ50Odfd7AVk+ARXSGLpk3MD3qXNkgqKnq1wHYuHvYrF4HnWWo/n9vtnrr798BlmALO4PMKy83B04GPOrYcP20Zol36T6+qxlXAaYAmVlE/1xaXQzoHaTitFdkegugU6QoqMUsqMAOgPIB+AG4AKAKCSCgQDq6gPodMZ5AABFEVIoirQpSkJRlKiiqmEhREBR1O8Um/iPDepmVZUbauBZu3vD4vQ/kaRALnX3k0KZDoBLApNQr2tVVrv5ez2eT0lv/gAypT9AeXm5Y1+98wzA6AZVdlOk0k1CngrIjoDoCIGOkOiIhs+/hv/OQSAWjWLnN7uPfAYKIaAoihSKottUJSYUJaIKJSgUUWNTlC8VoXxiU8VGw5f/zqdvvbjH5D981uMVgFYoKiqyGe4u/VQo/QRkfwOivwD6Azi5Ldfbuesb1NUHWv19QgB2mz1us9u/s9tt21RVvK/Y7Uu2rnv93bbkSJcc7O4Xl0LtunRM373UQaxs6NNVP6+tr/2bdfb8A3a7PeYq8J6+oaJ4P3UWzJg5H5T9AYAdmHVHr8P9AYpG/aibUJQBkOgvIPtLiP4AzgKgtvbCdfUB7NzVtod/m6oaDoe9xmazfa7a1A9tqrIqclB/5csvq6NtumAO4glAM4q+P7VAROMXSWCYEPISQFyAFNaqt3UC0BSbzaY7HI49Trttnaqqr0Rr9X9Z5R9D2dIdfsWIvIMs2/HfEilE5dIx/X5PncOqhs2r6l17MLBF13XLrAgJCOQXFox/f3LRQuosAIDbZl4CibcoI5y9/+tHzqj5trOEuBjAKam6bnsmAI1RFAVOp6PGbrN/7HTY3nC43HP49ULTeAJwnOIrJvSVihgrBEZAYjgAu1ljpXoCcDxFUeB2Ob912p1vSGF7eMem19eaNlgzBq9fb++y17EM2bnjvyV7PGG129FtfdkhUioDHl+2OxKNtWkFzSz+PP/89dNKK6hzHIO4P0DnYC3O3fN5yq+b6gnA8YQAHA5H2OV0blJttudOLdAfr66uTpg2YIbJ+T0A5eXl6v6AowjCuBYQVwI4WQCkR3CkimEYCIUjJ4cQmQRg0mlnXxhxuZzvOGy2+z/duPKNdOXI4nK/ZBwuCZxHHcRqzp+z4qV6i938XS7X3vXXl0w09ajftpDiMcr+APt9+YjaHHAlMmseKyUQi8U9sVj8QgAX1teps8/se9lWp9PxpBIr/PuWLQsz6w+UYrm6AiBKr5h0iaEYEwD8AKB5J232CkBznE5H2OVyvqkI5+/NXBnIwu5+rSYk3lsyrv8w6hxWMuSZqon19XXPSwud9qfabHpnj7/P6uuH76DOcoIbKz1w+b4GXX8AdDu4F90P7E7pNc1eAWiOTVUNj8e9xeVw/uOTD9+gbL5EJqcmAEXfn1ogYvHxAviZBPpR56GcABwhBDwu10GPy/nPepv3N6msLsiVcr9kcEngf1307Dsn1QUP7tK0hGVOSxQQyM8vuP39qUV/o87SpNseeAhSklUl2HUNF32xBYpMXSsEygnA0Rx2e9ztca30OMTtmzdUb6XOky458cFcOmrCsOKyihdELP4tgMescPO3DCkRjkQ67K+pMpUm8QAAIABJREFU/YVxcG/gzL7D3+p1Xmn/9l523KKPhwB4BjnyM9aSQyWBDEA4FlxjpZs/APh83ipL3/wB8v4AmmrHfl8+1fCmimuao64uULZ3f+DTbudc8lWvQSOs9hLIFFm7AlBZWamsXrttjBRiBiRGUOdpjCVWABohhIDX6/nc6bDdvm1j1Sut/f4cLPdLBpcEAhgyZ+WDdYH626hzHM3ldNbpHYInbRk/3vrvg2fMXAHC/TT5kSDO+3p7yq5nlRWAxjidjrDH437ekeg0PVv3CmTd01lRUZGtuGzitDfXbt8mIRZZ9eZvZVJKBIOhMw8crHu5a++L9/YcVJL0YTZZ2N0vVXK+S+DQudXFgVCQ+GCdYymKIn1uT1lG3PwB8v4AdW4fgs5s6Nrdslgs7qmpqbuxJrYzcHb/kif69i231KpVKmTNBKCyslIpGVVRLtynbgHkUwDOps6UDULhyMkHD9Q+e0aviw/0Hjii2dKowevX21U98hKsW+uvUw6ey10CRz77mjccCC02DMNSq4553rx7351StIY6R9Is0B/gm/yOlMOnXTyuOWpra284EN0Z6tmv5LlsmghkxQSgeNSkK99cu32zFFgAwFKdxLJFwz6Bmrnd+lzyVZ9BJZc19jVd9jpmS4GSdGdL0idSYDJxhpztErgvjjdjsbiXOsfRvF7PpnXTSn5NnaNVFo7XIfEkZYRv/Z2QUFp96F/GS2ia7WBd7aTa2K66ngNLKqnzpEJGTwCKR03qVVxW8SqE8QqAc6jzZD0pEQyFz9h/sO7N7n0v3Thg2NjTDv+Wtbv7if2GIq5cOrrffCGxjTJJLnYJvODpVb8OhcKDqXMcze5wRF2QxdQ52sbxGIAY1ei6ENjr70A1PLlYPO46eLD2d2f0uuhAz8Ejv0+dpz0ycgJwyZiKwuJRFQ9DGB8DGE2dJ9dIKREIhAZ8u/fbnWf3L3li9KKN4wHxB+pcTYgYijFu2eh+/4EQ0lAE6TtUKXDh2MUbL6DMkE6DFqw4pz4YJOxmdyIBAZ/H/aM1N4zKzC6cs2fsA/ASZYSvC05CFu8hT0o4Eu1Qs+/AS937Xrqxz0Wju1LnaYuMmwCUlE0YZzfkZgjcCj7JkFRC15VEfocbpK5btdZfAnLastED3jv8C7aE/WkA9YSZcqYksKiyyqYf1FYbhnXO+QcAv9//z7VTSlpd3WIVJWXXntV/92c9KDNE7E7UeHyUESxBouFhqGbPvs97DCh+jDpPa1nqH2ZzikaXdykuq/j/JMQiQJzW8ncwszk7dkavW34OxW635KOAFPKeV8cOeOHoX1t0Ve8AgH8SRTps/OhXt3QhzmC64Pf0xdFY1FI7xlxu19frri+ZSp2jLYqKimxFoytuk1A/6hiqH+yL0XYE/ya/M+n4VpLQdaWmpu7Grr0v3ttzYOkQ6jzJyogJQHFZxWQh7VvRcGwvswDV5UbPm38OW56fOkoT5FNLxwz4S2O/I6Q+G0DqjjNrvawvCbxwTtWUQCg4ijrH0ew2Vffb7MOpc7RFadnEcxT3qe8LiQcBeAHgtLoDpJkO9wdg/xUKR06uq61b22NgCemrxmRZegJQVjbRXzJ64nNoeGLLziOoMpBQVfS48WfwnGrZhZhqT9h2S1O/uWTcoB0AXk9jnhNkc0lg6bz3Tq6PhJ6w0jn/EIDXl3fr29NGpL6lncmKyyomG5Dvy+O6AZ5cvx82g66yVUJgT46VBCZDNwxRc7D25jN6X7Kr1wUju1PnaY5lJwAloysui0JullJOos7CjtVt/CTk9+5LHaMpn9g1/eqW2u8KidnpCtSErC0J3B+oey+R0Exro90WPp/vtfenZNY72pEjrzuppKxiMRoegE4ooVSlRJd62n2Mu/M7wxCWvY2QCofDp9cdqNt+zqDLf0qdpSmW/C9XXFZxo5RYAeAM6izsWKeWjcNJl1q1eqqh3O/lqwfVtvSVS8b2W8Ylgak3ZM7KOZFouBt1jqO5XM7amK/mSuocrVE8pmKwpurvS2Bsc193eu13oOxdHldtWdsfIBUSmmbbd/DAI2f1G74UFrzfWipQUVG5r3h0xQIAjwGw1BMEAzqcNwSnj72aOkZT/lvulwwuCUy5IXOqRgTCwanUOY6mqqrhdXlLMuaoXzQ8AMHAuwBaLC1zazEUhoNpSNW0b/L51O/mSAnU1QXKuvW55Iv+/Uda6i/LMhOAy8ZW9BBu+1pIlFNnYSfydT0TZ03+CYQ1l/tOKPdLBpcEps7Q59/zR6OhRYZuraN+/Z68P62ZMvxD6hzJKCsrcxaXVcxBwwNQ0vtDTqvbZ16oJNS6vTnTH6A9gqHwGQfC9V+dM+hysmZOx7PEp3npqAnDVB3vgE/zs6Qj5X4Oa+5Za6zcLxlcEpg68Wjd6pimualzHM3r9WxYO634t9Q5knHJmIrCKApfA3B9a7+3U7AOrgTtAkeu9Qdoq1g87jpQW/NG70EjLDHxJ58AFJVN/KEhxEoAXFRqQZlc7pcMLglsv6HPrPrfUCg8gDrH0Rx2e0TxK5Z50mrOiDEVZ9ol3gXQphJFAYlTavenOFXr5Gp/gLbQdUMcOFgzq+fA0oeps5BOAIrLKn4tIBcAsNSTA2uQ6eV+yeCSwPYZ+sxbg+uCgd9R5ziaEAIuv/sHG8ZfXkedpSVFZRMv1A28B4ne7bnOafUHoEi6eWxDfwBeBUiWlBIHD9bcela/4lcpc1BNAERRWcVfAPw/5PqB0haWDeV+yeCSwLYpqqyyhWPB1w3dIF9JPJrf5398/aTSZdQ5WlJcNmG4gHwdKVj9tOsaOgVp5ztfF3QGf5y3Tl1d3egz+17Wqr1LqUTxD1cUj654UAB3EozNkpQt5X7J4JLAtgl8T38tFo1aqi2c2+XetW5aieVfqZSUTSwDxDIAeam65unEmwG5P0Db1AeCQ7v1vWxLUVFR2nvbpHUCUF5erhaXTXgaEjPSOS5rnawq90sGlwS22tBnVl4fCAZLqHMczW6zax6Xfxh1jpYUj57wAwn5MlL86jM/EgT3B8hMwUDwnC++0z/t27c8ra8C0zkBEPuDtkcAMSWNY7JWysZyv2RwSWDyLnpyZddAKPw45QE0JxJwe103r5ly0TfUSZpTPLriKkgxH60o82sN7g+QuULB0NkhueeTdK4EpOtTXhSPnvgwIH6SpvEyQZ1QlLgQ1nlnlq3lfsngksDkhY3E6kQiYalW3Hk+35L1U0c8RZ2jOcWjKq6AxL9g4iFnGdYfIAIgqCqKlWaSpILB8Fk79xkb0jVeWv4RF4+eeB+kbNdu7QyhQ2AHJLZI4AsI8SWArxRdfpeQ6j7dZd//zqI5gca+saioyLavTu0ZV0R3ocuuArJHQpc9pZHomkjoXeJxrTChm9dXPdvL/ZIhpD5bCvVW0G2OPVwS+Hui8Vs0+OmVcwP19ZY6otvlcu7fkHfw+9Q5mlMyuuIyKfEiAKeZ4xzuD9CwIY/GNwWdja41e1cpEtthGF9CwVfSwG5DNQ5Iw9hfOrTvgcrKykZLFgYMG3uakYidHY/LMyVkNwNGbyOhd0/oxqkJTeusJTSHlXpMmaE+EOx/1rnD1/zn4zdNf51l+uNnyagJv5RC/NnscYh8BeAdKcS7gL425tW3rFm4MGLWYH0HlZ6jSVylJ/SRWiLeLxqNdTAM2e7/hkJV0evW262847/aE1avSMWO/5aMWbJpGQDKNrZ7PGG1Wzr+rK01dM6qq+qC9S8bFvoEVhXV8Ps9g9ZOGbGJOktTikZXDBQSq5HCDX/NidideK/bOaDdkS8nYNZdKV+t6zvsig5aVBtjGHJcIh4fEotrp2uatVajUqWgwL/ks03V48wcw9SfkKKyidcKyPlmj5NGEQixSgLLFJlYvmrZv1K3Ea0NunUrcjkK1GmJhDYxFo0PisXjbdpU1H3CFAvv+Mcndk2/OFU7/lsydvGm0VKAtDZXCkxcOqb/PMoMxxv4UlVBYk94d1xr28+YWfLyfb/dMPXyP1LnaEpR2cTTBYz3AJHWwzQ2ntYDNZ60zDeaIN7CrDsuS8dI5wy6vDRuJG6KReNF0Wi0s6XaULeHEOhQkP/A9o9WmVYxZ9qNuWjUhEuEEG8AcJk1RprEILEcilggw/FF1dULaTtvNKPfkMuHhyPar6LR2GWxeCypD+pTy8bhe+N+YHa0NkmEQzK09dNhb//vtLVpG1RKMXbJ5k+lQK+0jXkcIfHeknH9LbWbfeCTr28Jh0KWOqrb5/Wu/eCGkRdS52jKxVdOy3MkIm9BirSfkrjPV4CPTzkz3cMeS4rzMPuOtPZh6HPpNackArW/jcfiV4fDkS6ZPhkQQqBjYeGNWzeueMKU65tx0aIrJp0tFGMNgE5mXD8tBLYC8gmp4tnqxfNpz9lsgz7nlV4bi2u/CQXDfXWj8QYtHc4bgrN/fLMld/wbmoZPH7wXcu/u73y2U7+3ZcvCtC2Jj3518wwh5UPpGq8xQhpDl4wb+D5lhsPOf3rF/fX1gbuocxzNYXeEOklPl+pbiy05IS8vL1f3BxxLICTJ6yQJgfe696XdkS/kY3jorp9SDd9vcFHviKbcHw6FrohrmjV3NidBtanGSR0LSjave+PNVF875ROAkSOv8yZUfY0E+qX62mkgJbBcSPFA1fK5K6nDpEL//iNPCgttdjgUvjoe147sPvZ1PRN9fvFLa+74lxKfPfMYDqxrqPbz+33vfv7x6ovTNfyVr2zN09X41wAod0Q+/+rY/tcRjg8AGPL8iiGBmtBao4lJJAWhKLKg0Ddq7aRS0iOcm1NSVnGvBO6hzPBlYRd80elUwgQiDC1+Oh75VQ1hCABQegwsvTMajd4VCUcy8qHU6XBEuuR3PmPDhsUpfRhN+aNfQtWfzMCbvwEh5sOQ/aqXzRudLTd/ANi06fXvPvuo6tqep7s9HQoLHnA6HVFnx87oaeFyv50vLzhy8weA+vrgRT0HlKRtIymXBDYoqqyyRYOx16108wcAv9fzqJVv/g0H/eBu6hzU/QEA6YHdPokwwGHGjo0r79+19Z3OnTp1+IHP69kJC5VfJyMWj7sPhGvXpfq6Kf1bKB494XZI8UAqr2kyKSFfhmL73+pXn/uYOkw6XPHk8g5we7bb8gss2blj37tv4vPnnz7h1xVFkYUdOo7e9sFry9ORY+ziD3tIoW4FYcMsKUTl0jH9yEoCz3tyxZvBUCAtG7mS5XG7d2y8cVRP6hxNuWzMtX1UQ12LNO34b8mWLt3xXV4hZYQdmHVHL0BY6mV87/NGXBOJRB4OhSKnUGdpjcKC/Bd3bKpK2aatlH24lYz50UWQ4r5UXS8NPlAMZXj1svnX5MrNf/D69XZbl1P/ZdWbf/2Orfhy/nON/p5hGCJYX/dS32FXpOXs+VzvEnjBP6t+FrLYzd9ut2l5bk+bWuamw7hxN3pshu3fsMjNH6DvDwCgB2b81VJHRgPA1g9WvPjVp++c2rFj4W1Oh9O00u1Uq62tv6bXoBHTUnW9lEwAysom+qVUnkeaDhZqpxoBcePwoT2HrHzt+beow6RTl72O2QBGUOdoTGTPN9jx6CwYeqLJr4nF465IfaQqXZlytUvgZc++2T0UDP7NSo9sQgi4PZ4pb1132R7qLE0JJoIzJWQf6hxHs0J/AAjrHgK37cOVs3qc7vQX5PvnZsKJhBISgUDg0T6XXpOSlYuUTABiAn+HRPdUXMtMAlgiIfqvWjb3iaZOospWY5Z89D8ALNklLREMYtujDyERafmDqj4Q7N9zQGlalsVzskuglKI2HH5Xs9xRv94X108tnU+doykN3f1AtuO9OdT9ASBxFW6d2ZU2RNOqq6sTn22unlTQIX+gx+P5mjpPS+JxzR45sC8lFQHtngCUjJowQUpphY0ezQkIKStWLZs3rnrZXMv/B061MUs2lQPiD9Q5GmNoGrY98jfE9n2X9PfU1df9ps/5I881MVaDHOwSOHjOygXRWNRS/QhcLte+9dePKKfO0ZSi0eVdJOQ/YdEDz6j7AwBQocofUwZIxrYPVm7aufXt7xXm58+2+mpAMBjq0Wtgyd/ae512TQCKRpd3kUI83N4QJtuoqxi8avl8yz49mGncoo+HAHgGhJvZmiQlPn/+KQS/aN2BirpuKKFgOC2bAXOpS+Cw56q+HwoF0/7KoTmqqhg2t2c4hLDsip0i7Y8AsGwfXFViryuhvUIaQoibMH2WqX0QUmXH5qoZHU7ufJHb7U7L6aNtVVtXf1vfQaXtOpyrXTcFRdpmA0jLpqw2kXjOZ/NdvHrJvB3UUSiMW/RRd0MxFgPwUGdpzPHlfq0RDodP6zloxL0pjnSCXCkJHLRgdef6QOgFK53zLyDg9/nv+WDy8E+pszSlZFRFuQSs3Ijo7YQhzgs6HHeBsn+zxEkQsavJxm+lT9cue89vO/XkfL/vTauWDOq6IUKx+NL2XKPNE4Di0RVXSQhLPS0cpR5CXlu1fN7kxYsfJ94BQ6Ns6Q6/oYhFAE6mztKYfe++iT1vLGvXNerr6u/sc9Fo098tCqnPBkD5BHq4S6BpZF34bU3TLPWE5vN63147tXgmdY6mXDKmolAKMYs6R9PE7PrvfCVvvfb8Hsy6eweAVbR5FMtuBmzMli0L4//5eHVRYWHBXxTFWmWMhwWDoa7t2RPVpgnAiBHl+ZDy720d1GQ7paJeXLV0/gLqIFQGr19vV4zIvwGY/568DZor92uNRCKhRuuC7ZtFJCHbSwKHPrNyZjgcsVRtvcPuCOHk6BXUOZpjN+RMQFpqv8QhCSHEzVXL5s7YsOFx7civSpDuZwHkpZj+wCDaDK23Y+PKuzsUFE5SVcWSr6ECgcD/tLUqoE0TAN1m/990d7dK0gcJQ7kwV+r6m2Lpcr+9u1ss92uNQCDYp/fAy6em5GLNyNaSwKFPV11YFwjenurrtoeiKtLr84zaMG6cZVfvSkdNGAaI66lzNCIgIK5ctXTuoyf8zt4zXkFDC3M6irkrWWbZunHFvM4dC0odDrvW8lenl5ZIqLGD+19qy/e2egJQdMWksyFwa1sGM5MU8i0XRPFbrz1v2TrhdLB8ud8jDyZV7tcawXBoFkze5JiNJYFFT1e5QrGw5Y769Xl9D6+dXPw2dY5mCEMRD8J6u/5rJcTIVcvmNr4qtnC8Dokn05zpWFK5Djf/mfRowrb6eP2K6jy/73ynw2G5g4MCwdDQcweUjGzt97X6Q1MoxkMALPWuEJDVCCdGL1s2l3S3NrVsK/dLVjQazes5sNTcd7FZWBJYr2tV8VjcMqfWAYDX4/l0/fWlM6hzNKdo1MTJkEhbaWaSvpMCxdXL5rawq9bxGIBYWhI1yjL9Adpk2wcrNxW6vN09bhfx4QrHklIiEIu3erNyqyYAxaMqrgAwurWDmEkCb8iIs6y6eqEl24KmSzaW+7VGoD7w08GDx5na6SubSgKH/LPqtlAodGEqrpUqdrs9pngdljp++HhFReU+IeSfqHMcZ79U1NLqpfM2tviVs2fsA9Cm5eIUmg5Iq62eJO3jj1d+28F90tlul6uOOsvRQuFwl94DR9zZmu9pzc1CCIG0dWRLihTvIqJdU139TJQ6CqVsLvdLlpZIqLXxoKnletlSEjhsXlXvYDDwgJW2NQsIeH2+6zZUFKe03WnKuW23AaDssXu8OimMslbtexKg3sBtyf4ArbFx48u1HTp26Gu11wGBUPD3aMV9PekvLCqb+AMJWGYHpwA+dAnk/JN/LpT7JSsYDJQNGDbW1M2pGV8SKKUSDkSq9YSupjBTu+X5fS+8P7loIXWO5owYUZ4vIO6gznGUCCDGVC99YX2rvuuhO98G8KE5kZJk4f4AyfpozZJv8vJ9Q620MTAWi3t6Diz+Y7Jfn9QEoLKyUhGQv217rJTbndCNq3L9nX+ulPslS9cNEQwGnjVzjEwvCTx/zoqXItGYpSaLLqdr7/qppRXUOVqi2x23A7DKBjYJIW6oWjb3nbZ9t3gsxXlaOb61+wMka+uGFZsL831XWKlEMBSM/KKoqCipXh5JTQCq126fAKB/u1KlTkCRsmz16y/sog5CLZfK/ZIVDISKe10w0tTGVJlaEjjkmaqJgVDoSjMCtZVqs+kFTs9lENY8aOWw0tLJHQH5c+och0ngV1VL585r8wVigecA1KQuUatlRH+AZGzZsLKqoDB/imKR/gGxeNz1zUElqQO0kpkACAH8qp2ZUkUKiR+vXD5/E3UQamOWfPRr5Fi5XzJ0wxCJSPwJM8fIxJLAi55956RwODhHWuyo3zxv3l2rrx9u+aO6pTMxHYCfOgfQ0NW0etm8+9t1kccrwxAifctzjcmg/gAt2fbByucL8vLa3ZwnVcKR8E1I4v7e4hcUj6ooA9A3FaHaTcp7Vy2fZ+n3hOlwqNzv/6hzNMbMcr9kBYOh4oEDv19g2gAZWBIYjtWv0bSEKScJtpXP5616f2qRZT40m1JUNNUlpWVa/e4ScdtUpOJcf6k/nJLrtHn8zOoP0JLtm6vu8Ho9W6hzAEAsFnf1HFh6T0tf1/IKgIBVTglb3SkvYaV9CCQsXe4HyC9MLvdLhq7rShB1D5k5RiaVBA6Zs/LBcDh6ptl5WsPldNZF82pGUedIhnDHJ8Mam2w1CKN85cpnU1ODzv0BUs6n2C50OBwh6hwAEI1GWtyw2uxNpHTUhP4ArFCuUScEJi9cuJC0qTU1q5f7SSHv0bZ/2q7uVKkSDoR/lOxGmLbIlJLAoXOriwOhoKUO1lEURfrcnrIt48fHqbMkQQgIa7z7l7inaukLa1N8Te4PkEJbtlQH8zyeK63QPCgcjnbsc17ptc19TbMTAEOIn8MKx10KccuqpfNoz7AmZvVyP0A+tXTMgL/8Z3PVOLfbvY86TVzTHHsPqnebOYbVSwIHL17sCdeHF1ntqN88j+++d6cUraHOkYySsomjJGQf6hwSWFy1fN6DKb8w9wdIuW2bVq0q8OfTHrl8SDQSb/Zk2CYnACNGlOcDGJ/yRK0lxKvt2u2aBaxe7geg2hO2HV7KM1xuz0hVVelnwPH4zWZe3+olgca3jtWxeMyX7kzN8Xq8m9f9uNQqm4pbZMD4CXUGAHWKarsZZryv5/4Apti+adWNXo9nL3WOUCTSs7mzUZqcAOg220QAXlNSJa/eQptvyFi53A/Ap3ZNv3rh+L5HlnN3bHxjY57PSz5pi4TDp/cYePlAM8ewakngBU+v+nUoFB5MEagpdocj6hJGEXWOZBWNLu8iIMZS5wDE7auWPPuNedfn/gBmcLqc5K8CDMNAKBi8r6nfb/oVgBD0M18pf1W9bO7X1DEoWbncDxD7DUWMe/nqQbXH/85nm6snu11O2k1ykDD0xP8zcwwrlgQOWrDinPpg0FJVIgICPo/7R2tuGHWQOkuyBBzXA7ATx3izatncp00dgfsDmGL7xpXr8v1+6r9XRKLRJistGp0AFI+pGAzA1Cenlghgc6e8BO1pVcSsXO4HIGIoxrhlo/s1teXf8Hq8N0PQ/puORMLmrpxYrCSwqLLKph/UVhuGbqkqEb/f/8+1U0peoc7RCgKS/KAaHYZyG9JRqsf9AUyh1cuJToeDcHWl4XjgpjYDNvohIQw5wdxILRNC3pHLu/6tXu4nhfzxstEDmu3ws3Xjinl5Hs/2dIVqTDyuOXoPHGHqMbNWKgkMfk9fHI1FO1JmOZ7L7fp63fUlU6lztEbJFRVDAJxFGkKIJ6tee/6jtIzF/QFM8eWX1dE8n+831Dni8USjlSyN3VyEhGj1MaMptnTl0vlvEGcgkwnlfkvHDJifzNfanK5rhUK7ChDX4qaWwVmlJPDiuat/EQgFLVVbb7epus/hKKLO0WqKpN4AHVJsxu/SOiJ9f4ArMf2+00kzmGDrxhUz3R43aZfLUCR6Phq535/wCyVjfjQMAGWTBqlIUUk4PqkxSzYVGop4FZYt98MTS8cM+EuyX7xj4xsb87zedWYGakkkGh0Mk1dSdFX+HZSnqgGOaDT+gJWO+oUAXL68n747tZT2ZKjWI38IkkLMXrlo/rdpHZS+P4ANQrmRcHzTuN1O0gP1Eppm6zVgxJTjf/2ED0XDEOXpidQEgZdWLp9LesOgMnj9ejuABQDI646bUO0Jqz9r7Td5XcpkykYZmpaw9Ro0YqqZYywvG7ANwGtmjtEya22iyvP6Xt8wpdgS9dCtYYGHoHo1pibVzCWlrNAfAOInqKy01JHVqbD9w1XPeb20ZYFaIn7CK5YTJgACgrRbmGKIeynHp5Rp5X7J2ryheqvP69lgRqhkaVrc9A1dFigJtAyXy1kbzasZR52jLaQhrqIcXwCPpOy439ai7g8AdMFB7zWE45vG6bK3eDa/mcLR6IDjf+2YCUDRyAm9AZCdGS4lqnL16T9Ty/2SZbPbbxGEh0rGYnHTq1qsUBJoBaqqGl6XtyRDjvo9gYAoIxxeS+gG3Y587g9gmu0fVj3rdjnrqMZPaAn7OYMuLz36146ZACiqQruBSBF/JR2fSIaX+yVl+8aV67xez5cpytRqsVjc0+u80v6mDmKBkkAr8Hvy/rRmynDaHeVtVDJ28mmS8sRNiRdWv/7CLrLxGzLQ9we47S/m/lsl4na5SMstNV075mC9YyYABuTo9MY5isAXRRf0sEQjmXTKhnK/ZHncKunrHT0hk+qe1x5WKAmk5PN4Plg7rThju3YahlYGyv4nCuHT/2FW6A8AZOUqwKkd5O/sdnuCavxoTBt+9P8/ctMZVl7uFsCl6Y/UQEr5VGVlJWVjlbTLpnK/ZHzyQfVjToeT7FCMREK73OwxLFISSMJht0dEvpLRh7kIiJGEw29Kebe/trBEfwAxETfem0+awQTV1dUJj9v1FtX40Vi089ChQ/2H//+RCYCn3nk+ABdJKiBhT0hzj7u0GOt398Oc1pT7Jcvtdi5L9TWTFY3G01Kt+bH0AAAgAElEQVRjbIEugWknhIDL7/7BhvGXk73jTAmJS6iGFsATVGOfiLo/AHxw2SYTjm8aRXH+iuqAVGlIBDT3kYP+jkwADFWS/eADWPXGGy/sJhw/rTKju59qSic9u9PxW6of/kRCU3sPGXmR2eNYoUtguvm93ifWTyolm9ylQknZtWcBOIVo+IRNVxcQjX0ia/QHuMVqpa2psGPT62tdLhfZeQsxDUeqc45+73wxQRYAgJSwzg9+GmRruV9SF1//+seUP/yGppt6LPBhuVQS6Ha5d6378eUZf4CLhEr2GQhg1euvP/cd4fgnou8P0Dsb+wMAgNPhINvvltASR7qEHp4ACEh5IVEeTdVsLxONnXbZXu6XDNIf/sSxm2DMkislgXabXfO4/MOoc6SEEKavDjVFCrmQauwmcX8A07gd+CPVSmg0HjsJh+79CgCUlF17JgCiBiLyHbJDL9IsF8r9kuFQbA+YPUZT4nGte1oGyomSQAGXz33LmikXmdirPo2kHEI1smrDYqKxm8f9AUyxeUP1VpeT5kwAPaErfQaVXAIcmgBIoRC2/lUy+r1hsnKp3K8ln3y04kOnwxFJx1jHi8Xi3r59y9Ny1Gi2lwTm+XxLNkwpzbijfhtTVFRkA3AO0fAfpP3c/2RxfwDTOB2O96nG1qUcBRyeABiCbDOaIo3lVGOnS66V+yXD5XKmp83pcaSUSDjr0/JeMZtLAl0u5/4NeQe/T50jVVT3aT1BVAUlIKz7Gcj9AUxjszvIKt903RgKHH4aFfKEM4LTZP/K5fM3E42dFrla7tcS1WZblO4xDxO6lrZa72wsCVQV1XC7HKUYP16nzpIqUhpUn4EQilxJNXZSuD+AKbZ++Ma/VJWmSZqm6T0BwAYAAqIfRQhAvgvaHyxTDV6/3q7uibwkhWXL/SAFzhqzZNMbaR83oTkDn20n+Y/v8HivP+uMB9PyM3/ozxcH3RkbKefL8/5u7ZTSTdQ5UkkKslXQhB7SrN3/ZNbdOzBj5ioApS1+rWmUWwC8QDe+KQyXw7kvFImclO6BE5p2EgDYDr376pbuAA2Ud2jGTY8uex2zpYCly1iERFp2xZ8wrs0Of+++FEMDQAGsW4ZpaT6vd+26qaV/pM6RcgI9iB5FPqquXhgkGbk1JP4BQTkBONQf4KG7smriqdodGxGJpP30SU1LOPr2LXcocHU5HYdWAtJNUaS1Z77tYO1yP8Zaz2F3hPwxe1ZOnKSkeQiSQGZ8BnJ/AFM4bGraV18BQELC8AXPU1RVSU9ZVGOitqyazR1m8XI/xlpNKIr0+l3XVN9abP2n1TYQAMnnoCIEyWbYVuP+AKawq4klVGPLuDZEMQxBNQH4Ohvr/y1e7sdYm/i9nkfXTirNyuONR468zgugE8ngQs+ghyDuD5BqmzdUb1VVhWSTcEI3+itCyDMoBgfwCdG4phm3eMsZhmK8CouW+zHWFh6ve8e6aZdn3fLrYZpIdKMa27C7MudzkPsDmMLhcJAcCCQN/SxFSqR9ByIAQIgvSMY1SVFVlc0QiXkAOlNnYSxV7Habluf0kGwUTRfFJmg+A4Ga6pefMfXY7ZTj/gApZ1PUfRTjSik7KhBES1/0G0pSyhvqcDcgKJuJMJZSQgi4PZ4pb1132R7qLGbSDUFyDLoAvqQYt124P0DKKTZ1F8W4hjQKFEh0oBgcWTQBGLd4fSdA3EOdg7FUyvN5X1w/tTStJ0RSEJD8Gdga3B8gpRQFOyjGNXTDq4BqydqANc++bgNDOG4B4KfOwViquJyu79ZfP6KcOkc6SEiSz0ApRGZ+BuquuRAgeW99iA2K+hPC8VNKCHUnxbi6bngUACRlFVKR2VQBMJE6AGOpoqqKYfN4iiBEVh1h3BQhFJrSMsM4SDJue/3j1iAkniXNIDEpWzYDKhAkK0G6lHYFEE6KwY2EkRUTgLKlW84B0JM6B2OpICDg8/nv+WDy8E+ps6SNpDmmWQolgz8DjdmgPcb9TEx/oA/h+KljV74kGdcwFAWQNBMAu5IVB4oohnEhdQbGUsXn9b69bmrxTOocaSVA02lOGpn7GTjr7h0AVpFmUOQw0vFTRGiSpgoAUigAzQ9/oeKjPFAiZYREb+oMjKWCw24POvw1aT+XnJyURK1mRWZ/Bkr8g3R8Q5xGOn6KqAmjnmJcKRtOqyNZAQgEtscpxk01Q5FUZZSMpYyiKtKT5xu9Zvz4CHUWAiSfgUIRmf0ZSN0fQJFdyMZOoYNOT4BiXGk0rACQHFlbVFSUFRuMBNH7Q8ZSyevxznr/uqK3qHNQEESfgdKQmf0ZSN0fQCKPbOwU6pkXIJkIykM/+BrF4GvXrrVTjJt6ooY6AWPt4fV4Pt0wbcTPqXNQkZLmM1BRkAWfgYT9AYTIigOq9sWcJCXkAg0TAJLZR739FKL3bqklhcyKH0KWm+x2e0zxOi6jzkFKofkMNAyizYepRNkfwJC7ScZNMZGQXopxFSGkAqLZm6IFsmTpXK6nTsBYWwgIeH2+6zZUFO+nzkKLaDOeIrLjM5CqP4AisqJUVZc0Z/Hg0ASAZPbrEEohxbip5ogb74HoNQpj7ZHn873w/uSihdQ5qElpkHwGKobMis9Aov4AQdQF30zzmKZISKMrxbiHVwBIalGlEFmxe/7lqwfVSoFXqXMw1houp2vv+mmlFdQ5rECBEqIY1xCSpAmRKdLeH0C+hmcqo+kd0xxClzQTAEXoigRoTqMi6sBlBsXAE9QZGEuWalN1r9d1KYSgPMnNMqSkOZZcEUpWPAQBAGKB54A0HmhjEJ9BkFIGSWMjRVGiikI1ARBKVhziAABLxvVfCoi3qXMw1hIBgTyv/6411xV/Rp3FKoQCkj0QUspTKcY1xeOVYUCk6QRJ8Toevov2FMIUMiTOohhXUdSwAkHzw28AJMseZpECvwDvBWAW5/N6q9+fWvQ36hxWIg2ihyCgG9G45ugQfBDAJyaPEofEL00eI62MhN6dYlxFiHoFVMtfUnajGNcsS8f0Wy+y7AeTZRe3y/Vd1F9zBXUOqxGS5iEIwPfKy8tVorFTr7IyDkP5ESDCpo0h5M8w+450bzg0VUI3SFaChCJqFClAUkspgR4U45ppydh+fwOQ5s0wjLXM6XCE/Z28A7eMH5/Zx8+aICENqrM87AeCSjeisc3x8O2bIXAtzFkN/Tseuivr9lvpiUQHinEVRdmjwBBfUgwO4NyioiIb0djmEEK+OqbfzULKWdRRGDvM7XLXFtps5771g8v40KpGlFzU+xtQnWYnbf1JxjXTQ3csgcAICHyXoitKCHEfOgRnpOh6lnHq4HGeuKa5KcZWVPGpIiRRL2LAaXhPzrpVAAghl4wbcJsUsgIASZcnxoCGoz69Xu/7dT2dp6z+yRVfUOexqsrKSgP4/9u78+iqyzt/4O/nu901O2il4xRBNtEQ5eBeepNI4EZRxjYqQa3TUX+t/f1sZ9pO27GtaGf8ddoZW+vUqdbf1GPLJpXaogRjEiJu1Rq2sAkooIJly3qTu3+f3x8BG1mz3Huf7715v87hHJbk+7yBe+7zuc+KD1S0bUPmXgEAAI98cy00/QpIsW5YzxHoBOQteOQb30Hf/1NO8SNaJaWazTim0NZpMcNW9sZgJLUyVW2n26prpy3Rk2IiIB6DosOWaORyu1xtRYXFt6y/s+qyPeXlObFfOp0koOR9UBPI2fdA/PQf30NJ9wwI8UUAewb53TEATyBuT8bPv/VM6sM5g0wmlF2/bbg9bwgAKA/WtgMozHwE8eiaukU5N6xzvOCqdaP1pF4rBW4AxAwAftWZKOckDrUdOZJIJt9xC+vHr98xk4dTDUJ5sPZxAHcraPrAmrrFOXGt7WktXGjhiG82oM2FkNcBOOckXxWBxJ+g4Y8Q+lL87B9zfspq3IUzW7u6Qhdmul1d1+SB3W9rfXPwUmyFkFdmOgQgr8p8m5lXV33JIQCPAHik5pln9Ih70t9KIUdLoSm5BcoJOl5be+lfWt78NxVtF3zq7LXn3HT7D1W0nWqatCO2EB09vvxdb11Xyk/6QyQgtkkoGYo9uyJ48/imumXvqmg8YxYujAFYefQHcM8v/LBi5yIpz4KWbEdcHsRZvQdzcZj/dKLR2Pkq2rVMqwsADACQQm4SgIICAKXB4IL8urpFI2aufPlNNyXRN9w4oudkzy8rv62zrVNJ28ah/c++8PR/NChpnBzK3tS3akJBy1L/LIDcLgCO99hXQwC2Hf0xIk25svozh/YdUHIhlGkZHwB91wFDSNmqIgQAIwy7QlHbpFAsElf2/25qFofH6RNEzNyorG1NKJsHJnVkT+RrULQA0BDGBuBoASCBTUpSABAQQVVtkxpTp9ZY0WhEyVHQpmEkN7fUjaxPW3RGjY1PHwHUnIkCKWfn1IFANCCRWPxaVW1rurYWOFoAeIS2CYCquZcgVI29kRJxs+3OZNJW8n9uWaaqU9/I+TYoare4rdu4VFHbpIYWiUaV3AEgBCDy8p8HjhYAdXWLugSwRUUYAOeWV9/CF/8IEo/HVKy2BgAYhqnqTZ4cTki8oaptKfB5VW1T5l1w8ay7E4mEklEfy7TC215Z8RFwtAAAAAmou83O1m5S1jZlVCAQMMLhaMa3vRxjGeZKVW2Tswkdr6lqW0LcBI6EjhjhWOzLqtq2XK4dx37+1wJAytfVxAEgULNw4ULtzF9I2e6jTv0eVZWvEAKaR1uiom1yPj2uvwV1N3qeWx5coGInFmXY1Kk1VjgcVvYhyND65v+BfgUAIFXeZ3/u2jd3XqOwfcqQaDSq7OAny+Xq3vLGi22q2idnq6//TY9Utw4AEPLvlbVNGRM3j3xX1YcgAIAwFx376ccFQPPqpXsw+OMaU8i+S13blAkXzqg6t6c3rGThCwC4LEPVdlfKEgJyjbLGJW4OBheM2MPBRopoJKpsDZRlmfGdm+rfPPbr44fd6zKc52MS4oZAdU3uH4k5gkWi8Z9IW82+VwBwGa7FyhqnrCClruw9EIA/KlCrsH1Kswlls8p6eyNjVLXvcrm39v/1JwsAqa3OaJpPMoU071HYPqVRIBAwwr3heara1zVNduruX6tqn7JD9yHvawDUHFEJQEr5da6Hyl12IvqYoiOnAQBuy3i2/68/8UIzbdEIVfdi9/lqVdVtPoXtU5rs7zT+NRqLuVS173K79+1vWdmrqn3KDi0tT8QFoG4aAJjU/NbOaoXtU5qUlladFerpvVxV+0IIeDXvf/f/vU8UAEcXwayFOsUxw75DYfuUJj09vUpHd1ymWa+yfcoetpBKj4oWUn5LZfuUHmEZ+6WqA9AAwO1xH25pWfmJg9BOGGoSwO8yF+lEQsr7rqip8ajMQKk1ubTyX6KRSJ6q9gUEXJb7IVXtU5bR8RyAhMIEMyuC83lHSg4pK5tX2N3Te73KDG6X64QzUE4oAKQhV0DdXlgAOMcTsv6XwvYpxUKR3u+qbN/tcR/i+f80UM0rlxwG0KQyg5RaTlxXTX1CdsdvVG79ExBwGa4Trl8/oQBwxIsf8jvcDpMbJk6r+L+RSNSvMoPL5fqDyvYpG4llapuXV1YE589VmoFS4sIZVed2h3qUrus41Yegk642FUKqffEDZ0dg36c4Aw3T1EDAH+rp+YbKDEIIuF3GgyozUPaRLnMFgJjSDBA/DQaDyhbOUmr0hqO/TyaSSnd2uN3WipP9/klDabHECgA9aU10RuLrM6+rnaA2Aw1H5Ih8JhaLmyozeDyeDzf/uf4DlRko+zQ/91SHhNrFgADGR0ThVxVnoGG44OJZld3doekqM2iaJr1e30mnlE5aADQ0LO8E8ExaU52ZpSXxiOIMNEQTSqsu6+4OzVGdw+12PaY6A2UpgSdUR4AU91dcd/unVcegoQmFe5ZJqW7fPwD4PJ4dG994ft/J/uyUwxJCs59MX6SBEUCwvHoBT8bKQrF473O2LZXebmaYZmJMYfInKjNQ9gpcOqkewF7FMfKlnXxccQYagvNLK37V2xspUZ3Dslz/fqo/O+0bdHlwfisglN1adNQhacgLji5OpCww8aLAo22dXf9bdY6CgvzGd1ubeckUDVl5cP4PAPGA6hxC4qam1YuXq85BAzP14soLDnd0bla57x8AXC4rsm/nn065rf60CxMEhBMqz9FaQvxKdQgamIlllTM6QyHl85ZCCLg0gweq0LAI3fx/ULstGgAgBR6bNesWZWfI06BooXCkSXXnDwAej+e0O6BOWwD4DP//ADiS0kRDIIF55cFaZTco0cAEAgEjHA6/6IQXvtfn3bV1Y8N61TkouzU9//Q+SCxVnQPAqLihPcV7Apzv/GnlS3p6w2erzqHrmvTCPO3166d9Ma1c+UQvACeMAgDAw+Wz509VHYJO7YMjWB0OR4pU5wAAj9v1bdUZKDdIDQ+rzgAAApj18ps7v6k6B53aBdNn1XR2dN2kOgcA+Ly+Vzdtqj94uq85YzWpmfLnACIpSzV0PqGJ3wfm3VGoOgidaHLZNd/s6uqqVJ0DADwez6Ht6xpOuu+VaLCaVy3eAIEG1Tn6yIfK59TOVp2CTjTp0qrzOjq7Fqle9Q/0TYGaLuOM67DOWAA0/nHJAQgsSk2s4ZHABBGJcRjMYaZOv+bq9s6OHzvgdQ8A8Hndp1z1SjQUQgqn7CbRIfCba+be/reqg9BfBQIBI9LZ8yfV554ck+f3bX1nXeOmM33dgDpSAfwQik/F+pjADS+/tfNR1TGoz5SyWRM6OkMNTpj3BwCP29W1fX3jf6rOQbmlqW5RPdTelNrf6GQiUTd7dk2x6iDUZ+8h+8894fBZqnMAfZ/+Pe6B3aczoAKgadXivRDi18OLlUJS3lMerP0X1TFGuunT547q6u1picZijjmu1Ovzfl91BspNAlL5dsB+LojpZl1V1W0+1UFGuvEXBtZ0d4fKVOc4Js/v27SlpeHVgXztgIfSjXjyQQDhIadKvX8NVM+/U3WIkWrM9Lneg6G2rSqv+T2e1+s+8s76xp+rzkG5qaluSZOUWKM6x8ckLo0b9rLp0+92xLDzSDTxoorfdHZ1BVTnOEYIAcvl/tJAv37ABcBLLy3dL+CAozH/SggpflleXXuD6iAjkGaFO1rD4fBo1UH683i8/6w6A+U2Tbe/pzrDJ0h5bf5Z3b/CGQ51o9SbePE1P2rv6rhVdY7+8vy+t7evq28Z6NcPajGdaccfBNA26FTpo0NiSWX1/Fmqg4wg2ripM9eHQj3jVAfpz+/37X1nfcP/qM5Bua3phaWvQ8BhJ/KJL5ZX1/4MLAIyZmJZ5Xfb29q/7ZSFzwCg67pt+tyD2oI4qALgxReXtwnIhYNKlX4eW4rnA3Nqb1EdJNeNHRtwj53y2W1d3aFS1Vn6E0LA7fPwzgjKiGTC/gaAXtU5PkHi3orqBU9zOiD9JpRV/ri9veMhJ2z36y8/z7/snbfqdw/mewa9na7En3hMAK2D/b40s4TA4kBwgdK753NZaWnVWUlX/P1QT89E1VmOl5/nX7P9z/Wvq85BI8Pa+qUfSOmMw4H6k1Lemn92aNVV13/JMetycs3508qfaW/v+JbTOn+X5YrGu+SA5/6PGXQBsHz58qQQ0okdrRCQ/xGYU/tDcCgspaZdWjmxLdL1ntPm/AHANI1EoSvfESdv0chh2fqPAHyoOscJJK6x4pH6ysrbld9Cl2O08Rd+7o2O9s4aOKzzB4C8PO99e/Y0D/rAviF3lOXB2t8CWDDU708nIfFkSV78q8uXL3fG2QVZ7KIZsz53pK2rPhaPW6qznExxceEDOzY0LVSdg0ae8uraGyDxnOocJyMgttkyWd28euke1Vmy3dRAwN9zMLkuFOqZoDrLyfj9vnf3bH3l/KF875BP1NNixtcAnPacYVWkwJ2HQ+brFcGbx6vOks2mXFz5/YOH29c4tfP3+3172fmTKmtWLf6D8xYE9pGQU4TQ3uaxwcMz+ZKq6R37Y/ud2vnrum7nefTrhvr9Qy4AGhufPiKlI6cCjpkuob9dMWfB36kOkm2mTq2xxl8YWHOoreNBp5zwdzxd16TPZVWrzkEjm0T8XgDtqnOcQgkEXggE59/H49MHb/LFld9ob297y0lnnRyvwO97rLWleftQv3/Yb+7lwdoXADj5jVhC4NFRvvi3OCVwZpNnVF3Z09m9KhyJFqjOcjpFRQWP79y45suqcxAF5tTeIQScc1LqScnmZFLevrZ+6QeqkzjdmOlzvZ5oV2Nnd+hyJ873H+Pzeg7s3f7ap4bzjGFXhVLE/wHAoeE+J40EJO49HDJf43XCpzdhWvnj7YfaXnV65+/1eT9g509O0bx68VMAnlWd4/REQNe1jYE58x11cI3TTJxeNU/rPnyws6vb0Z2/rmu23+OuGO5zUjK8WxFcEJSQL6TqeWkUF8DDLrTfX1dXF1UdximmTr/m6q6e8O/DveFRqrOciWGYyVFFxZM2t9S9qzoL0TGBeXcUimhsIwDn39InxWqhyS83rVq8V3UUpxgzfa7XE+v6XVdXKOi0LX4nU1xU9OCOjY33D/c5Keuwy6sX/AJS3pOq56WVwHYhxT811S2qUx1FpalXzC6OhCLLu7pDFdJ2/oteCKCkuPje7esbeBskOU5FcH6FhHgJKRhZzYAeAA/JsPVwc/NTg94+lksmllUsDIV6vhuLOXOx8/Hy8nwbd295JSWXD+mpeAgAnFM2eY0R164DxLDmJDJkFIAF50246NLxE0o37N7V6uQpjHTQJpRW/LSzo/uZ3t7weDi/7wcAFOT7X965aU12FJk04uzetXn3uAmlFoCZqrMMgAWgUljJBePGX7R/967WbaoDZdqksvIbvIWffrW7K1SdTNop6wvTyeWyeovdZ5X+5S/bU1K0pXTIvqK69jNSogVANh1CYUPgWQ3J7zWuWrZDdZh0m1BW+c+9PT33R6Mxr+osg+H1uI/kGZ8es2ULF3KScy1cuFBrfnPH8wIIqs4yOHKzkOLBptWLfwdky0eCoZlyccXMSCzxy1AoNCULRvs/puuaPGtUUXnrn196OVXPTPmcffmc2moIrER2DIP1lxBCLLUh/7N51eINqsOk0tixAbeZJ37cGwn/Q7Z1/ABgmEa8oKRw0mDPuSZSobLy9hLbSrwNYKzqLEPwNoT8yShf4tnly5cnVYdJpckXz5ofifQ+1NMbHptNHT8AQAiMKii8b/umxodS+thUPuyY8uD8HwDigXQ8OyMEGqSUv0D4o+ebm5sTquMM1UXTA5PDcfwk1BOek4jHDdV5hkJoAqNLim/a2vKSIw9cITqZitm3XiI1+1UAHtVZhkRgNyD/S+p4unnlksOq4wzVmOlzvX47/INIb+9dveFIseo8Q1WQn9fw7uaXU37rbbpW7YuKYO1iCWT7DX0fQcqnNKH9trFu0VbVYQZizPS53gK79xs9kehd4d7wudmwovWUhEBxcdG/71jf8B3VUYgGKxBc8AUBuQzZNxraXxTAc5D4tYzsb8yWD0STyspvSCTs7/T09F6aSCaz+d8ffp9vz55tr4wHYKf62WnbthcMBl0RFDUAuDpdbWSW3CykWCYg/9i4eskm1Wn6KyubVxixu++JJKK3hcORSU49vW+wCgvy/7CrtXme6hxEQ1URrP2mBH6iOkeKHAawQkA8a4fNtU7bPXDB9Fk10Vjsy5Fw7KpoLOpSnScVPB5Px5jCxGfefPPNrnQ8P60dxdG5sNcBOO4K2eGR+yDEakA06br+asPKp9/PZOtjxwbcrmL9C3Y8eWMkFr86Eo2MzoZtfIORl5e3cfeWl1Oy1YVIpfJg7WMAvqI6R4r1Qog1sGW9kNqrdvTDTZkeHZg8o+rKZDxxazwar4xEo+MTiURWrOQfKJdlxvzFBZPTufYp7Z8UK4I3j5fQXwFwTrrbUuhDAG8CchOk2Kxpyc2W7NqbisOGplxZ/ZlkODJTJmQgKZNl8XjivGg0VmjbufEp/2R8Xu9+v37OeVzxT7kgEAgYwj3mdxC4QXWWNAoBeAsSGyTQKnS06tH4roaG5Z3DffBll12W3xPxXR4V4ho7kZwRTyQmxGLxTyUS8Zzq8PszDCNZVOCv2La+aW0628lIJ1I+e/5UaKIZffvvRwobwH4AeyTkIQFxCMBhCXQBgADaDx46PCUaj39a2rZfSBg2UGzbyUJpS38ikcxPJJPuZDKZsx39yXi8nsP5nzLP29LcHFKdhShVjk6J/hFAleosGdYOYLcA9kvII5DiCASOSCCpAT2hUE9+W0fnBRKyGACklAW2bRdLW+bbtu2PJ5K+XPtkfya6odv5RQXX72xpeCHdbWWscymffes0aPYaAEWZatPp3v9gHzq7ulXHcAyX291d4vafv2lTvSOvmSYajrlz7/aGEqFVAD6nOotTdHZ14/0P9qmO4Ri6psnC4oLb31nX+NtMtJex1ZFrXvztRqHZ1wFgj0cncLtdoVElxVPY+VOuWrnyiV43xPUQeEt1FnIeTROypNj/lUx1/kCGt6c0vbD0dWgoB3Akk+2Ss3ncrs6SkpLJG994nh8FKKfV1S3qMhN6BYAm1VnIOXRNk4WFxXdvXdf8eCbbzfj+yDUvLG6BLT8H4KNMt03O4/F4DuWX5I9j508jRX39b3r8hn8ugBdVZyH1dF2zS0qKbt6x4aUnM922kgMS1ry4ZItMygr0rZ6nEcrr9e7LP8cct+WNF9tUZyHKpL7pgPYbBPCc6iykjmkaidH5+UFVJ50qOyGpuX7JdiNhXwZgnaoMpE5enm9jnn7OOK72p5Gqrq4uWuKPfwEQvN56BHK5rIjfV3j15o1N9aoyKN1e8d57m7vH/s3kxcIypiHnDgs6s86ubkSjI2uruxBAUWHBinc3v1xx6NDWnLpshGiwtm7dKvfsaq0bO/GiDtG3RXBEbfuNRmMjcieU1+s+UlJScsHWljql1zArP8Wn4Z4AAAjPSURBVCO5uXl5SPbumwfgCdVZKL00TUNRYeGPdm5a83nVWYicpHnV4kcgUQOgV3UWSi9/nn+rFrH+xgnrnhxVbZYHa+8G8CgAS3WWTBhJ5wBYlhnPz8+7Zfu6hhWqsxA5VeWc+aW2ECsAjFedJRNG0jkAQggU5uf9fmdr842qsxyjfASgvzV1i5+AhisB7FWdhVLH5/EczCsumMTOn+j0Glcv2eSGuISLA3OLYZjJoqLiu5zU+QMOKwCAvm2CmikvkxJrVGeh4RECKCjIb9z7zmvnpPNCC6JcUle3qGvmZRM/LwQeAMB1MlnO6/G0jS7yXKhim9+ZOGoK4DgiUF17r5D4MXJ0SiCXpwBM00wU5uV/fduGl36hOgtRtgoEF1wuIH+LHJ0SyOUpAAGB/Hzfy+eO0q7J9E2JA+W4EYB+ZPOqxY8cnRJ4R3UYGjiv1/thfknBRHb+RMPTXLfoT26IS4QQGTselobPZZmxkuKiBe9uXhtwaucPKN4GOBB7drZ+NHFc2a9tDXkAZsDZoxaDkmvbAHVdtwvz8/9r99a1VUf2vduhOg9RLti1qzW6e2fr78+bWLoTfRcJeVVnSpVc2wYoBJCX598w2l9S1rp+9Zuq85xJVnWmlXPmX2EL8SsAU1VnSYVcmgLwer0fFviMWa0tzdtVZyHKVVdfW1tk2vgRgLtVZ0mFXJoCcFlWxOfP+z9OnOs/FcePAPS3e9fmD2dcPPnJcFy3AVwBwFCdaThyYQTAMI14YWHB99/b/PKNBz/ac1h1HqJc9v7O1sieXa3Pj5tQ+haAqwAUqs40HLkwAiCEQEFBfmPcV3TxnvV1jv/U319WjQD0N7PqlnN1Tfs3CNymOstQZfMIgKZpyPN7X84ziudt2PAch/uJMqympsY61GN+RUj8EECe6jxDke0jAD6v54DX47pp2/qmtaqzDEXWFgDHBObcGhBa8meQYprqLIOVrQWA1+v90GV5v7BzU31WVbtEuWjWrFvGJAztfgB3wtkLu0+QrQWAy7LCeXn+b29f35DV9zhkfQEAADU1NfrhkLkAwA+QRdtlsq0A8Hk9B7xe99e2rWtcpjoLEX1S+bW102HjQQDVqrMMVLYVAJZlxn1+35OfLrTvdfLq/oHKiQLgmOnT7zbzzwrNB3A/gHGq85xJthQAHrery+fzfS/bq12ikSAQXHC5BnmfBK5TneVMsqUAME0jkef1L41123ft2dMcUZ0nVXKqADgmGAy6oii+XQr5T5CYrDrPqTi6ABACPq/7I5/HfGDruubHVcchosGpnH3rZ20t+U1AXAeHTg04vQBwWVbU6/Mutorse3Px6vKcLAD6EYHZtZWahq85sRp2YgEghIDP533P9Lju3dnS8ILqPEQ0PBXBm8dLod8LiTvhsDMEnFoAeNyuLq/H8/N3NjbdD8BWnSddcr0A+FigurZMQNwFKRcAKFCdB3BWAeCyrKjH43rR5zG+tfGtxh2q8xBRan02WDPahPlF2bdYcJLqPICzCgBd06TP593sdrt+uLXlpeWq82TCiCkAjpk7925vdzx0kxC4E8CVUPhvoLoA0DRNer2e9yzLenjHhsbHlAUhokwSFdW1nwXEXVLKG6FwVMAJBYDH7ep0e9zLLK/13S1vvNimNEyGjbgCoL+ZVbecqxnajUKiBgqKARUFgBACXo/7gOWy/uBKaj/YvLnxQEYDEJFjXFFT4/GEjGukFDUQuBGAL5PtqyoAXJYVdbutP7ld5gNbWhpH7M2zI7oA6G9m1W3n6VpyHgTmAJgJwJ3uNjNVABi6brs87vfclvm8mRA/YqdPRMe76vov5ZmxyLVCIAhgNoCz091mpgoAIQTcHvdht2m+YlnGw1taGl5Ne6NZgAXAScyde7c3FOsqh6bPhrBnQooLkYZjk9NVAGiakG6Xq80yzXWGaf16+/qXliGHF7IQUcqJ8mtrL5G2nCOECEDicgD+VDeSrgJACMAyrbDlMne4LetZr+b975aWlTyq/DgsAAYgGFyQH5HyCghxJSAvA1AK4JzhPjcVBcDRF3rUtMy/mIb+Z103V+ixwme3bFme3ZcMEJFjBAIBQ/jGTEMSVwmBKwAxTUJOwDDvY0lVAWAYRtK0zHbTMLYahrFazyt4atsrKz4a9oNzHAuAIQrMnT9KS6AU0EqllOdD4DwAYwGcB8AzkGcMpgDQdd02TSOsaXq7oWv7DF3frGl6kxv+VTyLn4gyLRC4wy18salCylIJbQogx0J+/D44aiDPGEwBIISAZZpRQ9c7dUM/oGvaLt3QXxNS++O2DS/tHPrfZORiAZAGgeqaT0G4Rwk7UQIpSiTkaAhRqAl4IPvWFkig6C8HDk6JRmMFQoheABBANzQ9okEeFEJ8JIT2viHtvUiKjZy3J6JscdX1X8qzYrExQk+UwBYlthQlEKJEQLoEkA8ANuALdYfGHGnvmKIJ0dn3nTIKIXoFRJvQ9f2awIdS098XMvneO+saN6n8OxEREREREREREREREREREREREREREREREREREREREREREREREREREREREREREREREREREREREREREREREREREREREREREREREREREREREREREREREREREREREREREREREREREREREREREREREREREREREREREREREREREREREREREREREREREREREREREREREREREREREREREREREREREREREREREREREREREREREREREREREREREREREREREREREREREREREREREREREREREREREREREREREREREREREREREREREREREREREREREREREREREREREREREREREREREREREREREREREREREREREREREREREREREREREREREREREREREREREREREREREREREREREREREREREREREREREREREREREREREREREREREREREREREREREREREREREREREREREREREREREREREREREREREREREREREREREREREdHw/H8Ai8yg9FSJ2wAAAABJRU5ErkJggg==;" vertex="1" parent="1">
          <mxGeometry x="335" y="200" width="80" height="80" as="geometry" />
        </mxCell>
        <mxCell id="XoPRiA-ML8OkZGicO-Hc-21" value="" style="edgeStyle=orthogonalEdgeStyle;rounded=0;orthogonalLoop=1;jettySize=auto;html=1;entryX=0;entryY=0.5;entryDx=0;entryDy=0;startArrow=classic;startFill=1;" edge="1" parent="1" source="XoPRiA-ML8OkZGicO-Hc-2" target="XoPRiA-ML8OkZGicO-Hc-19">
          <mxGeometry relative="1" as="geometry" />
        </mxCell>
        <mxCell id="XoPRiA-ML8OkZGicO-Hc-2" value="" style="shape=image;verticalLabelPosition=bottom;labelBackgroundColor=default;verticalAlign=top;aspect=fixed;imageAspect=0;image=data:image/png,iVBORw0KGgoAAAANSUhEUgAAAgAAAAIACAYAAAD0eNT6AAAABHNCSVQICAgIfAhkiAAAAAlwSFlzAAAOxAAADsQBlSsOGwAAABl0RVh0U29mdHdhcmUAd3d3Lmlua3NjYXBlLm9yZ5vuPBoAACAASURBVHic7d1/kGXpfdf3z3POub+7e7qnf92WjGVJ0Q+QC9tVcYJtaS2tNhZOYQNyjdYGi6qQUEUFqJjEYCKtUh1rFxLjVHAZpyqEAscQWdIAVpUwBntXXrQy+EdZUMaSkYi1io3U3TM9Mz09fX/0vfecJ3+0fq52dnr6Obe/z7nn/fpfM98d3fOczznP93wfCQAAAAAAAAAAAAAALAJnXQAWz6PX3v1yyb1Ozr1W8q91cq918v3CuZ7zvuekJS+tWdcJRMI76chLJ965QeL9wHvtKXGflvyn5ZNPJ0nyqV96/+7nrQvFYiEAINjb3v6unWnDvdFJj0nubfJ6hXVNwALad3LPyevpRP6XfvH6k89bF4RqIwDgQh59/IlXJ17v9E5/Sl6vsa4HqKFPyfv3uaLxD5/+x7ufsS4G1UMAwLl91zt/uJdP2j/ovd7ppG8Xvx8gBl7SrzjpZzqj7P/58Id3h9YFoRpYwPFA3/G9f3W53Wr+WTn9NUl963oA3Nehk35qnM1+4mPv+1/uWBeDuBEAcF9vu7Z7dZrkf8V5/99KWrGuB8C53XVOf3t2mv34sx/aPbIuBnEiAODFuMcef887vfd/U9KWdTEALuy2vH70TW/IfnJ3d7ewLgZxIQDgq7z1B971h32e/B9O+g7rWgCUxOs5J/cXnr7+3n9nXQrikVoXgDjs7u4myeYb3+W8+1knfYN1PQBK5PQKOf25V/+hN00/88nnfsW6HMSBNwDQm39gdyOdTX9Gzn23dS0A5st7/0yhxg8+e31337oW2CIA1Nx/ce0931k4/z5JL7OuBcCl+Zzz/vufvv7Ux6wLgZ3EugDYeezxJ95eOP/Pxc0fqJuXe+eeeevj7/l+60Jghx6Amnr02nv+oqS/J6lhXQsAE6mk73vVH3rTvec/+dy/ti4Gl48AUENvfcd7nnLO/w2xBQTUnZNzb3vlG74ze/4TH/1l62JwuQgANfPWdzzxo5KesK4DQDyc9Mgr3/CInv/ER/+ldS24PASAGnn0He/58076Mes6AMTHSW9+1RvedOf5Tzz3a9a14HIQAGrire944k846adF4yeA+3Jve+U3vul3nv/Ec5+0rgTzxx5wDTz2+Lv/iPfuWUkt61oARG8s5x555gPv/Q3rQjBfBIAF9+Y/sbuaNmcfl/RK61oAVMbvZT77ln9xffe2dSGYH14HLzaXNvO/J27+AB7O189c/tPiIXGh0QOwwB59/N0/5KQfsq4DQCW97tXf+Mitz3zio79uXQjmg3S3oB59/IlXO6/fltS2rgVAZY1Srzf84vUnn7cuBOXLrAvAfDjvfkLy3PwjMxmPNBmdqMhn8tbFRMLJKUkztTo9Ndod63Lw1Tq5/E9J+i+tC0H5eAOwgB57/Im3e69/bF0Hvtrw+I6Gx3esy4had2VN3ZU16zLwAl7+ez/ywac+bF0HykUT4IL5rnf+cM97/e/WdeCr5dOJhve4+T/I8PhI+XRiXQZewMn9xLdd+8u8nlkwBIAFk5+2/7ykr7euA19tMh6Jd/7n4c/+rRCbV3Zd989ZF4FyEQAWyHd/919qSfrL1nXgaxVFbl1CZRTFzLoEvCj3V65d221aV4HyEAAWyOny6n8l6eXWdeBrZQ3WzfPi3ypaX3cryf+MdREoDwFgQVy7di1NVPwP1nXgxTW7PaVZw7qM6CVppmZnyboM3IdT8T+++c27fD22IAgAC+JO8to/5uX+E+s68OKcnJbXt5U1CAH3k2ZNraz35RwfJ0XLu1dlm5O3WZeBcpDkFoT3yTvpMotb1mhqdfsPKJ9OVOT0BHwll2aEo4rwSfJOST9vXQfCEbUXwBv/1F9ba82yPXHaH4D5G+eTbOfZD+0eWReCMGwBLIBWnr1D3PwBXI522ph9n3URCEcAWATeP25dAoAacaw5i4AtgIr7nu/Z7Q47s9viDQCAyzPOu9nasz+9O7YuBBfHG4CKG3Vm3y5u/gAuVzsbz/6IdREIQwCoOC/3FusaANSP96w9VUcAqDzPRQjg8nn/qHUJCEMAqLDd3d1E0jdb1wGglr5F9JFVGgGgwp799/p6SRzRCcBC781v3+XskQojAFRYVhSvs64BQH01mqxBVUYAqDJXvNa6BAD15XPWoCojAFRY4fUa6xoA1JhzBIAKIwBUmdO6dQkA6svLX7WuARdHAKiwxIuD0wEYcsvWFeDiCAAV5uW5+AAYYg2qMgJAlXnSNwA7zos1qMIIAFXmXNe6BAD15cU2ZJURACrMO/7/A2CINajS+D8PAIAaIgAAAFBDBAAAAGqIAAAAQA0RAAAAqKHMugBUT6vT02r/ZWovLSttNKzLAS7EOaeXb/TknP2R9vu3B5rOiof+3+XTqUb37unoxuc0GQ7nUBkWGQEA53Zla0ev/c8f0cbXvUKKYNEEQqy3C/V7uXUZOpk6dY8Dl2LvdfgfP6tP/+pzuntzr5zCsPAIADiXV37zf6bXfdt3yjl2jVB9aSJtdh/+ibtshaS9QRr+BzmnjT/wSq1/3Sv0qX/9L/X8v/318D8TC4/VHA/0Dd/0rXr9t7+Fmz8WRr+bK3XeugzdGiWa5OW9TXMu0eu//S36hm/6T0v7M7G4WNHxkpbXN/X6b3uzdRlAabpZoSst+6f/aSEdDuezBL/+296i5fXNufzZWBwEALyk13zrG+USfiZYDE7SzlKhGDpY9gep5lWJSxK95lvfOJc/G4uDlR33lTUa2nzFq6zLAEpztePVTu1f/Z9MnY4n811+N1/xKmXN5lz/DlQbAQD3tbLZV5LSJ4rFkCXSZmdmXYYKSfuD+V9XSZppeX1r7n8PqosAgPtqdnvWJQCl2e7mSiN49397nOj0kr4+bHc5rRf3RwDAfaVJCZ8nARHoZj6Kxr9JIR0OL++6SlKuYdwfAQDAwuv34mj8Oxhmyu1bEABJBAAAC26tXaiT2T/9D6ZOx6cxxBDgDAEAwMLKnNdWBBP/vJf2LvHVP3AeBAAAC2u7VyiLYOLf7XGi0xlP/4gLAQDAQupkXlea9k//00K6OWKpRXz4VQJYSDu9PIpDKw8GqXIfQSHACxAAACycs8Y/+1f/g6nT3TlP/AMuil8mgIWSOq+tjv2rf++lfRr/EDECAICFst3zyhL7p//bp4nGho1/iZNWllpmfz/iRwAAsDA6qddq85Lm7L6EmZduzumo3/Na7xTqthumNSBuBAAAC6O/VND4J6mRShtt+20QxI0AAGAhrLVzdSOY+DecJTo6tV1ad3q5kgjmHyBuBAAAlZc6r62u/Q3PS9o7sV1Wl5peyw37IIT4EQAAVN5WN5aJf07j3O7Vv3NnT//AeRAAAFRaO/Nai2C/e1Y43RxmpjVstHM1I/gCAtVAAABQaS+L5qjfxPSo30bitdHh5o/zIwAAqKzVVhxH/Q6nzrzxr9+l8Q8PhwAAoJJS57Udw1G/kvYGthP/eg2vlRY3fzwcAgCAStrqFlFM/LszTiJo/JuZ/f2oLgIAgMppZV5rLfun/5l39hP/2oVaHDmACyAAAKicnW4sR/0mmllO/EukjQ6f/eFiCAAAKmW1VajXsH/1P5rZN/5td2dKIwhCqCYCAIDKSBJpu2v/xOu9tGd81G+v4XWFxj8EIAAAqIytzkxZBKvWndNEo6lh45+kPhP/ECiCSwkAHqyVel1t2z/x5oV949/VTqF2av9vgWojAACohJ1YJv6NnGnjX5ZImx37LyBQfQQAANE7a/yzv+mNZk53xrZ7/9u9XCkT/1ACAgCAqCXOayuSxr/9ge2S2cu8rjTtgxAWAwEAQNS2uoUaEaxUR6eJhjO7Qpyk7aU8im0QLIYILisAeHFnjX/2T7x54XTDuvGvXahD4x9KRAAAEK2dXhxPvNaNf2kibUZw8BEWCwEAQJSuNCOa+Gfc+Nfv0viH8hEAAEQncV7bEQy68V7aH6ayvPV2s0JXIjj4CIuHAAAgOludSBr/JqmGxhP/dpbimH+AxRPBJQYAX9ZMva5GMOgm9xE0/nU8E/8wNwQAAFHpR9L4d2OYaGaYQ84m/s3sCsDCIwAAiMZKy2s5gsa/ce50Z2x91G8efNRvntv/WyJeBAAAUUjcWbe7NS9pf2Dd+OeDG//GudPh0bCkirCICAAAorDZzdVI7J9Yj04TDSI46jekgi+FGG//74l4EQAAmGulXusRHPVbeOnG0Pab/9V2oU4W9m9x1zjEoBoIAADM9bu5nOlL9zMHw9S28c95bQVO/Cv82X8H8CAEAACmVpqFlpr2N//xLILGv16hLHDi341RZhpiUB0EAABmnLz6MUz8k7RnPPGvU8JRv6e5060xr/5xPgQAAGY2Iznq9/g0MZ34J33h4KOAErykzw9SRbCTgoqI4NIDUEfNRFqPYOJf4Z35nvlaSY1/1iEG1UIAAGCi35tFsQDdGCWaGuaQ1HltBQahwjvzrxdQPTFcfwBqZqXptRxB49/Znrl1459XFjj/4MbQNsSgmggAAC6Vk9d2BBP/JGnPeM+8k3qtNsP+LcYzp1unLOV4ePxqAFyqza5XM4IT7o4m9sNy+ktFUOOfJO0PafzDxRAAAFyaZuK13rF/+i+808GJdeNfrm4W9t4+hhCD6iIAALg0/V4exaJzY5hoZvjUnDqvrW5YATGEGFRbDNcigBpYbhZRNP7FsGe+1S1j4p9tiEH1EQAAzJ2T13YvjjZ16z3zdua11i5j4h/LN8LwCwIwdxvdQq0Ijvq9G8Ge+ct6RdBRv9LZUb80/iEUAQDAXDVSaT3wibcMuZcOBrZL3mqrUCew8e/uqdMJjX8oAQEAwFz1uzOlEdyvDkeppoVdIanz2g486jfnqF+UiAAAYG6Wml4rETT+nRZOt0a2KWSrWwRP/LMOMVgsBAAAc+Hc2dN/DPYHqXzwzvvFtTKvtVZg418EIQaLhQAAYC422oVaEbytPj51OpkYH/XbDTvqV5L2T2xDDBYPAQBA6RqJ10YER/3mXtofZaY1rLYK9Rphr/6PJwmNfygdAQBA6fq9QkngoJsy3BqlmhpOHk4SBR98lPsvzC4ASkYAAFCqpYbXStP+6X+SS4fWjX+dmbLAVdY6xGBxEQAAlMY5aWcpjrvV/jCzbfxLva62w96CxBBisLgIAABKs9Eu1Ixg4t/xJNE968a/Mib+GYcYLDYCAIBSNBLFc9RvBBP/eo2wbZAYQgwWGwEAQCnimfiXaGI4LCdxXluBjX8xhBgsPn5hAIL1Mq+Vlv2r/0kEp+RtdQs1AkuwDjGoBwIAgCAxNf7tDVIVhjnkrPEv7NV/DCEG9cCvDECQ9XahVmr/9H88sT8lb6eXB7fsWYcY1AcBAMCFZYm0GUvj39B24t+VZhkT/+xDDOqDAADgwvq9XEkE96vDsdPEcuKf89ruldD4ZxxiUC8EAAAX0m0UUUz8mxZn0/IsbXVKaPwzDjGoHwIAgIfmVM6gmzJY75k3U6+rgQcfxRBiUD8EAAAP7Wq7UDuCxr97U6d7E9tlrE/jHyqKAADgoWSJtNm1f/Xv5XQwsN0zX2l5LQc2/sUQYlBP/OoAPJTtXq40gqN+D0eJTk0b/6R+4MS/GEIM6osAAODcepnXlUga/w6Hth0Im91cjcCDj6xDDOqNAADgXJyk/lL4fncZ9geZLFsQW6nXeuBRvzGEGNQbAQDAuVztxNH4dzJ1OjY+Ja/fzeUU9m9hHWIAAgCAB0pjmfins455SyvNQkvNsJt/DCEGIAAAeKCdbh7FUb+3RokmuV0hTl790Il/sg8xgEQAAPAA3azQSiuWxj/bJWuzhKN+rUMM8EUEAAD35STtLMWxU70/SE33zJuJtF7CxD/rEAN8Eb9EAPe1FsnEv7M9c+uJf7PgBdM6xABfiQAA4EVlibQVOOimDIXOOuYtrTS9lktp/GPJRTz4NQJ4UVuRNP7dHtsOy3Hy2g4MQjGEGOCFCAAAvkYnK7QawcS/SSEdDm075je7Xs3AbRDrEAO8GAIAgK+x0/NyETz9Hwwz5ZZH/SZe64HzD2IIMcCLIQAA+CpX24U6mf3T/2DqdHxqPPGvlwcvktYhBrgfAgCAL8mcj+OoXy/tGT81LzeL4Ma/GEIMcD8EAABfstXzyiI46vf2ONHpzHbi33YvLAjFEGKAl0IAACBJ6mReq037TrVpId0c2S5NG91CrcCjfq1DDPAgBAAAkqSdXh5H498gVe7tCmmk0no7fOKfdYgBHoRfKACttXN1MvtX/4Op013riX/dWfD8A+sQA5wHAQCoudR5bXXsb/7eS/vGe+ZLTa+VEhr/rEMMcB78SoGa2+4WygL3u8tw+zTR2LLxz509/YeIIcQA50UAAGqsk3qtBu53l2HmpZvGp+RttAu1Au/d1iEGeBgEAKDG+kt5FGfTWe+ZNxKvjcCjfmMIMcDD4NcK1NRaq1A3gsa/4SzR0an1Ub+FksD5B9YhBnhYBACghlLntRU46KYMXtLeie0ytNTwWgk8+CiGEAM8LH6xQA3FM/HPaZzbNv7tLIUNP4ohxAAXwa8WqJl26rXWsp/4Nyucbg4z0xo22oWawRP/bEMMcFEEAKBmdpaKOBr/honpKXmNRMFH/cYQYoCLIgAANbLaKtSN4Kjf4dSZ75mXMvHPOMQAIQgAQE0kibTdtX/17yXtDWyH5fQyr5VW2J07hhADhODXC9TEVmemLIIr/s44qX7jn5f2+eYfFccvGKiBdup1NfCJtwwz78yH5ay3C7XSsH+LO6eJRjOWT1Qbv2CgBvpLRSRH/SaaGQ7LyRJpM7TxL4IQA5SBXzGw4FbbhXoRNP6NZvZ75v1eriT4qF/bEAOUhQAALLAkkbYDn3jL4L20Z3xKXrdRBE/8iyHEAGXhlwwssK1OHkfj3yTVaGrY+Cdppxc2/yCGEAOUKYKlAcA8tFKvqxEc9ZsXTjcHtq/Mr7YLtcto/DMMMUDZCADAggp94i3LwTCCxr9uWBDKCxr/sHj4RQML6EqzUK9h//Q/mjndMd4z3+7lSkOP+h05Gv+wcAgAwIJJnNd2L47Gv/2B7RLTy7yulND4d2fM3j8WDwEAWDCb3UKNCK7so9NEQ8NhOU5SfykPbvyzDjHAvPDLBhZIK/Vaj6Tx74bxnvnVTnjj39EkNQ0xwDzxywYWyE437Im3LNZ75mkJE/9ybx9igHni1w0siCutQr2m/bz/0czpyHjPfKebl3LU78z+ZQowNwQAYAEkLpKjfr20P0xlGUO6WaGVVgkT/8Ysj1hs/MKBBbDZyeNo/JukGlpP/FsKnPgnaW+QmIYY4DJEsGQACNFKvdY79rerGPbM10qY+HeXo35RE/zKgYrb7uVyETyv3jDeM88SaStwG6Tw0gHz/lETBACgwlZahZYb9jf/ce50x3jPfKuExr/9YUrjH2qDAABUVOKkfuCM+zJ4SfsD28a/TlZoNXDi3zin8Q/1wq8dqKizxj/7p/+j00QD41PydnpeLqCEGEIMcNkIAEAFNRNF0fhXeOmG8Z751XahThb29H83ghADXDYCAFBBO71ZFI1/B8Z75pnzwUf90viHuiIAABWz3PRaimDi33gWQeNfzysLPOr3xiij8Q+1RAAAKsTJa6c3sy7jbFiO8cS/Tua12gz77O80d7o15tU/6okAAFTIZtdHMfHv+DQxnfgnSTu9PLjx7/ODVBHspAAmIlhKAJxHM/FaDzzhrgyFd+Z75mvtXJ0sfOKfdYgBLBEAgIrY6eVRXLA3RommhnvmqfPaCvwCovDO/OsFwFoM6wmAB1huFlE0/p3tmdsuG9vdQlng/IMbQ9sQA8SAAABEzslHMfFPkvaM98w7qddqO3Di38zp1ilLH8BVAERuo1OoGXjCXRmOJvbDcvpLedBRv9LZvH8a/wACABC1ZiptRPD0X3ingxPjxr9WoW5g418MIQaIBQEAiFi/O4viIr0xTDQzfGpOnddWL3Tin32IAWISw9oC4EUsNbyWI2j8i2HPvJyJf7YhBogNAQCIkJNXP4KJf5L9nnk79VprhU78k26PePUPfCUCABChja5XK4K31Xcj2DN/2VIR3vg3yOSD/xRgsRAAgMg0Umkj8FO3MuReOhjYLhGrrTKO+nU6ofEP+BoEACAyO71cSeB+dxkOR6mmhd2NM0mk7W7Yq/+co36B+yIAABFZanotN+yf/k8Lp1vGe+ZbnZmywBXKOsQAMSMAAJFw7uzpPwb7g9R0z7ydel1thb0FiSHEADEjAACR2GjnagbOuC/D8anTycR64l8RdNSvJO2f2IYYIHYEACACjcRrI/CEuzLkXtofZaY1rLYL9QIb/44nCY1/wAMQAIAI9LtxNP7dGqWaGu5CJIm03QkroPDubHYBgJdEAACM9RpeK4H73WWY5NKheeNfXkLjX2IaYoCqIAAAhs4a/2KZ+Gc7LKeVel0NnH8wyaVbY5Y14Dy4UgBD6+0iiol/x5NE94wb/3Z6JUz8G2Yq7F+mAJVAAACMNBJpI3C/uwyFd+YT/640C/UC5x8cT5x5iAGqhAAAGNnu5UojuF8djhJNLCf+Oa/twPkHZyEmglcpQIUQAAADvczrStN+4t8kd+Z75pvdQo3AEm6OnWmIAaqIAABcMiepv2T/6l+S9gap6Z55K/VaD278c7o94ukfeFgEAOCSrXcKtVP7TrXjif0peTvdvITGP9sQA1QVAQC4RFkibcbS+De0nfh3pVWo1wy7c9+b2n+9AFQVAQC4RNu9XEkE96vDsdPEMIekLvyoXy/7rxeAKuPqAS5JLI1/0+Js5K+ljU4e3Ph3OEp0mkeQpoCKIgAAl8BJ2l4K3+8uQxSNf4EHH02LswAA4OK4goBLcLVdqBNB49+9qdO9ie1lv93L5RT2b7E/YOIfEIoAAMxZmpx9627tbM/ctvFvpVVouRF25z6ZOh3T+AcEIwAAc9bv5kojOOr3bM/c7u9PnNQPDEKFzp7+AYQjAABz1M0KXWnZP/1PC+lwaPvUvNnJ1UjCgtCtoW2IARYJAQCYEydpZyn8hLsy7A8yWVbSTETjHxAZriZgTq52fBQT/2LYM9/pzYIb//YGqWmIARYNAQCYg7OJfzPrMlTo7MZpabnptRQ48e8kgq8XgEXDFQXMwXY3jqN+b40STQyH5Th57fTCglAMIQZYRAQAoGTdzEfU+Gd91K8Pnvh3a2wbYoBFRQAASuQk9XtxTPzbN94zbyZe64EHH00K6daQp39gHggAQIlW24U6WSyNf7aX904vD15gDgaZcvt/TmAhEQCAkmTOayuCiX8xDMtZbhalNP5Zf70ALDICAFCS7V6hLIKJf7fHtsNynHwpE/9o/APmiwAAlKATyVG/k0I6NN4z3+gUagbOP7ht/PUCUAcEAKAEO71cLoL71cHQds+8mUobgU//00K6OebpH5g3AgAQaC2Sxr/B1On41DaF9LuzEhr/UhX2L1OAhUcAAAKkzmurY3+38l7aM371v9TwWg5s/BvOEt1l4h9wKbjSgADbPa8s8IS7MtweJzqd2U786wdO/PNe+vyAJQm4LFxtwAV1Uq/Vpv3ZtNNCuml8St5G16sV+ALCOsQAdUMAAC6ov1TE0fg3SJV7u0IaqbTRLqHxj6N+gUvFFQdcwFo7Vzez3/sfTJ35nvlOL1cSOP/gYGgbYoA6IgAADyl1Xltd+31/76V968a/ptdyIywIDaZOd09ZioDLxlUHPKStbiQT/04TjS0b/9zZ038I788OLQJw+QgAwENoZ15rgfvdZZh56abxUb8b7VzNwC8gbp0mGjPxDzBBAAAewst6lgfsfpl541/itdEJu/nPvP3YYqDOCADAOa22CnUiaPwbzhIdGe+Z97vhjX/7g5SjfgFDBADgHFLntR3BUb9e0t6J7WXba3ittEqY+EfjH2CKKxA4h61uEcnEP2e6Z37W+Bc48U/SHhP/AHNchcADtDKvtZb90/+scLo5zExrWG8XwRP/7oxtv14AcIYAADzATjeWo34T0z3zRiJtdMI++5sVTjdo/AOiQAAAXsJqq1CvYf/qfzh15o1/271caWAQujGyDTEAvowAANxHkkjbXfvDfs72zG2fmnuZ15Vm2DbIaJbozpglB4gFVyNwH1udmbIIrhDzxj9J/aXwiX97gwj2UQB8SQTLGxCfVup1tW3/rnrmnfmwnPVOoXYa9m9x5zTRaMZyA8SEKxJ4ETvRTPxLNDOc+Jcl0mZo45935mOLAXwtrkrgBc4a/+w/+xvFMPGvlysJbfwbONMQA+DFEQCAr5A4r60YGv+8tGf81NxtFFoJbvxzunPKZ39AjAgAwFfY6hZqRHBV3JmkGk2NG/8Ct0HOQgw3fyBWESx1QBzOGv/sX/3nhdNN44759U6hTmjjn3GIAfDSCADAF+z08jga/4a2jX9pIm10woJQDCEGwEsjAACSrjTjmPh3tmdue1nudHOlgUf9HoxsQwyAByMAoPYS57Xdi6Pxb9/4lLxe5rUSePDRaOZ0xMQ/IHpcpai9rU4cjX9Hp4mGhsNyvjjxL7Txb3+Yyv5dCoAHiWDZA+w0U6+rgfvdZcgLpxvGn/2ttcMn/h2dJhrS+AdUAgEAtdaPpfFvZDssJ00UPP8g9043Rnz2B1QFAQC1tdLyWo6k8e9obHvj7HdLOOp36DSzf5kC4JwIAKilxJ3d9KzFsGfezbyulND4d8c4xAB4OAQA1NJmN1cjsX/6P5qkpnvmTtJOaOOfpP1hQuMfUDEEANROK/Vaj+Co39zH0Pjngxv/7k4SDacsJUDVcNWidvrdXC6C59Ubw8R0zzxzXpuB2yCFlw4GvPoHqogAgFpZaRZaatrf/Me50x3jYTnbS4Wy0Il/w4zGP6CiCACoDSevfgwT/yTtD2wb/zpZoSuNsDv3eOZ0ZxzDR5QALoIAgNrYjOSo36PTRAPjYTk7vUIuoASvs6N+7d+lALioCJZDXv1W1gAAFtBJREFUYP6aydkRt9YKL90Y2u6ZX23n6mSBjX9M/AMqjwCAWuj3ZlH82A+Gqemeeeq8NjthN//Cn/13AKi2GNZEYK5Wml7LMTT+zSJo/OsWygLnH1iHGADlIABgoTl5bccw8U/2e+ad1Gs1cOLfae50+5RlA1gEXMlYaJtdr2bgoJsyHEewZ95fCmv8k6TPD1LR+QcsBgIAFlYz8Vrv2D/9F96Z75mvtQt1s7Cnfxr/gMVCAMDC6vfyKH7gN0aJpsaNf1uBX0DEEGIAlCuG9REo3XKziKLx7zR3umXc+LfV88GNfzeNQwyA8hEAsHCcvLZ7cdyt9oz3zNuZ11orbBtkPHM6NA4xAMrHVY2Fs9Et1IriqN8YJv6FHfUrSftDGv+ARUQAwEJppNJ62/7pv/BOByfGjX+tXN3QiX8RhBgA80EAwELpd2dKI7hf3Rgmmhk+NafOa6sXVkDupX3jEANgfggAWBhLTa+VCBr/xjOnW8bDcra64Uf9Ho5S0xADYL4IAFgIzp09/cfAes+8lXmthU78K5xujSJ4lQJgbggAWAgb7UKtCN5Wx7BnvtPNgyf+7Q9S+eD2QQAxIwCg8hqJ10YER/3mXjoY2F5Sa+1CvUZ449/JhJs/sOgIAKi8fq9QErjfXYbDUappYXfjTBJpK3D0cQwhBsDl4EpHpS01vFaa9k//MeyZb3dyZYFXtHWIAXB5CACoLOeknSX7w34k+z3zdhre+DfJZR5iAFweAgAqa6NdqBnBxL/jU2e+Z17GUb97g4zGP6BGCACopEaiKI76zb20P8pMa7jSKtQLPOr3+NTphIl/QK0QAFBJsUz8uzVKNTXMIYnz2u6GFVB4Zx5iAFw+AgAqp5d5rbTsX/1PcunQeM98s1uoEdz450xDDAAbBABUSlSNf0PbPfNW6oMPPprkTrfGEUxQAnDpCAColPV2oVZq//R/PEl0z7jxr4yjfvcGqQr7f04ABggAqIwskTYjaPwrvDMflnOlFT7x7940ofEPqDECACqj38uVRHC/OhwlmlhO/Cur8e+Eyx+oM1YAVEK3UUQx8e9sz9z4qN9OCY1/Y9sQA8AeAQDRc5J2ekUUI2qs98xbqdfVwIOPzib+cekDdccqgOhdbRdqR9H4Zz8sZ7uExr/9YUbjHwACAOKWJWffulsrvNPB0HjiX7PQcnDjnzP/egFAHAgAiNp2L1caw1G/Y6eJ6cQ/absXFoS8nA4GTPwDcIYAgGj1Mq8rETT+TYuzkb+WNju5GoEHH90cOp3af0UJIBIEAETJSeovhe93lyGGxr/1TlgBZyGGyx3Al7EiIEpXO3E0/p3tmdteJmeNf2H/FnuDVHF8RwEgFgQARCeNZOJfDHvmK00f3Ph3EkGIARAfVgVEZ6ebR3HU7+EoMd0zT5zU782C/oxCZ0//APBCBABEpZsVWmnF0fh3OLRNIRvdPHji361RqkkeQZoCEB0CAKLhJO0sxbFTvT/ITPfMm4m00Q5v/LMOMQDiRQBANNYimfh3MnU6Nh6W0+/NSmj8sw0xAOJGAEAUskTaCjzhrgwx7JmvNL2Wm2U0/nHzB3B/BABEYSuSxr9bo8R0z9yphKN+dbaFAQAvhQAAc52s0Go0jX+2l8Rm16sZuA1y2/jrBQDVQACAuZ2ej2Knet94WE4z8VoPnH8wKaRD47HFAKqBAABTV9uFOpn90/9Z45/t5dDv5cEX5MEwVW7fRwmgAggAMJM5H8dRv7LfM19uFqU0/h2fckkDOB9WC5jZ6nllERz1e3tsu2fu5MOP+vXS/pBX/wDOjwAAE53Ma7Vp36k2KaRD4xvnRrdQK/Co31vjRKezGDopAFQFAQAmdnq5XAT3q4NhZrpn3kil9XbY0/+0kG6OefoH8HAIALh0a+1cncz+1f9g4nR8ajzxrzsLnn9wMExV2LdSAKgYAgAuVeq8tjr2N3/vpT3jz+WWml4rgY1/w1miuzT+AbgAVg5cqu1uoSxwv7sMt433zJ07e/oP4b20N+ASBnAxrB64NJ3UazVwv7sM00K6ObL96W+0C7UCX0DcOk00pvEPwAURAHBp+kt5FBP/Dgapcm9XSSPx2uiEBaGZtx9bDKDaWEFwKdZahboxNP5Nne6aT/wrlATOP9g/sQ0xAKqPAIC5S53XVuCgmzLEMCxnqeG10gz7t4ghxACoPlYRzF00E/+M98ydk3aWwoYfeZ0dWgQAoQgAmKt26rXWsp/4N/PSTeM98412oWbgFxC3x4nGOa/+AYQjAGCuXrZkecDul9k3/in4qN+zEMPTP4ByEAAwN6utOI76Hc4SHRkPyylr4h9H/QIoCwEAc5Ek0nbX/tW/l7R3Yvsz72VeK63AiX9Tp6MxlyuA8rCiYC62OjNlEfy6rPfMy2r82+PVP4CSRbBEY9G0U6+rgU+8ZYhhz3y9XaiVhjb+OSb+ASgdAQCl6y8VkRz1a7tnnjlpI7jxz+mQp38Ac0AAQKlW24V6MTT+RbBn3l/Kwxv/BolmTPwDMAcEAJQmSaTtwCfeMsSwZ95tFMET/0YRfL0AYHGxuqA0W508ksY/2z1zJ2mnFzb/wHtpj8N+AMwRKwxK0Uq9rkZw1G8Me+ZX24XagY1/dyapRlNe/QOYHwIAShH6xFsW6z3zLJE2u2FBKC+cbg5i+NcEsMgIAAh2pVmo17B/+o9hz3y7lysNPPjoYEjjH4D5IwAgSOK8tnsRNP5FsGfey7yuBDf+Od2h8Q/AJWClQZDNbqFGBL8i6z1zp7PP/kIb//YHEfxjAqgFVhtcWCv1Wo+g8S+GPfOrnfDGv6PTRMMZlySAy8Fqgwvb6YY98ZbFes88TaTNwPkHeeF0g8/+AFwiVhxcyJVWoV7Tft5/DHvmO90SJv6NHI1/AC4VAQAPLXWRHPUbwZ55Nyu00gpv/DsaM+8fwOUiAOChbXTyKBr/rPfMnaSdpfCJf/vDVPbvUgDUTQTLOKqklXqtd+xvVzHsma+VMPHvaJJqyMQ/AAYIAHgo271cLoLnVes98yyRtgK3QXJvH2IA1BerD85tpVVouWF/849hz3yrhMa/G8NEM/uvKAHUFAEA55I4qR84474MMeyZd7JCq4GNf+Pc6c6Yyw+AHVYgnMtmJ1cjsX/6j2HPfKfnwxr/JO0PaPwDYIsAgAdqJoqj8S+CPfOr7UKdLOzp/+g00YDGPwDGCAB4oJ3eLIrGP+s988z54KN+Cy/dGPLNPwB7BAC8pOWm11IEE/9i2DPf6nllwUf9pjT+AYgCAQD3lSROO72ZdRlR7Jl3Mq/VZthnf+OZfYgBgC9iNcJ9ba52o5j4dzeCPfOdXi4XUIKXtMfEPwARiWB5R6xcYt+oVviz1+aW1tq5OlnYrfv4NDH/egEAvhIBAFGz3jNPnddW4BcQhXfmIQYAXogAgGjFsGe+3S2UBc4/uDFKNKXxD0BkCACIUgx75p3Ua7Udduc+zZ1u0fgHIEKsTIhSDHvm/aU8aOKfJO0NUtH5ByBGBABEJ4Y987VWoW5g49/RxP7rBQC4HwIAomO9Z546r61e6MQ/p4MTGv8AxIsAgKjEsGdexsS/G8NEM179A4gYAQBRsd4zb6dea63wiX+3Trm0AMSNVQrRiGHP/GVLRXDj3/6Qxj8A8SMAIAox7JmvtsKP+r0bQYgBgPMgACAK1nvmSSJtd8Ne/edeOhhwSQGoBlYrmIthz3yrM1MWWMLhKNW04OkfQDUQAGDOes+8nXpdbYUVcFo43Rpx8wdQHQQAmIphz7y/VAQd9StJ+4NUPrh9EAAuDwEAZmLYM19tF+oFNv4dnzqdTLj5A6gWAgDMWO+ZJ4m03Qlv/NsfZSVVBACXhwAAEzHsmW918uDGv1ujVNOwDAEAJggAMGG9Z95Kva4GHvU7yaVDGv8AVBQBAJcuhj3znV4ZE/8yGv8AVBYBAJcqhj3zK81CvUZg498k0T0a/wBUGAEAl8p6zzxxXtu9sAIK78y/XgCAUKxiuDQx7Jlvdgs1gif+JZow8Q9AxREAcGms98xbqdd6cOOf060xlw2A6mMlw6WIYc98p5sHx4+9QaqCo34BLAACAOYuhj3zK61CvWbYnft44nTCUb8AFgQBAHNnvWeeuvCjfgvvdDBk4h+AxUEAwFzFsGe+0cnDG//GThMm/gFYIAQAzJX1nnkr9VrvhBUwLc4+XwSARUIAwNzEsGe+3cvlFBYArEMMAMwDAQBzEcOe+Uqr0HIj7M59b+p0b8JlAmDxsLJhLqz3zBMn9bth3/x7OR0MaPwDsJgIAChdDHvmm51cjSTs6f9wlOiUxj8AC4oAgNJZ75k3E5XS+Hc45Jt/AIuLAIBSxbBnvtObBTf+7Q8yhR8YDADxIgCgNDHsmS83vZYCJ/6dTJ2OOeoXwIIjAKA01nvmTl47vVnQn1HobAsDABYdAQCliGHPfLPrgyf+3RolmuQ8/QNYfAQAlMJ6z7yZeK13wl4/nIUYLgkA9cBqh2Ax7Jnv9PLgH/P+IKXxD0BtEAAQJIY98+VmUVLjH5cDgPpgxUMQ6z1zJx888a/Q2RYGANQJAQAXFsOe+UanUDMNe/q/PWbiH4D6IQDgwqz3zJuptBH49D8ppMMhn/0BqB8CAC4khj3zfncW/AM+GGbKOeoXQA0RAPDQYtgzX2p4LQc2/g2mTsendP0DqCcCAB6a9Z65k1c/cOKf99Ier/4B1BgBAA8lhj3zja5XK7CE2+NEpzOe/gHUFwEAD8V6z7yRShvtsMa/aSHdHPHTB1BvrII4t8HEfs98p5crcWEJ5GCQKvc8/QOoNwIAzsV7aW9k++p/qem13Ah7+h9Mne4y8Q8ACAA4H+s9c+fOnv5DeC/t0/gHAJIIADiHGPbMN9q5mkngxL/TRGMa/wBAEgEA52C9Z95IvDY6YTf/mZductQvAHwJKyJeUgx75v0ujX8AUDYCAO7Le2++Z95reK20wm7+w1mio1N+6gDwlVgVcV+HRyPTPfOzxr/AiX+S9k74mQPAC7Ey4r7yPOyTu1Dr7aKEiX9O45xX/wDwQgQARKmRSBudsM/+ZoXTzaHtoUUAECsCAKK03cuVBj64HwwTjvoFgPsgAOC+ZtOJyd/by7yuNMO2H4ZTR+Mfam82PbUuARFjhcR9jU/uXfrf6ST1l8qY+MdPGxidnFiXgIixSuK+jg9vaDIeXerfud4p1E7D3tvfOU00mvHTRr1NxiPdO7xhXQYixiqJ+/K+0H/89791aX9flkiboY1/3jHxD5D0ud/5d/Le9ksexI2VEi/pMx//NZ2OBpfyd/V7uZLQxr9BohkT/1Bzp8OBfvff/Kp1GYgcAQAvaToe6eO/8HPKZ9O5/j3dRqGVwMa/0YzGPyCfTfXxf/5zml7y9h2qh9USD3S0/zn92s/9rIb3jufy5ztJ/V6hkOd276U9jvpFzQ3vHevXfu59Otr/nHUpqACmpOBc7t7c03Pv+7/09W/4Fr3sdX9QKxt9OVfOq/b1TqFOGY1/U179o3689zq+ua/P/4dP6vd++9+qyMPGZ6M+CAA4tyKf6bO/9Rv67G/9hpI0U6vbkyvhHVK72VCShv1B49OJioKpP6gXX5zt93PTx0UQAHAhRT7T6N7dUv6sYSl/CgDgYdADAABADREAAACoIQIAAAA1RAAAAKCGCAAAANQQAQAAgBoiAAAAUEMEAAAAaogAAABADREAAACoIQIAAAA1RAAAAKCGCAAAANQQAQAAgBoiAAAAUEMEAAAAaogAAABADREAAACoIQIAAAA1lFkXAODLvPfKp6cqZrl1KaVKslRpoyXnnHUpAL6AAABEYjaZ6N7tA+WzqXUpc5FmDS1f3VLWbFmXAkBsAQBR8N7r+Nb+wt78JSmfTXV8+4a8L6xLASACQKU5L1bSBTEdD1XkM+sy5q6YTTUZDa3LQFlYgyqNAFBl3rOSLoh8tvg3/y8q8sXqb6gzJ51Y14CLIwBUmfP3rEtAOby8dQmXpk7/rYvOO7EGVRgBoMKcHBcfAEOsQVVGAKgwL9I3AEu8hawyAkCluVvWFQCoLy+xBlUYAaDCnPP/r3UNAOor8foP1jXg4ggAFVZIn7KuAUB9sQZVGwGgyqaeiw+AIdagKiMAVNgjf7jx+5JG1nUAqKXBR64/9XnrInBxBIAK293dLeT1b6zrAFBDXh+XGOpQZQSAinOJftm6BgD145w+Yl0DwhAAKs65hAAA4NI571h7Ko4AUHHTdvIrksbWdQColWF2cvSr1kUgDAGg4p796d2xpH9lXQeA+nBeH/uFX/jJU+s6EIYAsACcdx+wrgFAfRSJ3m9dA8IRABbC5APic0AAl2OcFNN/Yl0EwhEAFsDT1//Xu5J+3roOALXwoS+sOag4AsCCKLz+gXUNABZfIdaaRUEAWBAb+tTPy3EwB4C5+l1/I/tF6yJQDgLAgrh+/XruCvfj1nUAWGBef+PZZ3dn1mWgHASABXJn7eDvS/o96zrw8JIktS7h0iSJsy4BF/P7V5Xx+n+BEAAWyG/+nb8zddLfsq4DDy9rta1LuDSNVte6BFyA9+7Hrl/fnVjXgfIQABZMZ5T9n5L/rHUdeDhZ1lB3ec26jLnrrqwpzRrWZeBhOf+Zopf+XesyUC7exS2gxx5/9x/33n3Iug48vMloqPHwWEWeL845a05K0lTt3oqabZ7+K8npe575wJP/1LoMlIsAsKDeeu2JD8vpj1nXAaDyPvTMB5/8k9ZFoHxsASwon/u/KGloXQeAShulXv+9dRGYj/q0HtfM87/z3N1XveFNJ5L7butaAFSUcz/09Aef/CXrMjAfbAEsNvfotSf+kXN6u3UhACrnHz3zwSevWReB+WELYLH5Ypr915Kety4EQKX8rvPT/8a6CMwXAWDBPfuh3SPv/fdL4uxuAOcxLrx7nAN/Fh8BoAY+cv2pXy+83iEpt64FQNRyJ/+Dv3z9vb9pXQjmjybAmvjsJz/6qVd94yMHEp8GAnhx3rv/7pnrT/7f1nXgchAAauT5T3z0N1/9hkecpDdb1wIgOv/TR64/yYFiNUIAqJnPfOKjz776Gx9pSHrEuhYA0XjvMx988n+2LgKXiwBQQ5/5xEc/8qo3PHIo6Y+KT0GBOsvl3F965oNP/ph1Ibh8LP419ui1d/9J59z7JNXnKDoAXzSR93/mmetPfcC6ENggANTcY9fe/Ubv3Pslvdy6FgCX5vd94r//I+9/6l9ZFwI7fAZYc09ff+pjeZp9s5P+mXUtAC7F00qLb+XmD94A4IvcY9fe/SPeuR+VxIHtwOKZevl3feSDT/1vWpzDphGAAICv8pZrT7wucfrbkh6zrgVAaT6auuIv/OIH/vpvWxeCeBAA8KIeffzd15x3Pylp27oWABe275z7kac/8N5/IJ768QJ8BogX9fwnnvvkK17z6N9NsyKX9E3iSwGgMpx0R9KPOz/9009/8K//unU9iBNvAPBA3/G9f3W53Wr+WTn9iKQd63oA3Nehk35qNsn+1rMf2j2yLgZxIwDg3L7rnT/cK8adP+2df6ek7xC/HyAGXl4f84n7md4wfd+HP7w7tC4I1cACjgt57Pt2X+WT6Q/6JPkB5/3rresB6sd90qn42VnS+IfPvn/3s9bVoHoIAAj25mu7/SSZvslJj8nruyT3DcYlAYtoz8l9TF5PF3nxLz7yT576/6wLQrURAFC6t739XTt5M3mdcvda7/xrJfdayfcl15P8kpOWvbQqfn+AJHknHXnpnuROJH8iuQPJf9pJn3LefXqq9FPPXt/dty4UAAAAAAAAAAAAAAAA8fn/AU27h++CiX38AAAAAElFTkSuQmCC;" vertex="1" parent="1">
          <mxGeometry x="335" y="360" width="80" height="80" as="geometry" />
        </mxCell>
        <mxCell id="XoPRiA-ML8OkZGicO-Hc-34" style="edgeStyle=orthogonalEdgeStyle;rounded=1;orthogonalLoop=1;jettySize=auto;html=1;entryX=0;entryY=0.5;entryDx=0;entryDy=0;entryPerimeter=0;startArrow=none;startFill=0;" edge="1" parent="1" source="XoPRiA-ML8OkZGicO-Hc-4" target="XoPRiA-ML8OkZGicO-Hc-5">
          <mxGeometry relative="1" as="geometry" />
        </mxCell>
        <mxCell id="XoPRiA-ML8OkZGicO-Hc-4" value="" style="sketch=0;points=[[0,0,0],[0.25,0,0],[0.5,0,0],[0.75,0,0],[1,0,0],[0,1,0],[0.25,1,0],[0.5,1,0],[0.75,1,0],[1,1,0],[0,0.25,0],[0,0.5,0],[0,0.75,0],[1,0.25,0],[1,0.5,0],[1,0.75,0]];outlineConnect=0;fontColor=#232F3E;gradientColor=#F78E04;gradientDirection=north;fillColor=#D05C17;strokeColor=#ffffff;dashed=0;verticalLabelPosition=bottom;verticalAlign=top;align=center;html=1;fontSize=12;fontStyle=0;aspect=fixed;shape=mxgraph.aws4.resourceIcon;resIcon=mxgraph.aws4.ec2;" vertex="1" parent="1">
          <mxGeometry x="680" y="360" width="80" height="80" as="geometry" />
        </mxCell>
        <mxCell id="XoPRiA-ML8OkZGicO-Hc-35" style="edgeStyle=orthogonalEdgeStyle;rounded=1;orthogonalLoop=1;jettySize=auto;html=1;entryX=0;entryY=0.5;entryDx=0;entryDy=0;" edge="1" parent="1" source="XoPRiA-ML8OkZGicO-Hc-5" target="XoPRiA-ML8OkZGicO-Hc-33">
          <mxGeometry relative="1" as="geometry" />
        </mxCell>
        <mxCell id="XoPRiA-ML8OkZGicO-Hc-5" value="" style="sketch=0;points=[[0,0,0],[0.25,0,0],[0.5,0,0],[0.75,0,0],[1,0,0],[0,1,0],[0.25,1,0],[0.5,1,0],[0.75,1,0],[1,1,0],[0,0.25,0],[0,0.5,0],[0,0.75,0],[1,0.25,0],[1,0.5,0],[1,0.75,0]];outlineConnect=0;fontColor=#232F3E;gradientColor=#945DF2;gradientDirection=north;fillColor=#5A30B5;strokeColor=#ffffff;dashed=0;verticalLabelPosition=bottom;verticalAlign=top;align=center;html=1;fontSize=12;fontStyle=0;aspect=fixed;shape=mxgraph.aws4.resourceIcon;resIcon=mxgraph.aws4.managed_streaming_for_kafka;" vertex="1" parent="1">
          <mxGeometry x="760" y="190" width="80" height="80" as="geometry" />
        </mxCell>
        <mxCell id="XoPRiA-ML8OkZGicO-Hc-6" value="" style="sketch=0;points=[[0,0,0],[0.25,0,0],[0.5,0,0],[0.75,0,0],[1,0,0],[0,1,0],[0.25,1,0],[0.5,1,0],[0.75,1,0],[1,1,0],[0,0.25,0],[0,0.5,0],[0,0.75,0],[1,0.25,0],[1,0.5,0],[1,0.75,0]];outlineConnect=0;fontColor=#232F3E;gradientColor=#F78E04;gradientDirection=north;fillColor=#D05C17;strokeColor=#ffffff;dashed=0;verticalLabelPosition=bottom;verticalAlign=top;align=center;html=1;fontSize=12;fontStyle=0;aspect=fixed;shape=mxgraph.aws4.resourceIcon;resIcon=mxgraph.aws4.ec2;" vertex="1" parent="1">
          <mxGeometry x="850" y="360" width="80" height="80" as="geometry" />
        </mxCell>
        <mxCell id="XoPRiA-ML8OkZGicO-Hc-7" value="" style="sketch=0;points=[[0,0,0],[0.25,0,0],[0.5,0,0],[0.75,0,0],[1,0,0],[0,1,0],[0.25,1,0],[0.5,1,0],[0.75,1,0],[1,1,0],[0,0.25,0],[0,0.5,0],[0,0.75,0],[1,0.25,0],[1,0.5,0],[1,0.75,0]];outlineConnect=0;fontColor=#232F3E;gradientColor=#F78E04;gradientDirection=north;fillColor=#D05C17;strokeColor=#ffffff;dashed=0;verticalLabelPosition=bottom;verticalAlign=top;align=center;html=1;fontSize=12;fontStyle=0;aspect=fixed;shape=mxgraph.aws4.resourceIcon;resIcon=mxgraph.aws4.ec2;" vertex="1" parent="1">
          <mxGeometry x="950" y="360" width="80" height="80" as="geometry" />
        </mxCell>
        <mxCell id="XoPRiA-ML8OkZGicO-Hc-8" value="" style="sketch=0;points=[[0,0,0],[0.25,0,0],[0.5,0,0],[0.75,0,0],[1,0,0],[0,1,0],[0.25,1,0],[0.5,1,0],[0.75,1,0],[1,1,0],[0,0.25,0],[0,0.5,0],[0,0.75,0],[1,0.25,0],[1,0.5,0],[1,0.75,0]];outlineConnect=0;fontColor=#232F3E;gradientColor=#F78E04;gradientDirection=north;fillColor=#D05C17;strokeColor=#ffffff;dashed=0;verticalLabelPosition=bottom;verticalAlign=top;align=center;html=1;fontSize=12;fontStyle=0;aspect=fixed;shape=mxgraph.aws4.resourceIcon;resIcon=mxgraph.aws4.ec2;" vertex="1" parent="1">
          <mxGeometry x="900" y="460" width="80" height="80" as="geometry" />
        </mxCell>
        <mxCell id="XoPRiA-ML8OkZGicO-Hc-62" style="edgeStyle=orthogonalEdgeStyle;rounded=1;orthogonalLoop=1;jettySize=auto;html=1;entryX=1;entryY=0.5;entryDx=0;entryDy=0;" edge="1" parent="1" source="XoPRiA-ML8OkZGicO-Hc-9" target="XoPRiA-ML8OkZGicO-Hc-54">
          <mxGeometry relative="1" as="geometry">
            <Array as="points">
              <mxPoint x="1090" y="230" />
              <mxPoint x="1090" y="650" />
            </Array>
          </mxGeometry>
        </mxCell>
        <mxCell id="XoPRiA-ML8OkZGicO-Hc-9" value="" style="sketch=0;points=[[0,0,0],[0.25,0,0],[0.5,0,0],[0.75,0,0],[1,0,0],[0,1,0],[0.25,1,0],[0.5,1,0],[0.75,1,0],[1,1,0],[0,0.25,0],[0,0.5,0],[0,0.75,0],[1,0.25,0],[1,0.5,0],[1,0.75,0]];outlineConnect=0;fontColor=#232F3E;gradientColor=#945DF2;gradientDirection=north;fillColor=#5A30B5;strokeColor=#ffffff;dashed=0;verticalLabelPosition=bottom;verticalAlign=top;align=center;html=1;fontSize=12;fontStyle=0;aspect=fixed;shape=mxgraph.aws4.resourceIcon;resIcon=mxgraph.aws4.managed_streaming_for_kafka;" vertex="1" parent="1">
          <mxGeometry x="900" y="190" width="80" height="80" as="geometry" />
        </mxCell>
        <mxCell id="XoPRiA-ML8OkZGicO-Hc-67" style="edgeStyle=orthogonalEdgeStyle;rounded=1;orthogonalLoop=1;jettySize=auto;html=1;exitX=0.5;exitY=1;exitDx=0;exitDy=0;exitPerimeter=0;entryX=1;entryY=0.5;entryDx=0;entryDy=0;strokeColor=default;" edge="1" parent="1" source="XoPRiA-ML8OkZGicO-Hc-10" target="XoPRiA-ML8OkZGicO-Hc-54">
          <mxGeometry relative="1" as="geometry">
            <Array as="points">
              <mxPoint x="1220" y="580" />
              <mxPoint x="1090" y="580" />
              <mxPoint x="1090" y="650" />
            </Array>
          </mxGeometry>
        </mxCell>
        <mxCell id="XoPRiA-ML8OkZGicO-Hc-10" value="" style="sketch=0;points=[[0,0,0],[0.25,0,0],[0.5,0,0],[0.75,0,0],[1,0,0],[0,1,0],[0.25,1,0],[0.5,1,0],[0.75,1,0],[1,1,0],[0,0.25,0],[0,0.5,0],[0,0.75,0],[1,0.25,0],[1,0.5,0],[1,0.75,0]];outlineConnect=0;fontColor=#232F3E;gradientColor=#4D72F3;gradientDirection=north;fillColor=#3334B9;strokeColor=#ffffff;dashed=0;verticalLabelPosition=bottom;verticalAlign=top;align=center;html=1;fontSize=12;fontStyle=0;aspect=fixed;shape=mxgraph.aws4.resourceIcon;resIcon=mxgraph.aws4.keyspaces;" vertex="1" parent="1">
          <mxGeometry x="1180" y="480" width="80" height="80" as="geometry" />
        </mxCell>
        <mxCell id="XoPRiA-ML8OkZGicO-Hc-64" style="edgeStyle=orthogonalEdgeStyle;rounded=1;orthogonalLoop=1;jettySize=auto;html=1;entryX=1;entryY=0.5;entryDx=0;entryDy=0;" edge="1" parent="1" source="XoPRiA-ML8OkZGicO-Hc-11" target="XoPRiA-ML8OkZGicO-Hc-54">
          <mxGeometry relative="1" as="geometry">
            <Array as="points">
              <mxPoint x="1220" y="460" />
              <mxPoint x="1090" y="460" />
              <mxPoint x="1090" y="650" />
            </Array>
          </mxGeometry>
        </mxCell>
        <mxCell id="XoPRiA-ML8OkZGicO-Hc-11" value="" style="sketch=0;points=[[0,0,0],[0.25,0,0],[0.5,0,0],[0.75,0,0],[1,0,0],[0,1,0],[0.25,1,0],[0.5,1,0],[0.75,1,0],[1,1,0],[0,0.25,0],[0,0.5,0],[0,0.75,0],[1,0.25,0],[1,0.5,0],[1,0.75,0]];outlineConnect=0;fontColor=#232F3E;gradientColor=#4D72F3;gradientDirection=north;fillColor=#3334B9;strokeColor=#ffffff;dashed=0;verticalLabelPosition=bottom;verticalAlign=top;align=center;html=1;fontSize=12;fontStyle=0;aspect=fixed;shape=mxgraph.aws4.resourceIcon;resIcon=mxgraph.aws4.memorydb_for_redis;" vertex="1" parent="1">
          <mxGeometry x="1180" y="360" width="80" height="80" as="geometry" />
        </mxCell>
        <mxCell id="XoPRiA-ML8OkZGicO-Hc-52" style="edgeStyle=orthogonalEdgeStyle;rounded=0;orthogonalLoop=1;jettySize=auto;html=1;entryX=0.5;entryY=0;entryDx=0;entryDy=0;entryPerimeter=0;" edge="1" parent="1" source="XoPRiA-ML8OkZGicO-Hc-12" target="XoPRiA-ML8OkZGicO-Hc-16">
          <mxGeometry relative="1" as="geometry" />
        </mxCell>
        <mxCell id="XoPRiA-ML8OkZGicO-Hc-12" value="" style="sketch=0;points=[[0,0,0],[0.25,0,0],[0.5,0,0],[0.75,0,0],[1,0,0],[0,1,0],[0.25,1,0],[0.5,1,0],[0.75,1,0],[1,1,0],[0,0.25,0],[0,0.5,0],[0,0.75,0],[1,0.25,0],[1,0.5,0],[1,0.75,0]];outlineConnect=0;fontColor=#232F3E;gradientColor=#60A337;gradientDirection=north;fillColor=#277116;strokeColor=#ffffff;dashed=0;verticalLabelPosition=bottom;verticalAlign=top;align=center;html=1;fontSize=12;fontStyle=0;aspect=fixed;shape=mxgraph.aws4.resourceIcon;resIcon=mxgraph.aws4.s3;" vertex="1" parent="1">
          <mxGeometry x="1180" y="600" width="80" height="80" as="geometry" />
        </mxCell>
        <mxCell id="XoPRiA-ML8OkZGicO-Hc-13" value="" style="sketch=0;points=[[0,0,0],[0.25,0,0],[0.5,0,0],[0.75,0,0],[1,0,0],[0,1,0],[0.25,1,0],[0.5,1,0],[0.75,1,0],[1,1,0],[0,0.25,0],[0,0.5,0],[0,0.75,0],[1,0.25,0],[1,0.5,0],[1,0.75,0]];outlineConnect=0;fontColor=#232F3E;gradientColor=#F78E04;gradientDirection=north;fillColor=#D05C17;strokeColor=#ffffff;dashed=0;verticalLabelPosition=bottom;verticalAlign=top;align=center;html=1;fontSize=12;fontStyle=0;aspect=fixed;shape=mxgraph.aws4.resourceIcon;resIcon=mxgraph.aws4.ec2;" vertex="1" parent="1">
          <mxGeometry x="590" y="560" width="80" height="80" as="geometry" />
        </mxCell>
        <mxCell id="XoPRiA-ML8OkZGicO-Hc-14" value="" style="sketch=0;points=[[0,0,0],[0.25,0,0],[0.5,0,0],[0.75,0,0],[1,0,0],[0,1,0],[0.25,1,0],[0.5,1,0],[0.75,1,0],[1,1,0],[0,0.25,0],[0,0.5,0],[0,0.75,0],[1,0.25,0],[1,0.5,0],[1,0.75,0]];outlineConnect=0;fontColor=#232F3E;gradientColor=#F78E04;gradientDirection=north;fillColor=#D05C17;strokeColor=#ffffff;dashed=0;verticalLabelPosition=bottom;verticalAlign=top;align=center;html=1;fontSize=12;fontStyle=0;aspect=fixed;shape=mxgraph.aws4.resourceIcon;resIcon=mxgraph.aws4.ec2;" vertex="1" parent="1">
          <mxGeometry x="690" y="560" width="80" height="80" as="geometry" />
        </mxCell>
        <mxCell id="XoPRiA-ML8OkZGicO-Hc-65" style="edgeStyle=orthogonalEdgeStyle;rounded=1;orthogonalLoop=1;jettySize=auto;html=1;" edge="1" parent="1" source="XoPRiA-ML8OkZGicO-Hc-16" target="XoPRiA-ML8OkZGicO-Hc-54">
          <mxGeometry relative="1" as="geometry">
            <Array as="points">
              <mxPoint x="1120" y="760" />
              <mxPoint x="1120" y="650" />
            </Array>
          </mxGeometry>
        </mxCell>
        <mxCell id="XoPRiA-ML8OkZGicO-Hc-16" value="" style="sketch=0;points=[[0,0,0],[0.25,0,0],[0.5,0,0],[0.75,0,0],[1,0,0],[0,1,0],[0.25,1,0],[0.5,1,0],[0.75,1,0],[1,1,0],[0,0.25,0],[0,0.5,0],[0,0.75,0],[1,0.25,0],[1,0.5,0],[1,0.75,0]];outlineConnect=0;fontColor=#232F3E;gradientColor=#945DF2;gradientDirection=north;fillColor=#5A30B5;strokeColor=#ffffff;dashed=0;verticalLabelPosition=bottom;verticalAlign=top;align=center;html=1;fontSize=12;fontStyle=0;aspect=fixed;shape=mxgraph.aws4.resourceIcon;resIcon=mxgraph.aws4.athena;" vertex="1" parent="1">
          <mxGeometry x="1180" y="720" width="80" height="80" as="geometry" />
        </mxCell>
        <mxCell id="XoPRiA-ML8OkZGicO-Hc-17" value="" style="sketch=0;points=[[0,0,0],[0.25,0,0],[0.5,0,0],[0.75,0,0],[1,0,0],[0,1,0],[0.25,1,0],[0.5,1,0],[0.75,1,0],[1,1,0],[0,0.25,0],[0,0.5,0],[0,0.75,0],[1,0.25,0],[1,0.5,0],[1,0.75,0]];outlineConnect=0;fontColor=#232F3E;gradientColor=#F78E04;gradientDirection=north;fillColor=#D05C17;strokeColor=#ffffff;dashed=0;verticalLabelPosition=bottom;verticalAlign=top;align=center;html=1;fontSize=12;fontStyle=0;aspect=fixed;shape=mxgraph.aws4.resourceIcon;resIcon=mxgraph.aws4.ec2;" vertex="1" parent="1">
          <mxGeometry x="690" y="660" width="80" height="80" as="geometry" />
        </mxCell>
        <mxCell id="XoPRiA-ML8OkZGicO-Hc-68" style="edgeStyle=orthogonalEdgeStyle;rounded=0;orthogonalLoop=1;jettySize=auto;html=1;entryX=0;entryY=0.5;entryDx=0;entryDy=0;startArrow=classic;startFill=1;" edge="1" parent="1" source="XoPRiA-ML8OkZGicO-Hc-18" target="XoPRiA-ML8OkZGicO-Hc-54">
          <mxGeometry relative="1" as="geometry" />
        </mxCell>
        <mxCell id="XoPRiA-ML8OkZGicO-Hc-18" value="" style="shape=image;verticalLabelPosition=bottom;labelBackgroundColor=default;verticalAlign=top;aspect=fixed;imageAspect=0;image=data:image/png,iVBORw0KGgoAAAANSUhEUgAAAgAAAAIACAYAAAD0eNT6AAAABHNCSVQICAgIfAhkiAAAAAlwSFlzAAALEwAACxMBAJqcGAAAABl0RVh0U29mdHdhcmUAd3d3Lmlua3NjYXBlLm9yZ5vuPBoAABZsSURBVHic7d17kKV1fefx7+95zunbzDAzDsNFHAN4CSIxrLHKiDKSS3nJbiQRhircmMpedKs0VkKWbICKpiNqbaJCgooCEk3tH5sNm6qNG1hHjc6qWbTiLYIMKGA7DAtzYW7QTU93n/PsHy4WEAenZ7rP093f1+uvoS/n+RTMw3nP02eeEwEAAAAAAAAAAAAAAAAAAAAAAAAAAAAAAAAAAAAAAAAAAAAAAAAAAAAAAAAAAAAAAAAAAAAAAAAAAAAAAAAAAAAAAAAAAAAAAAAAAAAAAAAAAAAAAAAAAAAAAAAAAAAAAAAAAAAAAAAAAAAAAAAAAAAAAAAAAAAAAADQgtL2AJa3N1/+/lVTQ1OvKv3qpVHipyPirIiyMaJZHxGrImKo5YnwFLsn7mp7AjxFKSWilKaq6rko5XBdD+0qVXVfXVXbpkvvpm033rh3UY67GA/KynbpVe89eSb6byoRb4wmXh4R3bY3wdESACwnpZSoh0YOdrpDn+9V3T/8+xs+tGC/gQUAR+2Nf/CezXXpX96U8vqI6LS9B46FAGC5KlGiMzL6cLczevWnb/rw9cf/ePATXHzF1RdEiXdHxPltb4HjJQBYCbpDIwfqkVXv+swNH/7QsT6GAOCItvz++Cn9Tv2nJeI3wu8VVggBwErSHRnbOTK86vW3fuy6O+f7vdViDGL523Ll1Rc3nXp7iXhzePIHWJJmp6ee89ijj3z7tW95+3+e7/f6HztP8fp3XDe8as2ha6Jp3tb2FlgMrgCwMpUYHlv1rdnh7vnbrr/+saP5DlcA+JEt4+OrV60++ClP/gDLTROHpx47t5qc3vGvLrvstKP5DgFARERsufJ9G5vD9baIeE3bWwA4NnMzj6+femT/Pb/ylre/8Cd9rQAg3vCf/mRNE73/FRE/1/YWAI7P3OzhVdMzk9/4lbf9/inP9HUCILnXv+O64aF65n+EJ3+AFWNu5vCqw5N773zN5ZevOtLXCIDkVq05dE1E/GLbOwBYWLMz0xviwKEvHunz9SDHsLRsufLqiyPi/W3vgEGaPLCn7QkwMHOzs6ee9YrNo/d94x8/9/TP+WuASb3xqveeWjX9uyJiXdtbYJD8NUCyqaq6qVevP+fp7yPgRwBJlab/gfDkD7Di9fu9UmamP/X0jwuAhC6+4uoLSsSb2t4BwGDMTE8+77Vvffvbn/wxAZDRD9/YB4A0mpg9/PjVT/6IAEjmjX/wns3hXf0A0pmbeXz9697y2z+606sASKYu/cvb3gBAO2Znp975xK8FQCK/fvn4SU0pr2t7BwDtmDs8fcrr/8M7zo4QAKl0up3fiIhu2zsAaEcTTfT6s38cIQBSaUrz621vAKBdc7MzvxzhRkBp/Or4+Njw4Xp/RAy1vQXa5EZApFeq6K5fd6IrAEkMzZTzw5M/AE0/OrPl3wmAJEpTe7c/ACIioml6FwiALJrmp9ueAMDS0O/NPV8AJFEiXtj2BgCWhn5v7hQBkERT4tS2NwCwNDT93ogAyGNN2wMAWBr6Tb8WAHmsbnsAAEtD0+9XnaP5wi1bttS7ut1XNk1zYWma86KUMyNifbir3FHbMzHR9oRW/MNrf7vtCfAUc9871PYEeIoXff6KwR+0aeIZA+AVW7aMdjud39kV8XvRNBtLRERx7yAAWO6OGACbL730koi4JiJOG9wcAGAQftxrAMrmN71pPCL+Kjz5A8CK9NQrAOPj1eZ77vmv0TSXtLQHABiAp1wB2HzPPe+NCE/+ALDC/SgA/v/P/Ft4KSIAMGhVxA9f7R8RH2h5CwAwIFVERKfT+d2I2NTyFgBgQKotW7bUJeKytocAAINTPdzpvCoiNrY9BAAYnKoq5cK2RwAAg1U1TXNe2yMAgMGqIuLMtkcAAINVRcTatkcAAINVRcRQ2yMAgMH6cW8GBACscAIAABISAACQkAAAgIQEAAAkJAAAICEBAAAJCQAASEgAAEBCAgAAEhIAAJCQAACAhAQAACQkAAAgIQEAAAkJAABISAAAQEICAAASEgAAkJAAAICEBAAAJCQAACAhAQAACQkAAEhIAABAQgIAABISAACQkAAAgIQEAAAkJAAAICEBAAAJCQAASEgAAEBCAgAAEhIAAJCQAACAhAQAACQkAAAgIQEAAAkJAABISAAAQEICAAASEgAAkJAAAICEBAAAJCQAACAhAQAACQkAAEhIAABAQgIAABISAACQkAAAgIQEAAAkJAAAICEBAAAJCQAASEgAAEBCAgAAEhIAAJBQ56TTz257AwAwYK4AAEBCAgAAEhIAAJCQAACAhAQAACQkAAAgIQEAAAkJAABISAAAQEICAAASEgAAkJAAAICEBAAAJCQAACAhAQAACQkAAEhIAABAQgIAABISAACQkAAAgIQEAAAkJAAAICEBAAAJCQAASEgAAEBCAgAAEhIAAJCQAACAhAQAACQkAAAgIQEAAAkJAABISAAAQEICAAASEgAAkJAAAICEBAAAJCQAACAhAQAACQkAAEhIAABAQgIAABISAACQkAAAgIQEAAAkJAAAICEBAAAJCQAASEgAAEBCAgAAEhIAAJCQAACAhAQAACQkAAAgIQEAAAkJAABISAAAQEICAAASEgAAkFBn98RdbW9IYc/ERKvHP+n0s1s9PgBLiysAAJCQAACAhAQAACQkAAAgIQEAAAkJAABISAAAQEICAAASEgAAkJAAAICEBAAAJCQAACAhAQAACQkAAEhIAABAQgIAABISAACQkAAAgIQEAAAkJAAAICEBAAAJCQAASEgAAEBCAgAAEhIAAJCQAACAhAQAACQkAAAgIQEAAAkJAABISAAAQEICAAASEgAAkJAAAICEBAAAJCQAACAhAQAACQkAAEhIAABAQgIAABISAACQkAAAgIQEAAAkJAAAICEBAAAJCQAASEgAAEBCAgAAEhIAAJCQAACAhAQAACQkAAAgIQEAAAkJAABISAAAQEICAAASEgAAkJAAAICEBAAAJCQAACAhAQAACQkAAEhIAABAQgIAABISAACQkAAAgIQEAAAkJAAAICEBAAAJCQAASEgAAEBCAgAAEhIAAJCQAACAhAQAACQkAAAgIQEAAAkJAABISAAAQEICAAASEgAAkJAAAICEBAAAJCQAACAhAQAACQkAAEhIAABAQgIAABISAACQkAAAgIQEAAAkJAAAICEBAAAJCQAASEgAAEBCAgAAEhIAAJCQAACAhAQAACQkAAAgIQEAAAkJAABISAAAQEICAAAS6rQ9gMFo+v0o1eB775VbPzzwY8Iz2T1xV9sToH2luAKQRb/Xa3sCAEtEqaq+AEii35trewIAS0RVqp4ASGJu5nDbEwBYIkpVTwuAJA5PTbY9AYAloqo7DwuAJA4/LgAA+KGq7twrAJKYfvRA2xMAWCqq8nkBkMTkwf3RNP22ZwDQtlKizA3/hQBIoun14vFDB9ueAUDLOt2R/VtvvnafAEjk0J6H254AQMvqoaHPRrgVcCoHdj3oxwAAiZUo0Y36nRECIJXe7Ew89sietmcA0JLu8OhDt930ke9GCIB09u64r+0JALSkHh199xO/FgDJTB06EFMH97U9A4AB6w6P7tv60Q9/7Il/FgAJ7br/uxHRtD0DgIEp0R0ZuerJHxEACU0d3BcHdz3U9gwABmRodNX3Pv2x62948scEQFIP37c9enOzbc8AYJGVUjVVZ/gNT/+4AEhqbuZwPLj9n8KPAgBWshLDq9f+yWdu/PDdT/+MAEjs0Ud2x74Hf9D2DAAWyfCq1f/4mRuvv/LHfU4AJPfwfXfHY/v2tj0DgAXWGRnbM1I9+4IjfV4AJNf0+7HjO1+PqUPeLRBgpeh0hydXn7D6Z/7njeNTR/oaAUA0vV48cMfXYvpRbxYEsNx1usOTY6Mn/ItP/fmf73qmrxMARETE3OxMfP9bX43H9rlVMMBy1R0e3dd91rNf8Hc3XPe9n/S1AoAf6ffmYsedX49Hdk6Evx0AsJyUGB5b87Wxoedu2vpn7zuqG710FnsSy0vT78fD994VkwceidPOeknUnW7bkwB4BqVUzfCade/9zA0feed8vs8VAH6sR/fuiu99dVvse+iBcDUAYCkq0R1ddX9nzbPOme+Tf4QrADyD3uxsPHTPHXHw4Z1x0hkvjFXrNrQ9CYCI6AyN7h8aHbny6bf3nddjLOQgVqapg/tj4ltfjbG16+PE554Zq5+1MUpx8QhgkEop0R0afagzMvzHx/PE/wQBwFGbOrg/dtzx9eh0h+KEk58dJ5x4coytXS8GABZJKSXq7sj+7tDw5+qo/vC2mz7y3YV6bAHAvM3NzsS+nROxb+dEVFUdo2vXx9iatTE0tiqGxlZHZ2g46roTVV1HqcQBwDMppUREaaq6nitVPV3VnYequnNfKfW26HU/vvXma/ctxnEFAMel3+/F5P69Mbl/adxOePvtt5e2Nyw3my+9NNWrPPdMTLQ9YaCcExyJP54BQEICAAASEgAAkJAAAICEBAAAJCQAACAhAQAACQkAAEhIAABAQgIAABISAACQkAAAgIQEAAAkJAAAICEBAAAJCQAASEgAAEBCAgAAEhIAAJCQAACAhAQAACQkAAAgIQEAAAkJAABISAAAQEICAAASEgAAkJAAAICEBAAAJCQAACAhAQAACQkAAEio0/aAlaZUJdaePhobf2ZtrDtjLEY2DEVntIr7d54ddRVRer2Y2TMZu7/yQPzf//1A9Hv9ticDkJAAWCB1t4pNmzfEpgs2xNDqH/evtYlePyJKHdVJJ8Qpb3hxnPZrL47H790b22/+VsxOzgx6MgCJCYAFcPK5a+MFF54Sw+u68/q+Xj9i6MwT46Xv+6V45MsTce8t2xdpIQA8ldcAHIdSSpz52pPixb/5nHk/+T9Zrymx7pVnxEuveGVUHf9JAFh8nm2OUSkRL/7N58QZrzspSikL8pjVKWvjZe++QAQAsOg80xyjM//lyXHyuWsX/HH7YyPxs5e9fMEfFwCeTAAcg5PPXRun/9LGRXv8+rT18fwtL1q0xwcAATBPdbeK5194yqIfZ8P5p0d39dCiHweAnATAPG169YYYOY4X/B2tXr/Ei/7tzy76cQDISQDMQ6lKbHr1hoEdb/R5J0btBYEALALPLvOw7oyxI9zkZ3H0mhKnbt40sOMBkIcAmIcTz1kz8GOe9PPPGfgxAVj5BMA8rD1jbODH7G5YPfBjArDyCYB5GN3QwqvyvQYAgEXg2WUeOqP1wI/ZaxbmLoMA8GQCAAASEgDzMPd4b+DHrEsz8GMCsPIJgHmYfmR28Aed6w/+mACseAJgHg7cPznwY87ufXTgxwRg5RMA87DnzsE/Ge+6fefAjwnAyicA5uHgxFTMPDa41wHUpYmHviwAAFh4AmAemn4TO76wd2DHm7p3T/S9BgCARSAA5umBL+6N6f0zi36cukTc/RffXvTjAJCTAJin/lwT3/vbXdE0i/vX8x750v0xO7n4oQFATgLgGOz+p4Pxg79fvB8FzD24P+7973cv2uMDgAA4Rvfftit2ffPggj9uNTUd3772qwv+uADwZALgGDVNxHf+y874/qd3L9iPA/oPH4yvvWubF/4BsOg6bQ9Yzpqmifu37o7HHp6OF/zaqTGyrntMj1OXH/7M32X/HLZs+eu6d+Z3X1mq/oVVU85rSpwZEesj4th+A8Ez2Hj66a3cT7xEiaqu+lHVU53u8N1V3f3kCfs33nTLLeNe3LRElM2XXupm8wug6pTYdP6GeO4vnBhDa/55V937g3/+p/q6NDF17964++PfjNnH5wYxc8XbfvvtS/btE7dcds1ojEz9ThPN70XExrb3ZLV74q62J6RV13W/O7L606UZffPWm6/d1/ae7ATAAisl4oQzxmLji9fEujNWxeiJQ9EZq+P7O5uoShOl14uZvZOx5/ad8eCXHnC5f4Et1QC46Kp3X1Kack1EnNb2luwEQPuqutMbHlvzZ1tvvP7ytrdkJgAGZM/ERNsTUlh6AdCUi696zx9FE++KiCW2LScBsFSUGB5b85XZTaeev2183CXQFngRICyS8fHx6uIr3/NX0cQfhSd/eJomDk8d+vnOD3bed8H4uNejtUAAwCK543D13oi4pO0dsJTNTE8+t/vgQ19oe0dGAgAWwUVXvfuSEuWKtnfAcnD4sUdf9Zq3vO39be/IRgDAAtty2TWj0ZQPtL0Dlo8mZh5/9LIL3vrWE9tekokAgAXWDE/+bonY1PYOWE76vbm626/+su0dmQgAWEBbtvx1HSUua3sHLEcz05Ov+7m33uCGWAMiAGAhPf/uV4Wb/MAxaXpz1Ybqzn/f9o4sBAAsoKYpF7a9AZazZubwv2l7QxYCABZSifPangDLWa83c1bbG7IQALCwzmx7ACxnvV5vVdsbshAAsLDWtj0AlrOm3/O8NCBVRHhrRlYE99oFOHpVRBxsewQsiKpaCm+t6HyC41CqeimcxylU0TT3tT0CFkLd6TzW9obShPMJjkOnrls/j7OoopR/aHsELISq293e9oYmwvkEx6HqDLV+HmdRlab527ZHwEKoS/lE2xuiOJ/geNTdTvvncRLVSb3e/4mI3W0PgeNRqqr/jdnZm1vfce9Zzic4RqXu9KdPOan18ziL6pZbbumViA+2PQSOR3ds7NbYtm2u7R233HJJL6I4n+AYDI+M3bptfLz18ziLKiKiDA9fF6XsaHsMHIuq0+nNVdVvtb3jCauH566LCOcTzENVd3qlGfuttndkUkVEbPvkJ6ebfv8/RkTT8h6Yt5GRkQ98Z+vWfW3veMInx8enS4TzCY5aieHREz6w9eZrl8x5nEH9xC923HnnXc8955yhUsr5bQ5aqaYOHGh7woo0Mjb2pW987nP/uu0dT3fXl79w19nn/8JQhPNpqZk8sKftCTzNyNgJX/rMxz+65M7jle4pt1z80llnvTNK+W9tjYH56I6M7Phmr/eLbe84knOG++9sIpxP8AyGhlftmNl06pI9j1ey+in/tG1b84M77vibn3rJSyIiXh3urrpgXAFYWENjY1/5dr9/7lJ44d+RbNu2rdn+5c//zdmbvxjhfFoyXAFYKkoMj53wlbmfOu1cL/xrxxH/h3T+pZdeVCKujYhNA9yzYu2ZmGh7wopQ1fXcyOjoB7/+2c9e0faW+bjoivdcFKW5tjifWrd74q62J6RXd7pzQyNrPrj1po8sq/N4pamP9Ikdd965/YyXveyj/V7vUIl4SUSsHuCuFccVgONTqqo/PDZ2a71u3Su+edttf9f2nvna/uXPb3/5L7/6o7P96lA4n1rlCkB7St3pj4ytuXXNujWvuPX6Dy2783ilObpLkuPj1QX33HNev5QLo2nOi4jnRcT6iBhaxG0riisA81BKlFL6daczWXc620un84lvHj788aV8uX8+xsfHq+883jmvqfoXRlPOi+J8GiRXAAajlBJR1f267kx2OkPby1D3E4dPPvHjLvcDAAAAAAAAAAAAAAAAAAAAAAAAAAAAAAAAAAAAAAAAAAAAAAAAAAAAAAAAAAAAAAAAAAAAAAAAAAAAAAAAAAAAAAAAAAAAAAAAAAAAAAAAAAAAAAAAAAAAAAAAAAAAAAAAAAAAAAAAAAAAAAAAAAAAAAAAAAAAAAAAJPf/AMjjfiCQyWdzAAAAAElFTkSuQmCC;" vertex="1" parent="1">
          <mxGeometry x="335" y="610" width="80" height="80" as="geometry" />
        </mxCell>
        <mxCell id="XoPRiA-ML8OkZGicO-Hc-27" style="edgeStyle=orthogonalEdgeStyle;rounded=0;orthogonalLoop=1;jettySize=auto;html=1;entryX=0;entryY=0.5;entryDx=0;entryDy=0;entryPerimeter=0;" edge="1" parent="1" source="XoPRiA-ML8OkZGicO-Hc-19" target="XoPRiA-ML8OkZGicO-Hc-4">
          <mxGeometry relative="1" as="geometry" />
        </mxCell>
        <mxCell id="XoPRiA-ML8OkZGicO-Hc-19" value="" style="shape=image;verticalLabelPosition=bottom;labelBackgroundColor=default;verticalAlign=top;aspect=fixed;imageAspect=0;image=data:image/png,iVBORw0KGgoAAAANSUhEUgAAAgAAAAIACAYAAAD0eNT6AAAABHNCSVQICAgIfAhkiAAAAAlwSFlzAAAOxAAADsQBlSsOGwAAABl0RVh0U29mdHdhcmUAd3d3Lmlua3NjYXBlLm9yZ5vuPBoAACAASURBVHic7d15nB1VnTbw59Rd+/a+ZOksJCEE0Bi6O90QAohGQBDHUVEQcdwdQZRBEd/3nXeGmSjO4LyDoKAjjiJuoKCjjjFLpxODDkuCnV6IKHsCScjaS7r77vfWef+4iQTI0um+Vb+qOs/38+lPXJI+Tye36vzq1FkAIiIiIiIiIiIiIiIiIiIiIiIiIiIiIiIiIiIiIiIiIiIiIiIiIiIiIiIiIiIiIiIiIiIiIiIiIiIiIiIiIiIiIiIiIiIiIiIiIiIiIiIiIiIiIiIiIiIiIiIiIiIiIiLvUtIBiGiC1q+fg6xug9KnQxfnQNszUUQztF0PjQrYdhy2jsPWYdjFMKBevt6LxZf/c0gBsDQUAKU0FGwoqwigCEtlYYXGYFkjCGEYUHugrO2w1LMoFp9FLNyLCy/c4/rPTkSTxgKAyMvWrTsZNt6GfP5sFO3TYNszULTrkS9WvKITlxQKaYRDKYRD+xC2XkQ4/CcgtBlh/XtceOHT0vGI6Mi8cQMhMt0DD4RQW/tWFPEOFIpnIl88Gfl8HYpFSzrapFiWjVhkAJHQM4jEHkUYK3HBBb+DUrZ0NCLTsQAgktDZOQ9afQS54gUo5F+PXL4ORduM6zEU0ohH96C2eiVqq3+KRGoTTj9vVDoWkWnMuOEQSVuzphlaXYtc4a+Qy5+GfKECWkunco9SQCIOVFYAlQkgETv8/y0C2AJgPaC7UND/g46OlExQInOwACBygtYKa7quRKH4MeTzZyGTqzGqwweAihhQVQlUxYGK+CvmIB5HFtCPQFldsLEabW19TsYkMhULAKJyeeSRCiQzn0E6/SGkc69DoRCSjuQqpYB4FKiuBGqrgGikXN95G4BfQ+n/xuDI77FsWaFc35jIZCwAiCZjxYoEIrHPI5P7MDK5kz0zM98tSgGVcaCmCqhOAOGw0y0OQuM3UPo+PP3cOlxxRdHpBomCyqybFVE5aK2wquta5POfRiZzujGT9w4XjwEN1aWOPyQ20LEHwANQ+j60tG+UCkHkV+bduIgmau2GVuSytyCVvgD5QtnGt30jFAJqKoGGmlIB4C3PArgbkcL3sfCs3dJhiPyABQDRsXR3R7B3cDmy2U8glZkqHUdEVSVQX10a4h//RD4peQC/BvR30LK4i/sNEB2d569mIhFdXSchV7wDyfTbkS84/mLbcyyrNJGvqRaIRqXTTNRWAN9Ewf4uOjoOSIch8hoWAESH61z/NmQzX0Uy/TrYhi3bA4BIGGisAeprS0VAIOhRaHwPIfsOnHHm89JpiLyCBQARAHR1XYVU7haMpU6SjiIiHgMaa0tP/d4f5p+oIoBfQat/Q1vbH6TDEEkL7JVONC6rum5EOv33yGQbpKOISMSBqQ2lHfpMorEaUF9GW9sj0lGIpLAAIDN1dn0KyfS/Ip2tk44iIh4FptSXlvGZTGEdFG7GGYt/Lx2FyG0sAMgsqzo/gEz2q0hnp0lHERGPAlMaSsv56GUK6wD7f6Olo0c6CpFbWACQGTrXXYR0+h4kMzOlo4iIRoGpdaUn/uC+458sGwo/BUL/iJaWrdJhiJzGOwEFW2fnPOSK92M0daZxh/EApZn8TXWlL3b845WD1t9CNP4lLFw4KB2GyCm8I1AwbdgQRzLzA4ylLjdyq14AqKsGpjUCYbPOJCqjQSj1JTz1zDd45gAFkZk3Rgq2NWs+jdHsrcjl4tJRRMRjQHNTaYY/lcNm2LgOixc/Kh2EqJxYAFBwrP7tacinVmA0vUA6iohQCJjWUHry53B/uWlA/wDZwo1YsmRAOgxROfAuQcGwsvM2jCavR7EYlO3rTkxNFTCjSfJkPlPshcIX0LL4h9JBiCaLBQD529q15yKZ+W+kso3SUUSEQ0DzFC7rc98KqNC1aGnZIR2EaKJYAJA/aW1h5Zp7MZp6H2xDJ/nVVgHTpwBhMwc9PGAEWt2ItrbvSAchmggzb5zkb+tWn4GRfBfSWTOP5+VTv9esQcH+GDo6dkkHIToRLADIX1Z13o6R5PUoFs387NZUAs1T+dTvPXsA/Qm0tv9GOgjReJl5EyX/6eycikz+IYwZOsNfKWB6I9BQK52Ejk4D+DZSmRtwzjlp6TBEx8MCgLyvq+vtGE793Nh1/ZEwMGs6kIhJJ6Hx+RNsXI7Fi/8kHYToWFgAkLetWvs9HBj5KGwDt/EFgOpKYOYULu/znxFA/y1a2x+QDkJ0NCwAyJs2bKjDcPIxpAwe8p/WADSaeVpxcKhvorLq81iwICudhOjVWACQ96xefSbGchuQy5k5zT0cAk5qBio45B8ICo8iXLgMC8/aLR2F6HCcSkzesmb9Z3AgvdHYzj8eBU6exc4/SDSWIh/+Ax7f3C4dhehwHAEg7/hN5/cxMvphI4/tBUrv+2dNLR3hS0GUgcLV3EaYvIIFAMkr7er3OxwYO086ipjG2tLRvTzEJ+g0gH9BS9s/QSlDK13yCt5tSNbGjTXYte9xpDJzpKOIUKp0iE9djXQSctePULA/jo6OvHQQMhcLAJKzbt2pOJDqRiZbLR1FRMgCZjcDlWZub0B6LeLp9+L080alk5CZWACQjJVrW5FOPYps3szeLxQC5kwHKsz88ekvtkCFLuWpgiSBs43IfWvXvgnJ5GPGdv7hEDB3Bjt/AoBF0MWHsKV7vnQQMg8LAHLX2vWXY3Dst8gXItJRREQjwLyZpeV+RCVzULT+B319C6WDkFlYAJB71qz/BAaH70exaObnLh4tdf5RM2sfOqZmwF6Px7sXSQchc3AOALljTdffYnj028Ye41sRL73z557+dGyDsHExFi/ulg5CwWfmzZjctWbNRzGcutvYzj8eLb3zZ+dP43MANi5kEUBOM/OGTO4xvfOPRYF57PzphA0D1lvQ2torHYSCy8x3seSOrt9eYXTnH40Ac5vZ+dNE1AH2ajzefbp0EAouM2/M5LzOdRdhaGSNsRP+IuHSsD8n/NHkvISifhPa25+VDkLBwwKAyq/zt+04MLIR+XxYOoqIcAiYOxOIsfOnstiKSOEcHidM5cYCgMpr5bpTkRp7HLm8mefZhg5u8sN1/lReW6DV+WhrG5YOQsFh5vAsOWPNmgZkU93Gdv5KAbOmsfMnJyyC0g/giSf44aKyYQFA5aF1CNliL9KGHuwDAM1NQFWFdAoKrotQyN4DrTlyS2XBAoDKY8WqRzGWOkk6hpimeqCeR/qSwzSuQn/vcukYFAwsAGjyVq35AUZTZ0rHEFNTCUytl05B5rgJvb1XSYcg/2MBQJPT1XUdhsc+JB1DTEUUmDm19P6fyB0KSn8Xvb3mFt1UFrxr0cSt6jobIyMPo2ibWUhGwsDJs0rL/ojctwsqdBZaWnZIByF/MvPGTZO34Zd1SKXWGdv5H5rxz86f5DRD2z/nygCaKDNv3jR5ByJ/QDZXKR1DzLQGIBGXTkHG00uQz35VOgX5EwsAOnGrOn+MZPoU6RhiaiqBxjrpFESHfAb9PVdKhyD/4RwAOjGruy7D8IH/gq2lk8iIRoD5swCLtTN5ShKwlqC19QnpIOQfLABo/B5+eCpe2rsduYKZ7xwtBcydVZr5T+Q9f0LBPhMdHSnpIOQPfIyh8ds3/IixnT8ATG9i509e9nqELc4HoHFjAUDjs3LN15BMzZeOIaamkjv9kR9cg/6ev5YOQf7AVwB0fKu6zsbI6CMoFs38vIRCwCmzueSP/GIfIoUzeHwwHQ9HAOjYHngghEx6pbGdPwDMmMLOn/xkCvKhH/DQIDoeFgB0bBXVP0U62yAdQ0xtdWn4n8hX1FvR3/NJ6RTkbawQ6ejWrXsj9h34HWzbzM9J+ODQf4hP/+RLIwgV3oBFZ22XDkLexBEAOjKtQxhJ/7exnT9QGvpn50/+VQM7fJd0CPIuFgB0ZGvWfh/pjLln3NbVANUc+ief07gUvb0fkI5B3mTu0x0d3erVZ+BAqg9FQ5/+QyFgAYf+KTD2w8brsXjxPukg5C0cAaDXyhT/29jOHygd9MPOn4KjCRa+Ih2CvIcFAL3SmrWfRio9VzqGmIoYUFctnYKo3D6Knp6l0iHIW1gA0Mu6uxMYTd8qHUOMUkDzlNKvRMGiYOlv4oEHOLRFf8ECgF62Z99PkcuZe8h9XXVpBIAokFQbFsy/RjoFeQcfdahk3bpTsX/kSWN3/OPEPzLDEAr2qejo2C8dhORxBIBKUrmfGdv5A8BUTvwjI9QjEvoH6RDkDSwACFiz7hKMpc6QjiEmGgEaeNIfGULra7F58ynSMUgeCwACMul7oLV0CjlTzT3qgIwURUh9WToEyWMBYLo1a69BMjNdOoaYeJSH/ZCJrkBf31nSIUgWCwDTpTL/Kh1B1JQGLvsjEynAvkU6BMliAWCy1Z3XIp01d7//eIxP/2Syt+DxnvOlQ5AcFgAmS2f/RTqCqOmN0gmIZNn4J+kIJIdjn17S2fkGwDoLxeIZsPUC2HoW7GI9bCRg2xWw7ShsfXCtmsYr9usPhTQADUsVoZSNkJVGyBqBUkOwrEFo9Rwikc1QhYdw8cV/xKrOGzE08u8yP+hRRMJANApEw6X/HA4B4YO/WgqwrNJX6Ah1q9aAbQO2BrQNFGygUDzsKw/k8kA2X/rvlRXA3Bnu/4xEnmO/Ea0dD0mnIPexAJCwcWMNhkffB7vwFuT1IhSLs5DL17i2Dt+yNBQgduCPZZWG3xOx0q+xKBCLuPcu3rYBjSMXEkTmWY/WxRdKhyD3sQBww4oVMxGKfgp28ULkCq9DJldj1LK7cKj0xJ2Il36NutjZE9Hx2TgHixc/Kh2D3BWWDhBIWltY0/U+FAsfRq6wBKPZOuiMdCp3JeJAdSVQnSg94RORd1n4PID3Sscgd/ExrJzWdF2BbO56ZHNnIV8wr7iqqgBqqoGaBLfVJfKXIor6dLS3PysdhNxjXidVbl1d5yFTuAXpzBIMDEek47guHgXqaoDaytKEPSLyoxBC6noA10kHIfdwBGAiHnggiqq6zyKbuw6p9CzpOK5TqjS831BTeqdPREGQQjZ/EpYsGZAOQu7gI9uJ6OycjYL+NsbSb8XQAfPGuMMhoKG21PFziJ8oaBKIRT4B4N+kg5A7OAIwHqvXnYl87j+QyrQbeWRuLAo01gJ11Zy9TxRsW9HSdgqUsqWDkPN4Nz+WDRtOx1j6HoymzjZq2d4hkTAwpR6o51G5RObQl6C1vVM6BTmPrwCOZP36+UhmfoA9g+eIbZYj6VDHzyd+IgNZVwNgAWAA3t0Pt2FDHMnsvRhLvtvIjt9SQGMd0FRX2q2PiExUAKy5aG3dKR2EnMW7/CGruj6L/SNDODB6mZGdf20VcMpsYGoDO38is4UB++PSIch55nV0r7Zhw+kYTq5BKj1HOoqISBiY0QRU8VhcIvqLZ9HSdiqUMnDykznMLgBWdt6G0eT1KBbNfOStrykdicsnfiJ6NaWXoqV9o3QMco6ZkwA7O9+AVK4TwyNmngcbCQMzp3ITHyI6Om39DQAWAAFm3gjA6q7P4cDIrSjaZj721lYBzU3cyIeIjmcfCvZMdHTkpYOQM8wZAVi1Koai7sLQgTcauabfUkDzlNLSPiKi45uCsLoYwG+kg5AzzHgK7upqQ6qwFyMpMzv/aASYN4udPxGdIHWFdAJyTvBfAaxZ+0EcSN6DQsHMMe/qBDBzGhAyo9YjorIaRsGeytcAwRTsXmHV6jswNPJDYzv/xlpg9nR2/kQ0UXWIWOdLhyBnBHMOgNYWVqx+GENjZ0tHETNjCvfwJ6LJ0+rdANZLx6DyC94rgFWrYsjbWzCWXiAdRURIlZ76KxPSSYgoGHaipW02NwUKnmCNDW/YUIecvc3czt8C5sxg509E5TQTvb3t0iGo/IJTAHR2zsbA6AtIpqdLRxERDgFzZwIVcekkRBQ0IfVW6QhUfsEoADZsmI7RzB+RzZr50jsSBubNBOJR6SREFERaXyQdgcrP/3MAOjunIpl9CulsnXQUEeEQMHcGEGPnT0SOySESa8TChWPSQah8/D0C0Nk5Fcnc08Z2/qFQ6Z0/O38iclYUudybpENQefm3ANiwIY5k7o9IZ2qlo4gIKWBuM4f9icglNl8DBIw/CwCtLYyk+pHOTJGOIkIpYFYzEI9JJyEiUyj1ZukIVF7+LABWrN6AsdSp0jHEzJgCVPEoXyJy1SJ0d5s54hpQ/isAVnbehdGkuVtTTqnnoT5EJMFCOLxEOgSVj7+2Au7qugr7D1wtHUNMdaJUAASQBT12buHPu96be7B6SWZL7cnZrbG6wpAVQUDOILHCQOUUIN4IxKqBcAUQiiAIC3Ho6FI6mn++UDP2++zsoVWpubn/GZtWP5LSU2Hr0j+8Ukd+DLNCR/5ohCxgvPvxKQVYh765Bor2a3+Pfeh/U0AiDlTGgcqKw/7ca/7AuQDWHrXNJx+qRqbqddD6dYA9C0pNA9QsKD0dNqZCIQygptQgDk3eTgLIASgCegBQAwAGAOwDsK30ZW+FbT2FxYv3jfOnp3Hwz93ntw+dhoH9f0Qu76+ipVyiUWD+zGNcmP5UpdM7b0ndHf7Y8P3TEnZSOk75RSqB+nlAVTOgzDyTil5pf7EifdW+t+1cNzBljs4VItJ5XsOygPrq0mFikdfEW4/WxRcCALq7axEKnQfocwG0QuH1AOY4nG4XoLcAVh80HoVlPYKWlr0OtxlY/igANmyIY2h0l7nL/RQwbzYQ8969YqIUdOam9H0DN+3/+swwCtJxys8KAfULgLo58MtlRu5K6Ujh3J2Xb+/bn5gH7dFt9pvqgan1pdGEkjEA9wA4H8AieOM18tMANkCrNahIrsfp541KB/ILf9yZVqz+H4yMnScdQ8zMqYF6759AdsfGfZ+csiizJZjLGCIJYPpiIFolnYR84PbRxdtv2NY+EwXbC53pa1VEgVnTgagvHkByUPg9tP4ZCvoX6OjYLx3Iy7xfAKzp+gwGhu+UjiGmprJ0ul9ANOqRbX/efcVJUwp7vXmzm6xYDdDcAYS4PwON3yPZmfvf+Nw7qu1s3ptFcThc2nfEX5uOFQCsh8L3kaj+JRYsyEoH8hpvFwCrN8zF6PAzyBcMfe8fBubPDsx7/wSyO7bteueMwHb+kQQw82x2/jQhj2ZnDp3z1NtrUSx68/oIh0pnjvhjJODV9gP4IYr6W2hvf1Y6jFd484N2SC75O2M7f6WAGdMC0/kr6MzG/Vc3BbbzVxYwvY2dP03Y0tjO+m+c/Iddh71v95ZCEdixB56dr3BsTQBuQEg9hb7eX6C39xzpQF7g3Zvxmq4vYyx9knQMMQ01pSU5AXFT+r6BRenHg/MDvVrDqUA0OPM0SManq3pnntaQfUE6x1Gls8DeIekUk2EB+t1Q+mH09fwePT1Gn2/gzVJz1apZGMtsQ75o5rqpSAQ4ZVZgnv6rdHrn0I43BXO2P1Ba6nfSefDq5UT+sseuTE1/4qq4ZycFKgUsOKl0DHkwrIey/wEtHZukg7jNmx+wAtYa2/kDwMwpgen8AeCW1N3hwHb+QGmdPzt/KpNpVjLxxqahrdI5jkprYOCAdIpyugDaehR9PT9EX99M6TBu8l4vs2b9NRhNvk46hpiaqtJOXAGhlB792PD906RzOMYKlzb5ISqjn09b1QzL8u7L9qEDh+0iGAgKwAcB+yn09fwfdHf7cqbjifJWAbBhQxhjY7dKxxCjFDC9QTpFWZ2X//PuQO7wd0jlFO7wR2U31UolKhPWoHSOo7I1kEpLp3BCJYBbELb+gJ6eDukwTvNWAZDKfgvZXKV0DDFT6o+09aavvTf3YLBnxsUbpRNQQJ1ZNeDdAgAAxgJZABzSAgsb0dfzFTzxRGCX9ninANi4cRrG0h+VjiEmEgaagrfT8ZLMlmAfHxoLdn1Dct5RvdXbQ0upwO+rEwLwv5HPduPx7kXSYZzgnQJg39BPUSh4+wPvpCmv2G87MOZnn/fmzmblEg7OfA3ylotiL3r7iaBYlE7glkWwrUfR3/Mh6SDl5o0CYOX6OUimzV2PGY0A9TXSKRxRY4944zPmFCswS6HIY+aER7z9OrRgTAEAAJXQ+AH6er8dpFcC3rg527kfo1gM3uPveE0N1sS/w0XtgA8TKm9cQhQ8NSrr7dGzYK0CGCf9SeSzG9DfP1U6STnI371WrF2AZOpc6RhiotHSgT9EROQH50AXN2LzZt8vV5cvAFD8Hoq2uU//TbWBfPdPRBRg8xBSD+PxnvOlg0yGbAGwZk0DkmlzD2UIh4FaziInIvKhethYi97ed0oHmSjZAsDGnZ49+tINjTWAxad/IiKfikHpB9Df817pIBMh1/lqbWEs48u/tLJQKrAz/4mIDBKFxk/Qt/ky6SAnSq4A6Oz6P8jnA7Oc4oTVVgEhc7c9ICIKkDCgfoL+zZdIBzkRcgVAOvcpsba9oIFP/0REARKFVr9A/+Y3SgcZL5ldTFasXYDRA7NE2vaCeBSoiEunCAT12J2yAR6TbV6afv/KSf159ZO3G90+BU4FtPoV+vvPQUvLU9JhjkdmBEAV/w3ePejSeXVV0gmIiMgZDdDF1diyxfPHoMsUAJmsr96TlJVSQA2X/hERBdg8FPO/8Pq2we4XAJ3rLkI2b+4JKhXx0sl/REQUZOcgn7tNOsSxuF8A5HOfd71NL6nl8D8RkRn0p9HX80HpFEfjfgGQyftmhqQjqhPSCYiIyD3fQn//adIhjsTdAqCr6zxkc+b2gBUxDv8TEZmlEij+GN3dEekgr+ZuAZC3P+1qe15TZW7tQ0RkLI0OhK0vScd4NXcLgGzuTa625zU89peIyFRfwOOb26VDHM69AmDDhjiyuemutec1lgXEY9IpiIhIRghF9T0vvQpwrwDI5D+Mom3u0XeV3PmPiMhoCmcgpD4nHeMQ9wqAYt7ck/8AIGHu1gdERHSQUjehu7tZOgbgZgGQtxe51pYXVbEAICIiVCFi3SIdAnCzAMjmp7jWltdYCoh5ekdIIiJyi8YH0dPTIR3DnQKgc/35KBbljh6WFouWzgAgIiICLFj6X+RDuKGYv8yVdryKR/8SEdErqLeir/s8yQTubEtX1J5a++i6OIf/naLPuk42wHxzD7YsB/3+lUa3T6azbgawTKx1V1opFue50o5Xcf0/ERG91pvR07NUqnF3CoB8scmVdrwq6pl9H4iIyEsUbpBq2vkCYMWKBPJ5cx+BwyEgZO78RyIiOgaFd2Pz5lMkmna+Z4pWnAutHW/Gs/j0T0RERxdCSF0j0bDzBYCt3+B4G17GAoCIiI7tw3jmGddHyl0oAOzTHG/DyyLuLLQgIiLfasLY2F+73agLBUBxruNteFk4JJ2AiIg8T3/U7RadLwA0PHHogZiQ2QVAzgr4/E9tSyeggBrRsax0hmPi7qblpXAhNm1qdLNJFwoAXeN4G15m+CuAEasm2D2kXZBOQAH1QqEmKZ3hmLi6qdwiiEff7WaDzv8LFu2E4214meEXybPxk739FDNZhbR0AgqotemThqUzHFPU7IcbR2j7cjebc2MVgNkb4VtmFwCbIi0HpDM4KjsinYACakVynrdHz2IBf70nQr0JTzxR5VZrLrwCsM3eCF+ZXQD8vOJNo9IZHJUelE5AAdU91lgvneGYqiqkEwRRDIWMa2cDuDEHwOxZcJbZE2UeDp3enLIqpWM4J7UX0EXpFBQwe+1EKpmyG6RzHJVlAVVmv911kGsnjLnxeGp2D2j2Tw8NVXV3/ZV7pHM4xi4Co7ukU1DAXLnn0h2wbe/ePWqrjH+96Rit3uJWU/wXJMf9feLjhTwCvCPi8PMADN7umspqVEeSGwYaT5bOcVRKAU3efjvhc6ehu9uVA/ScLwC8W8OSS5KIz/xS0+d2SOdwTD4FDG+TTkEBsfSlK3cjX/DuFPvGOq4AcJZCxDrHjYY4AkCu+HLFlU2PVC0N7pq5wWeAjLdXbZH33Tay+KUn9kXnS+c4qoo4MJVP/47TCEgBoDk2SgCA+Jvr7khtj80O5ow5bQO7e4FCRjoJ+VR3btrQ51/omO7ZO2Y4DMyexh0A3aBxhhvNOF8AWMrsrdJsby/ldVNehRpbm+7duSM6O5h/KcUssHsziwA6YQ/nZgwteeZdlSgUvTkqGwkDc5qN39nUNSooBQCsvPNteJjt1XJexqBVddLJ034x8mD1m4LZS2ZHgR2PABnuD0Djc/vI4p3nPflXtXau4M09UyriwMmzgLg34wXUTDfOBXBjBCDneBtexhGA18gjVLes7nb1uan/9ELScm3TK/cUc8BL3cDgs9wjgI5qVEeSC7f/zfM3PN82E0UPPvkrBUypB+bN4KmmEiKRU51uwoUCAMGd+DUeLACOJva12Lvm1DdvGLi18dpdgSsEtA0MPQu88Htg5EUWAvQXe+1EatlL732m5omPxf60P3ay5975WxZQXwOcchIwtYHv/KUoNc/xJpxuAL/+TR9G0y2Ot+NVs6cDNQHeCa9MFHRyaeGpne/J/a5maaavdn5uW6yuOGxF7YCcJWSFgMRUoKIBiFUD4QRghY3fKjroxnQkt7VQN7YuO3v4V6Pz7c1jDfXJlN3gmU1+lCodWBYJAxUxoDJR2uKXm/zIU+of0NL2r0424cIIQMjsbdKKZs+BHC8F6BBsFUYRFgClNVSgRk/UwXJb4S91N5+sAs+CUgpahTVUGBpKKe25vVH0Yb9qzT2tPMOe63QLzk/ptPCi4214WZ5Dv8dSpdM7b0ndHf7Y8P3TEnZygXSesotUAvXzgKpmQPE9qmkSKhd5Q2R//Rsi++uvq+4BAOwvVqSv2ve2nesGpszRuYLsFplaA8UikC4C6SwwNFI6v6S2GmiqA6IB3sHT89RUp1twYU1H6Dnn2/CwAkcAjkRBZ25K3zdw0/6vzwwjgH9HVgioXwDUzQG3w6TDNYXSFWun/+KU1LRI4dydl2/t25+YB+2hKx+2OwAAIABJREFUx25blwqB4VGgoa608Y/hh5qJ0CoAqwBCutvxNrwsG8DObZISyO7o3/cR9cX9Xw1m5x9JADOXAnVzwc6fjiah8uHeWffNu21+z3aELe+979IaGBgCXtgJFDiS6T7t+HkAzhcABw48ZPQ9MGf2Ngiv1qhHtm3b9c4ZizJbYtJZHBGrAWaeDUQDtqqBHPO56p7ZD5+6atCKRbw54zWVBZ7fAWTMXtEtoM7pBpwvAK64IodI1JsfbDcUCkDRe8W9hASyO/68+4qTphT2BnOKcSQBNHcAIW6YQifmnNjOpkdO+XUK4ZA3bxb5AvDCrtKv5BbHH5LcuRGHQ2Zvi5bnKIDSyD60/9qmwHb+ygKmt7HzpwlbEn2p/q65j+7y7OqQQgHYvhuemq8QbEEpAKxtrrTjVRlzB0AOuSlz7/62dG9cOodjGk4FotXSKcjnrq7eMvO0huwL0jmOKp0F9vHUS5cEpQCIPORKO15l+LuzKp3eedP+r8+UzuGYSOXB2f5Ek/e7Wb+Y4slJgYcMDHNSYEC4UwBo/MKVdrzK8BGAW1J3hwM52/+Q+nngbH8ql2lWMvHGpqGt0jmOyraBfUPSKUzgeMfhTgFw6UUbEfJwReu0dM7Y92ZK6dGPDd8/TTqHY6xwaZMfojL6+bRVzQhZ3r1pDI9ycrPzAlIAAEA0ut+1trzGtoGsmRMBz8v/eXfCTkrHcE7lFO7wR2U31UolKiss706etm1gLCWdIugCVABEwr2uteVFKTMPRXxv7sFgz4yLO75ZFxnqzKoB7xYAAJA0857mIsdnW7pZANzvWltelMxIJxCxJLOlVjqDo2LBrm9Izjuqtnp7aClr9twmF+xzugH3CoCRoXs9/U7LaSkzC4D52eeDuePfIeEK6QQUUBfFX3R8J7hJyQV4Yq8XKDg+AuReAXDFFTnEo3tca89rCgUjVwPU2CPB3PjnEMuF87TISHPCI5XSGY6JkwAdpvc63YK7N+dI5Heutuc1o+ZNmonaAS96VLDrG5JTo7LeHj0zdGWTe5zfQM/du1c4+u+utuc1BhYAREQ0EdrxvSDcLQAufstmxKIBXhN2HOkMUOQOWkREdBxFbHO6CffHL2ORh11v00sOmFv/EBHROMViTzndhPsFQCR6u+ttesmBMekERETkbTuwcGGAVgEccsmFa4x/DcAztYmI6GgUHnejGZkpzPHYSpF2vUBrjgIQEdHR6SAXABWR/2v04WnDI9IJiIjIq5R+xI1mZHYxueCC5/CrFTuRzAT3jPhjyeZLWwNXxqWT+J567E7ZAI/JNi9Nv39yg3nqJ283un2iI9DIFFwpAOR2MYlHzJ4MyFEAIiJ6rT9jyZIBNxqSKwAuvvg2RCNmbpAPlOYBcE8AIiJ6BbXBrZbkCgClNBKJn4m1L01rYPCAdAoiIvIUe41bLcluZG5HbjD6hMDBEcA298cnIqJXyEKFDRgBAIB3LNuPqoS5BwQVisCBUekURETkDQ+ipcW1fXLkjzLT4Q/DMngUYP+wdAIiIvKGB9xsTL4AeMdFL6Iq/pB0DDG5PDDMUQAiIsPlEYn9ys0G5QsAAIhWfdjouQB7B3m2NhGR0fRaN/b/P5w3CoCL37QVlRW/lY4hJl/gKAARkcmU+r7bTXqjAACAiHUFomFzT8nZOwjYtnQKIiJy334kqle43ah3CoBLLhlEVeJ70jHEFIqcEEhEZCKl78GCBVm3m/VOAQAA8einEYumpGOIGRgG8nnpFERE5J4ilH2XRMPeKgCWLSsgkbgOytCjAm0N7HZlC2giIvIE9V8448znJVr2VgEAAJde9D1UVfxROoaYkSQw6to+EEREJEnZYgfjea8AAABlX4JI2NyTcl7axwmBRETB91u0tG+Uaty7Y+0rO/8fhke+IB1DTEMt0NwknWLS9PbF0hGcNf8S6QQUYKr349IRjm3hfOkE/qbVeWhre1iqeW+OAADA2y/+X6is2CYdQ8zgAWDM3PmQRESBprFasvMHvFwAAEBF5HxEIubuDfDSPqBo7psQIqKAsmHZ/ygdwtsFwMUXb0d1xfXSMcTkC6UigIiIguQetHT0SIfwdgEAAG+7+D9QXSU6TCJqJMltgomIAkOPIlIQf/oH/FAAAMCuF5ehImbuAvld+4B0TjoFERFNmvoiFp61WzoF4JcC4Oqr86itXIKIoWcF2BrYsZtLA4mI/K0fBfsO6RCH+KMAAIALLngONVUfNnaXwFwe2LmXxwYTEflTAZb+ODo6PLPfu38KAAC45KL7UFf9LekYYkaSpVMDfSRnxaQjOEtzVIacMaJjrh8Oc0JMfRibKKX+DWe0b5aOcTh/FQAAcOnF16I2sU46hpj9w8DgiHSKcRuxaoLdQ9pmvpUi571QqPH2nuAh/3Ufgv6AfPGL0iFezZ//gn/19otQWfFn6Rhidu/3zSZBz8VO9vZTzGQV0tIJKKDWpk/y9vng0bB0Ar9IQoU+6KWh/0P8WQAAQG3lYlTEzFwkrzWwfQ+Q8n7fujHackA6g6Oy/hmNIX9ZkZzn7dGzWMBf75WLVp9ES8tT0jGOxL8FwLJlGSSip6MiPiQdRYRtAy+8BGS8XQT8vOJNwd7EIO2vORnkH91jjfXSGY6pqkI6gR/cgba2+6RDHI1/CwAAuOSSQVRGT0dFPNhPmUdj28ALu4Ccd/cIeDh0enPKqpSO4ZzUXkBzu2Yqr712IpVM2Q3SOY7KsoCqhHQKj1MPoWDfKJ3iWPxdAADAxRfvRQQLEY+MSUcRUSgCW18Csp57vQQA0FBVd9dfuUc6h2PsIjC6SzoFBcyVey7dAdv27jT72qpSEUBHpvEcbH2ZF9/7Hy4Y/4LveMdONNQuQEXczPHYQhHYthPIeHMk4O8THy/kEZGO4Zzh5wFwfwYqj1EdSW4YaDxZOsdRKQU0efvthCiNASjrUixe7Pk5asEoAABg2bLdqC/MR2XcE1ssuq5Q9OycgCTiM7/U9Lkd0jkck08Bw9ukU1BALH3pyt3IF7w7xb6xjisAji4FqHeitfVp6SDjEZwCAACWvXsYufQcVCV88ZdfdodeB3hwieCXK65seqRqaXDXzA0+A2S8vWqLvO+2A4tfemJfdL50jqOqiANT+fR/FDlodTna2nxzeJ133zFNhtYWVneuxdDoBdJRxMyYAtTXSKd4hQiK+5/fe1n9rOz2kHQWR4RiwKylQDgunYR8aGN++tDSJ/+6FoWiNx/MwmHg5JlAhE//R1AA9BVobf+ldJAT4c0P2mQpZePSSy5EY+03jN2u8qV9wJ5BT50dkEeoqaXp3p07orO9vb55oopZYPdmoJCRTkI+83BuxtC5T7+z0rOdfyQMzGlm539kWWh1ud86fyCoIwCH6+z6GIZGvoOi7c0Ly2nVCWDWNE/N2I3o4sCDBz6bOGf04WAuJA5FgemtQNy7q7jIO24fWbzzhm0dzSh6tPOviAMnTQfCwRy4m6QUoC9Da3undJCJCH4BAAAr17Yim9mAdLZOOoqIaLR0Acc8NRM/+9nsr3Z/ef9tcyrtAK7gVBZQdzJQPw9QvHHSa43qSPLsHe/b86eB2MmeXESiFNBUB0yp58E/R6IxAKh3+umd/6uZ86/6wANRJGq6MDJ2vpeGxV2jFDCtoTSD10MidnHgXzP35D419MPmQBYCoRjQMB+onslCgACUNvl53+5Ldz442DjPk7P9Lau0zr+pnrP9j0bjOSjrUr/M9j8acwqAQ1Z2/j1Gk1/27HCb0+qqgeYmT70SAAAFnVxaeGrne3K/q1ma6audn9sWqysOW1Hbe8saJ8QKAYmpQEUDEKsGwgnACpdGCiiwxnQkt7VQN7YuO3v4V6Pz7c1jDfXJlN3gmU1+lCqd6hcJAxUxoDJR2uLXY/cHb1EPwdaX+WGd//GY96/89otvQWXV6aiqeFE6iojhUeC5HUDSYxPVFGwLGmEUYQFQWkPZQZorqA6W2wp/qbs5rBp4FpRS0CqsocLQGkppTz12aV3aw+ovXzb3tDq2O1AoviUInT9g4gjA4Vau+SpGU581djSgvgaY3iha7Vcis+Mrye9GPjZ8/7SE7e3jzyckUlmaB1DVzFcABADYb1ek3r/nkp3rB6bO1fmCpybmACgVpvU1pXf/nPh3yBi0ugZtbfdKByknswsAAFi17vXIZ36NsbR3N99wUjQCzGgqDf25SEFn/jHzk33/tO9rs8MouNq2K6wQUL8AqJsDXmZ0JCkdzZ/z0uXb+/dVnOzJeUmWKs0Z4iTAx6DV36Ct7RnpIOVm9L/qK6zuvBZj6a8ilzdzF5fqRGluQMT5B5JKZHY+OnB106LUlmAeKB5JANMXA9Eq6STkA18daX/+xhcWz0XBo0uVK6LAbCP3AChA6/+Hol7u9UN9JooFwOE2bIgjmbkPY6l3oeiRSTpusqzSsp/GulL174BGPbLtz7uvOGlKYa83b3aTFasBmjtKewEQjdMj2Rl7z3vur2t1Nu/Nojh8cCOguDGf6x7A+gRaW3ulgzjJvE5uPNaunYGC/hFGkstQLJr3dxQKAVPqyr5ksBKZnVt3vas5sJ1/JAHMPJudP03Io9nmvec8/Y4mz+4GaMRWwHoUUF/E0IGvY9myAL6bfCXzOrcTsW71GUjbP8ZoepEn39E5LRYtvf+rnfxQtoLO9O//qFqUftybTziTpazSOQDRaukk5GO3jbS/8PnnW+d4diZ+RQyYNzOIcwJsAN9HpPAPWHiWMSfKBu5f0RGdnW9A3r4LY+lzjBwRiEaAhhqgvnbCrwZuyty3/Uv7bp1d5mTe0Xg6UDdXOgUFwGnbP7Tt6f2RudI5jmpqQ+nBIDjWQNn/gJaOHukgbjOvM5uMzs7ZyBe/g3T2AuQ8uIOX0yJhoKEWqK8uvSYYp0pkdgxvP39WIGf7A6WlfiedB15OVA57ilXJ6X96f4VnJwVaCjjlpCC8CvgttLoJbW2PSAeR4s0PmFddfPF2/NWll2BwbwJNdTehMrFLOpKr8gVgzwDw1AvA9j1AMj2uP/aV5Hcjge38gdI6f3b+VCbTQmOVb2wafl46x1HZGtg3JJ1ioopQ+BlgLUHr4gtM7vwB3rUmr6vrPGTyy5HJn4dcLpjvt48lHgVqq0vzBI7wRKCUHh3bcX51IDf5AUrb+c5dxk1+qKz22pXJaVuuSnhmy+BXsyzg1DmlbYT9YS+0/iFC9rdwxpneLa5c5vsxHHEXXfQQgAsBAJ3r3odc/gakM4s9eciHEzI5IDMA7B0EEvFSIVCdKM0YBnBu/sldCTsZ3JlxlVPY+VPZTbWSlZUJayA5ZjdKZzki2waSKaDG03td5ADdBaW+j3Ds11i4MCcdyGvM6KTccvGF9wO4HwDQ1fV2ZAufQi5/rhHHEGtdeiVw6LVARQyoqcTFsUeC/bPHvXl/Jv87s2pg8MGxWu9+wMbSXiwAsgAehMLPEI79EgsXDkoH8jIWAE656KKVAFYCADaum4YhfAzF/NuQyy9CJlcX+GWF6SyQzmJm045a6SiOigV3cINkvaN6q/Xg7lbpGEeX9cRJnRoKTwJ6AzRWQ4U3oKUloO8by48FgBvOvnAPgFsOfgEbN9ZgeOSdsIsXoGC3Il+Yi3yxJohLDM8r9HvvsJNyCldIJ6CAuij2Yj3g4QIgJzKxdwc0tkChHwqPIpN/GEuWDEgECQIWABLOPnsEwI8Ofr2ss3MetLUUtl4Mu/g62LoZtl0HW1fDthOw7QhsHcKhyZs+KBiasc83s4QmxOIlRM6YEx6plM4AoDThTx08zjpklZYAh0JApFxzX/QooAoA8lAYgFYDUHoA0HsBaxtsbIPWWxEOP4kzzvDt8gMv8nwHQv6mV3h2T7PymH+JdAIKMPX6NbxHk2OC/XRGRERER8QCgIiIyEAsAIiIiAzEAoCIiMhALACIiIgMxAKAiIjIQCwAiIiIDMRdTMjX1GN3ygZ4TLZ5afr9Kyf159VP3m50+0SSOAJARERkIBYAREREBmIBQEREZCAWAERERAZiAUBERGQgFgBEREQGYgFARERkIBYAREREBmIBQEREZCAWAERERAZiAUBERGQgFgBEREQGYgFARERkIBYAREREBmIBQEREZCAlHYCCTa+Als7gqPmXSCegAFOvX8N7NDmGIwBEREQGYgFARERkIBYAREREBmIBQEREZCAWAERERAZiAUBERGQgFgBEREQGYgFAzlIB/4hpWzoBBVdWOgAFW8DvziROhYLdQ9oF6QQUVAoHpCNQsLEAIGeF42npCI4qBPvHI0Eaz0tHoGBjAUDOCse2S0dwVHZEOgEFlUK/dAQKNhYA5KxQvEs6gqPSg9IJKKhsrJeOQMHGAoCcFY/8C1RIOoVzUnsBXZROQcGTBDKrpUNQsLEAIEeps7fuQUX909I5HGMXgdFd0ikocPR9auGDY9IpKNhYAJDzQtWfCfTJ08PPAwE/9ZhclUM4/BXpEBR8LADIcerNW7tQOfUx6RyOyaeA4W3SKSgoNG5Tp67kCgByHAsAckd9xcWIVQd3SHPwGSAzLJ2C/O9RRNVy6RBkBhYA5ArVtm0Y8aZzEY4Fc8actoHdvUAhI52E/OslhMKXqwWruQMguYIFALlGnb/1cVTOuBKhgBYBxSywezOLAJqI7VDWJeq03+yUDkLmCPDMLPIq3X3q6RjYvRG5kVrpLI4IRYHprUC8QToJ+cOj0NZlauGq3dJByCwsAEiE3nhKDVJjK5Dad34g19ErC6g7Gaifh0Dvg0CTkYPGVxFVX+SwP0lgAUCi9O/nnYH86H1IDy0MZCEQigEN84HqmSwE6JAkNO5FJPRvnO1PklgAkCfojfOmIZv/exQzFyGfPQnFbAJ2wQrMcbtWCEhMBSoagFg1EE4AVjj4xyVTDgrD0HorYPVC2xuA7Cpu8kNewAKAvO2mOye3w87N103uMy7d/mQxv9n//kTHwMcPIiIiA7EAICIiMhALACIiIgOxACAiIjIQCwAiIiIDsQAgIiIyEAsAIiIiA7EAICIiMhALACIiIgOxACAiIjIQCwAiIiIDsQAgIiIyEAsAIiIiA7EAICIiMhALACIiIgOxACAiIjIQCwAiIiIDsQAgIiIyEAsAIiIiA7EAICIiMhALACIiIgOxACAiIjIQCwAiIiIDhaUDjMsTj01HLvIWKL0E0KcD6mQAjQCqDv6OMQD7ATwHpZ6Eth9FKPo7LFq0RywzERH53/j6nwFAPw+oJ6GwEeHCBiw8a7dc6PHxbgGwaVMj4pEPAPgg8uiA0gf/D3Wk311/8GsBtL4EUJ9FMQ/09zwKW9+LaPwnWLhw0K3oRETkYxPqf9QpAN4Kjb9DPgz09fwBwI+Qzd+HJUsGXEp+QrxXAPT3z4JduBFK/S00EpP6XhpLodRS5LNfQV/Pf8LGV7F48UtlSkpEREFSzv4HOBPAmYhFbkF/73eg1a1obd1Zjpjl4p05AN3dEfT3Xg9d/DOUuh6Y9F/+4aoA3AALz6B383I880ysjN+biIj8zNn+pxJafxawn/Za/+ONAqC//zSErT9A66/h5fcqTkhAqX9GcvQR9PYucLAdIiLyA/f7n43o6zvVwXbGTb4A6O95D3SxG0CLi60uhrI3o7f3nS62SUREXiLT/7QCxW70bX63i20ekWwB0Nv7EWj8FM5WXUehqqH0f6Fv89Xut01ERKKk+x+on6Gv5xr3236ZXAHQt/lqKH0PZCcihgB1F/o2f0YwAxERuckz/Q++hb6e66QCyBQA/T3vAdQ3Rdo+IvU19Pf8tXQKIiJymOf6H9yO3t53STTsfgGwefMp0PgeStWPV4SgcS/6+0+TDkJERA7xav+j9I/wePfpbjfsbgHwxBNRhNTPAdS42u74VEEX70V3d0Q6CBERlZnX+x9b3ed2/+NuAZDP3gB3Z1ueqHaErb+TDkFERGXm+f5HtSESut7NFt0rAPr6ZgL4R9famzD9z+jubpZOQUREZeKX/ke72/+4VwDo4hcAVLrW3oSpaoTUDdIpiIioTHzT/6AKYetGtxpzpwDYtKkRSv2tK22Vg1LX4IknGqRjEBHRJPmt/wGuxqZNjW405E4BUDpVqZx7KzutCrncldIhiIhokvzX/1QiGnal/3FrE4QPutRO+QyNfBM33emltaJE5Dc33amP/5vIUYNjQL3AZn+TodSHADje/zg/AtDd3QyNdsfbKbf6aiDGFYFERL4VjwJ1Puv8S87Eli3TnG7E+QIgFFoGQDneTrkpAFNqpVMQEdFETan1Y+8DAArF3JudbsT5AkDpJY634ZSGaukEREQ0UQ2+fPovUdbZTjfhwiRA7fr2hmVTXSGdgIiIJsrP93BbO741vQsFgHWK8204pCounYCIiCaqyk+T/19FYYHTTbgxAlDnfBsOiXISIBGRb0XkTrwvA8f7Tjf+dvz7Eibk6w8PEZHZwl469O+EOT4JjT0cBdmIdADyOzUqnYDIKW4UAGMutOGMoi2dgCZD40XpCOR3ert0ApqEQlE6wWQ4Xnw6XwBoDDnehlPyBekENBlKr5WOQD6n0CUdgSYh5+sCYNjpBtzYB+A5x9twymhaOgFNXBEh3C0dgnzOsr8LwNe9iNGSPr6HazzjdBMuvAJQTzrfhkPGMtIJaMLUN7H87/4knYJ8bvn1f4TSd0nHoAny80OcpZ5yvAmnG4DCRsfbcMrAAekENDHrsCfi2pnaFHDW4A2AXi8dgyZg0L9T0KDtR51uwvkCwIr8FoD/TsTSAPZzArDPFAF1B/ZEL8V/Xp2XDkMBsXx5DqHBSwF8A3wd4C/7Dvix9wEAjVD0d0434nwBsGjRHgDdjrdTboOjQCYnnYKObwwafwT0bQjpM3DzZ65n509lt3x5Djdfdx2gWqBwe+kz5+MVTqbI5IBhX/4zbTrYdzoq7HQDB/0IwJkutVUeDTWfxs3X/Yd0DCLykJs/8wSAG6Rj0Al4T891AO6QjnFCtPqRG824sxFQNn8fgKQrbZVHErnc/dIhiIhoktj/HJU7BcCSJQNQ6juutFUed2HJkgHpEERENEnsf47Kva2AtboVvqjC9CgihVulUxARUZmw/zki9wqA1tadAG52rb0JU1/EwrN2S6cgIqIyYf9zRO4eBlSwbwN0r6ttnpgeFGx/TRYhIqLjY//zGu4WAB0deRRxBbx5StsYVOgqdHRwCRkRUdCw/3kN948Dbm9/FtAfgbc21ChC4QNoaXF860UiIhLC/ucV3C8AAKC1/ZeAvlak7dfSUOoatCz+tXQQIiJyGPufv5ApAACgtf0/odVHAUieuVsE9KfQ0vZdwQxEROQm9j8AJAsAAGhr+z60uhzQEpvuj0DhMrS2f1ugbSIiksT+R7gAAIC2tl9BW+0uz87sQVG3c9ifiMhghvc/8gUAALS1PYOhkbOg1GcdrsZS0PqLiMSWliaDEBGR0Qzuf7xRAADAsmUFtLR9HQV9GqBuR3l3bUoCuA2Rwny0tS/HwoU85o+IiEoM7X/cOg1w/Do6dgG4AZs2/Qti4fcD1t8A+iwA6gS/kwawCVr/GNH4T7Bw4WD5wxIRUWAY1v94rwA4pHQYwjcAfAP9/VOhC8ugrLOh9emAngeoKQCqDv7uMUDvA9RWKPUktL0RKrwBLS175X4AIiLyJUP6H+8WAIcr/UXef/CLnHTTnYsA9QlAXwBgLoBK4UREE3fTnVo6grAkgG1QWAfL/i6WX/9H6UC+E+D+xx8FADnvujtiqMft0Lga0N6ZG0JEk1EJYCE0FqJofQb/dMddsAZvwPLlnnkPTXJ4o6dS519nrYZWnwI/E0RBFYJWn0axcTWWL49KhyF5vNkTUKe+Buhl0jGIyBVvQbHxq9IhSB4LANPddOciAJ+UjkFErvoUbvrGQukQJIsFgPHUJ8DPAZFpQlD649IhSBZv/MbTF0onICIBNi6SjkCyWADQSdIBiEiAUnOkI5AsFgBUdfzfQhM0Ih3A/5TESW2G0NXSCUgWCwAip2i8KB3B//R26QREQcUCgMgpSq+VjuB7Cl3SEYiCigUAkTOKCOFu6RC+Z9nfBVCUjkEURCwAiByhvonlf/cn6RS+t/z6P0Lpu6RjEAURCwCi8luHPZEbpUMEhjV4A6DXS8cgChoWAETlUwTUHdgTvRT/eXVeOkxgLF+eQ2jwUpSOZ+XrAKIy4WmARJMzBo1tUHotQrgby6/jsL8TSqfXXYebvnEXlP44bFwEhbngMlaiCWMBQJNz83VKOgIZ5ObPPAHgBukYnnHTnVo6AvkXXwEQEREZiAUAERGRgVgAEBERGYgFABERkYFYABARERmIBQAREZGBWAAQEREZiPsAEAVdPAJMqQMaqoDqCqCqAoiEgXCo9P8XikC+AIylgdE0MDgG7BsGMtzMkCjIWAAQBdGmTY2IRz6AwTGg/jib5UXDpa/KODCt/uX/fWgMeE/Pdcjm78OSJQPOBiYit/EVAFGQ9PfPQu/mryEWeREaXz9u538spT97B2KRF9Dfezv6+maWKyYRyWMBQBQE3d0R9PdeD138M5S6HkCijN+9Elp/FrCfRu/m5XjmmVgZvzcRCWEBQOR3/f2nIWz9AVp/Dc4ejpOAUv+M5OhG9PWd6mA7ROQCFgBEftbf8x7oYjeAFhdbbQWK3ejb/G4X2ySiMmMBQORXvb0fgcZPIXIkrqoG1M/Q13ON+20TUTmwACDyo77NV0PpeyC7kicE4Fvo67lOMAMRTRALACK/6e95D6C+KR3jMLejt/dd0iGI6MSwACDyk82bT4HG91B6+vaKEJT+ER7vPl06CBGNHwsAIr944okoQurnAGqkoxxBFWx1H7q7I9JBiGh8WAAQ+UU+ewPcne1/glQbIqHrpVMQ0fiwACDyg9IufP8oHeO4tP5ndHc3S8cgouNjAUDkB7r4BQCV0jHGoQph60bpEER0fCwAiLxu06ZGKPULFH5FAAAFkklEQVS30jFOwNXYtKlROgQRHRsLACKvi0c+gPLu7e+0SkTDV0qHIKJj43HAxPPive+D0gFOmFIfAuClvQqCi9cvTZCSDkBCXj4vfuJHxg6NAfVVf8fz4h3U3d2MsLUT/rtWNUKRZixatEc6SCDx+qUy8NtNhSarv38W7MKNB98pl2tYOQmlvgOtbkVr684yfU8CgN7eq6D0vdIxJkZfidb2+6VTBAqvXyojzgEwBc+L9yell0hHmDBlnS0dITB4/ZIDWACYgOfF+5j27/a6tj5NOkIg8Polh7AACDqeF+9z1inSCSZMYYF0BN/j9UsOYgEQZDwvPgB0nXSCSfBzdnm8fslhLACCiufFB4XAzb9sqqUD+BavX3IBC4Ag4nnxRP7F65dcwgIgaHhefNCMSQeYhFHpAL7D65dcxAIgSHhefPBoDElHmIRh6QC+wuuXXMYCIEh4XnzwKP2cdIQJ03hGOoKv8Poll7EACAqeFx9Q6knpBBNmqaekI/gGr18SwAIgKHhefDApbJSOMGHaflQ6gm/w+iUBPAsgCDZtakQs8iL8c2RsEtn8HB5AMg5btkxDMb8L/rtWeRjQePH6JSEcAQgCnhcfXKUOtFs6xgRsYuc/Trx+SQgLgGDw63nxND4/kg5wwrTyX2Y5vH5JBAsAv+vuboZGu3SMCTgTW7ZMkw7hC9n8fQCS0jFOQBK5HI8BHg9evySIBYDfhULL4L/3wwCgUMy9WTqELyxZMgClviMd4wTcxffD48TrlwSxAPA7nhdvBq1uhS9GAfQoIoVbpVP4Bq9fEsQCwPd4XrwRWlt3ArhZOsbxqS9i4Vm7pVP4B69fksMCwPd4XrwxCvZtgO6VjnEMPSjYd0iH8BdevySHBYDv8bx4Y3R05FHEFQBGpKMcwRhU6Cp0dOSlg/gLr1+SwwLA/3hevEna258F9EcAFKWjHKYIhQ+gpYVb/544Xr8khgUAkd+0tv8S0NdKxzhIQ6lr0LL419JBiOjEsADwP54Xb6LW9v+EVh8FUBBMUQT0p9DS9l3BDH7H65fEsADwO54Xb662tu9Dq8sBLXEjHoHCZWht/7ZA28HB65cEsQDwO54Xb7a2tl9BW+0urw7oQVG3c9i/DHj9kiAWAL7H8+KN19b2DIZGzoJSn3V4NCAFrb+ISGxpaTIiTR6vX5LDAsDveF48AcCyZQW0tH0dBX0aoG5HeXcNTAK4DZHCfLS1L8fChbkyfm+z8folQX7cg5oOx/Pi6Ug2bWpELPx+wPobQJ+FE/98aACboPWPEY3/BAsXDjqQknj9kiC/fejoSPp6HgNwpnSME7QRrYuXSocwQn//VOjCMijrbGh9OqDnAWoKXl6DPgbofYDaCqWehLY3QoU3oKVlr2RsY/D6JSFh6QBUFj+C324gPC/ePaWO/P6DX+Q9vH5JBOcABAHPiyfyL16/JIQFQBDwvHgi/+L1S0JYAAQFz4sn8i9evySABUBQ8Lx4Iv/i9UsCWAAECc+LJ/IvXr/kMi4DDJrNm09BSG0GUCMd5VXGoEIdPDKW6Bh4/ZKLOAIQNDwvnsi/eP2Si1gABBHPiyfyL16/5BIWAEHF8+KJ/IvXL7mAcwCCrrf3XVD2DwFV7XLLI1D4IJ8ciCaB1y85iAWACXp7F0DZ9wOqzaUWe1DU7+ORsURlwOuXHMJXACbgefFE/sXrlxzCEQDTdHc3Ixz6AqA/CaCyTN81CeDbiBT+nZuEEDmI1y+VEQsAU/G8eCL/4vVLZcACgHhePJGf8folIiIiIiIiIiIiIiIiIiIiIiIiIiIiIiIiIiIiIiIiIiIiIiIiIiIiIiIiIiIiIiIiIiIiIiIiIiIiIiIiIiIiIiIiIiIiIiIiIiIiIiIiIiIiIiIiIiIiIiIiIiIiIqIA+v//e33AKy3WQQAAAABJRU5ErkJggg==;" vertex="1" parent="1">
          <mxGeometry x="520" y="360" width="80" height="80" as="geometry" />
        </mxCell>
        <mxCell id="XoPRiA-ML8OkZGicO-Hc-24" value="&lt;font style=&quot;font-size: 12px;&quot;&gt;Serialised Telemetry &amp;amp;&lt;br style=&quot;border-color: var(--border-color);&quot;&gt;&lt;span style=&quot;background-color: rgb(255, 255, 255);&quot;&gt;Bike Commands&lt;/span&gt;&lt;/font&gt;" style="text;html=1;align=center;verticalAlign=middle;resizable=0;points=[];autosize=1;strokeColor=none;fillColor=none;fontStyle=1" vertex="1" parent="1">
          <mxGeometry x="380" y="330" width="150" height="40" as="geometry" />
        </mxCell>
        <mxCell id="XoPRiA-ML8OkZGicO-Hc-26" value="&lt;b&gt;Kafka (MSK)&lt;/b&gt;" style="text;html=1;align=center;verticalAlign=middle;resizable=0;points=[];autosize=1;strokeColor=none;fillColor=none;" vertex="1" parent="1">
          <mxGeometry x="890" y="110" width="90" height="30" as="geometry" />
        </mxCell>
        <mxCell id="XoPRiA-ML8OkZGicO-Hc-28" value="Serialised&lt;br&gt;Telemetry" style="text;html=1;align=center;verticalAlign=middle;resizable=0;points=[];autosize=1;strokeColor=none;fillColor=none;fontStyle=1" vertex="1" parent="1">
          <mxGeometry x="600" y="360" width="80" height="40" as="geometry" />
        </mxCell>
        <mxCell id="XoPRiA-ML8OkZGicO-Hc-29" value="&lt;b&gt;MQTT-Kafka Bridge&lt;br&gt;Flink Job&lt;br&gt;&lt;/b&gt;" style="text;html=1;align=center;verticalAlign=middle;resizable=0;points=[];autosize=1;strokeColor=none;fillColor=none;" vertex="1" parent="1">
          <mxGeometry x="655" y="440" width="130" height="40" as="geometry" />
        </mxCell>
        <mxCell id="XoPRiA-ML8OkZGicO-Hc-31" value="Deserialised&lt;br&gt;Telemetry" style="text;html=1;align=center;verticalAlign=middle;resizable=0;points=[];autosize=1;strokeColor=none;fillColor=none;fontStyle=1" vertex="1" parent="1">
          <mxGeometry x="630" y="273" width="90" height="40" as="geometry" />
        </mxCell>
        <mxCell id="XoPRiA-ML8OkZGicO-Hc-36" style="edgeStyle=orthogonalEdgeStyle;rounded=0;orthogonalLoop=1;jettySize=auto;html=1;entryX=0.5;entryY=1;entryDx=0;entryDy=0;entryPerimeter=0;" edge="1" parent="1" source="XoPRiA-ML8OkZGicO-Hc-33" target="XoPRiA-ML8OkZGicO-Hc-9">
          <mxGeometry relative="1" as="geometry" />
        </mxCell>
        <mxCell id="XoPRiA-ML8OkZGicO-Hc-37" value="Deserialised&lt;br&gt;Telemetry" style="text;html=1;align=center;verticalAlign=middle;resizable=0;points=[];autosize=1;strokeColor=none;fillColor=none;fontStyle=1" vertex="1" parent="1">
          <mxGeometry x="800" y="300" width="90" height="40" as="geometry" />
        </mxCell>
        <mxCell id="XoPRiA-ML8OkZGicO-Hc-40" value="&lt;b style=&quot;border-color: var(--border-color);&quot;&gt;Stateful Flink Jobs&lt;/b&gt;&lt;b&gt;&lt;br&gt;(Kubernetes Flink&lt;br&gt;Operator Managed)&lt;br&gt;&lt;/b&gt;" style="text;html=1;align=center;verticalAlign=middle;resizable=0;points=[];autosize=1;strokeColor=none;fillColor=none;" vertex="1" parent="1">
          <mxGeometry x="900" y="550" width="130" height="60" as="geometry" />
        </mxCell>
        <mxCell id="XoPRiA-ML8OkZGicO-Hc-45" value="&lt;b&gt;Latest Data Sink&lt;br&gt;(Redis - MemoryDB)&lt;br&gt;&lt;/b&gt;" style="text;html=1;align=center;verticalAlign=middle;resizable=0;points=[];autosize=1;strokeColor=none;fillColor=none;" vertex="1" parent="1">
          <mxGeometry x="1260" y="380" width="140" height="40" as="geometry" />
        </mxCell>
        <mxCell id="XoPRiA-ML8OkZGicO-Hc-47" value="&lt;b&gt;Trip Based Sink&lt;br&gt;(Cassandra - Keyspaces)&lt;br&gt;&lt;/b&gt;" style="text;html=1;align=center;verticalAlign=middle;resizable=0;points=[];autosize=1;strokeColor=none;fillColor=none;" vertex="1" parent="1">
          <mxGeometry x="1260" y="500" width="170" height="40" as="geometry" />
        </mxCell>
        <mxCell id="XoPRiA-ML8OkZGicO-Hc-48" value="&lt;b&gt;Raw Telemetry Sink&lt;br&gt;(S3)&lt;br&gt;&lt;/b&gt;" style="text;html=1;align=center;verticalAlign=middle;resizable=0;points=[];autosize=1;strokeColor=none;fillColor=none;" vertex="1" parent="1">
          <mxGeometry x="1260" y="620" width="140" height="40" as="geometry" />
        </mxCell>
        <mxCell id="XoPRiA-ML8OkZGicO-Hc-50" value="&lt;b&gt;Deserialised Telemetry&lt;br&gt;Sink Topic&lt;br&gt;&lt;/b&gt;" style="text;html=1;align=center;verticalAlign=middle;resizable=0;points=[];autosize=1;strokeColor=none;fillColor=none;" vertex="1" parent="1">
          <mxGeometry x="725" y="150" width="150" height="40" as="geometry" />
        </mxCell>
        <mxCell id="XoPRiA-ML8OkZGicO-Hc-51" value="&lt;b&gt;Locations Telemetry&lt;br&gt;Sink Topic&lt;br&gt;&lt;/b&gt;" style="text;html=1;align=center;verticalAlign=middle;resizable=0;points=[];autosize=1;strokeColor=none;fillColor=none;" vertex="1" parent="1">
          <mxGeometry x="870" y="150" width="140" height="40" as="geometry" />
        </mxCell>
        <mxCell id="XoPRiA-ML8OkZGicO-Hc-53" value="&lt;b&gt;Raw Telemetry&lt;br&gt;Query Engine&lt;br&gt;(Athena)&lt;br&gt;&lt;/b&gt;" style="text;html=1;align=center;verticalAlign=middle;resizable=0;points=[];autosize=1;strokeColor=none;fillColor=none;" vertex="1" parent="1">
          <mxGeometry x="1260" y="730" width="110" height="60" as="geometry" />
        </mxCell>
        <mxCell id="XoPRiA-ML8OkZGicO-Hc-55" value="" style="sketch=0;points=[[0,0,0],[0.25,0,0],[0.5,0,0],[0.75,0,0],[1,0,0],[0,1,0],[0.25,1,0],[0.5,1,0],[0.75,1,0],[1,1,0],[0,0.25,0],[0,0.5,0],[0,0.75,0],[1,0.25,0],[1,0.5,0],[1,0.75,0]];outlineConnect=0;fontColor=#232F3E;gradientColor=#F78E04;gradientDirection=north;fillColor=#D05C17;strokeColor=#ffffff;dashed=0;verticalLabelPosition=bottom;verticalAlign=top;align=center;html=1;fontSize=12;fontStyle=0;aspect=fixed;shape=mxgraph.aws4.resourceIcon;resIcon=mxgraph.aws4.ec2;" vertex="1" parent="1">
          <mxGeometry x="590" y="660" width="80" height="80" as="geometry" />
        </mxCell>
        <mxCell id="XoPRiA-ML8OkZGicO-Hc-56" value="&lt;b&gt;Scaled Backend Services (Golang)&lt;br&gt;(EKS Maintained)&lt;br&gt;&lt;/b&gt;" style="text;html=1;align=center;verticalAlign=middle;resizable=0;points=[];autosize=1;strokeColor=none;fillColor=none;" vertex="1" parent="1">
          <mxGeometry x="570" y="760" width="220" height="40" as="geometry" />
        </mxCell>
        <mxCell id="XoPRiA-ML8OkZGicO-Hc-58" value="&lt;b&gt;Bike Commands&lt;/b&gt;" style="text;html=1;align=center;verticalAlign=middle;resizable=0;points=[];autosize=1;strokeColor=none;fillColor=none;" vertex="1" parent="1">
          <mxGeometry x="560" y="490" width="120" height="30" as="geometry" />
        </mxCell>
        <mxCell id="XoPRiA-ML8OkZGicO-Hc-59" value="&lt;b&gt;Customers&lt;br&gt;Bicycle&lt;/b&gt;" style="text;html=1;align=center;verticalAlign=middle;resizable=0;points=[];autosize=1;strokeColor=none;fillColor=none;" vertex="1" parent="1">
          <mxGeometry x="245" y="220" width="90" height="40" as="geometry" />
        </mxCell>
        <mxCell id="XoPRiA-ML8OkZGicO-Hc-60" value="&lt;b&gt;Customers&lt;br&gt;Phone&lt;br&gt;&lt;/b&gt;" style="text;html=1;align=center;verticalAlign=middle;resizable=0;points=[];autosize=1;strokeColor=none;fillColor=none;" vertex="1" parent="1">
          <mxGeometry x="245" y="380" width="90" height="40" as="geometry" />
        </mxCell>
        <mxCell id="XoPRiA-ML8OkZGicO-Hc-61" value="&lt;b&gt;Analytics&lt;br&gt;Dashboard&lt;br&gt;(Internal)&lt;br&gt;&lt;/b&gt;" style="text;html=1;align=center;verticalAlign=middle;resizable=0;points=[];autosize=1;strokeColor=none;fillColor=none;" vertex="1" parent="1">
          <mxGeometry x="245" y="620" width="90" height="60" as="geometry" />
        </mxCell>
        <mxCell id="XoPRiA-ML8OkZGicO-Hc-63" value="&lt;b&gt;1. Locations Telemetry for Customer Map&lt;br&gt;2. Latest Data for Customer Odometer&lt;br&gt;3. Raw Telemetry Queries for Analytics&lt;br&gt;&lt;/b&gt;" style="text;html=1;align=center;verticalAlign=middle;resizable=1;points=[];autosize=1;strokeColor=none;fillColor=none;movable=1;rotatable=1;deletable=1;editable=1;locked=0;connectable=1;" vertex="1" parent="1">
          <mxGeometry x="810" y="650" width="260" height="60" as="geometry" />
        </mxCell>
        <mxCell id="XoPRiA-ML8OkZGicO-Hc-69" value="&lt;b&gt;Raw Telemetry&lt;br&gt;Queries +&lt;br&gt;Responses&lt;br&gt;(Rest API)&lt;br&gt;&lt;/b&gt;" style="text;html=1;align=center;verticalAlign=middle;resizable=0;points=[];autosize=1;strokeColor=none;fillColor=none;" vertex="1" parent="1">
          <mxGeometry x="410" y="650" width="110" height="70" as="geometry" />
        </mxCell>
        <mxCell id="XoPRiA-ML8OkZGicO-Hc-70" value="&lt;b&gt;MQTT&lt;/b&gt;" style="text;html=1;align=center;verticalAlign=middle;resizable=0;points=[];autosize=1;strokeColor=none;fillColor=none;" vertex="1" parent="1">
          <mxGeometry x="430" y="400" width="60" height="30" as="geometry" />
        </mxCell>
        <mxCell id="XoPRiA-ML8OkZGicO-Hc-72" value="&lt;b&gt;Customer Rest APIs&lt;/b&gt;" style="text;html=1;align=center;verticalAlign=middle;resizable=0;points=[];autosize=1;strokeColor=none;fillColor=none;" vertex="1" parent="1">
          <mxGeometry x="380" y="560" width="140" height="30" as="geometry" />
        </mxCell>
        <mxCell id="XoPRiA-ML8OkZGicO-Hc-74" value="&lt;b&gt;Kubernetes Cluster (EKS)&lt;/b&gt;" style="text;html=1;align=center;verticalAlign=middle;resizable=0;points=[];autosize=1;strokeColor=none;fillColor=none;" vertex="1" parent="1">
          <mxGeometry x="900" y="800" width="170" height="30" as="geometry" />
        </mxCell>
        <mxCell id="XoPRiA-ML8OkZGicO-Hc-76" value="&lt;b&gt;AWS Virtual Private Cloud&lt;/b&gt;" style="text;html=1;align=center;verticalAlign=middle;resizable=0;points=[];autosize=1;strokeColor=none;fillColor=none;" vertex="1" parent="1">
          <mxGeometry x="1200" y="840" width="170" height="30" as="geometry" />
        </mxCell>
        <mxCell id="XoPRiA-ML8OkZGicO-Hc-77" value="&lt;b&gt;&lt;font style=&quot;font-size: 16px;&quot;&gt;EMotorad Backend Architecture&lt;/font&gt;&lt;/b&gt;" style="text;html=1;align=center;verticalAlign=middle;resizable=0;points=[];autosize=1;strokeColor=none;fillColor=none;" vertex="1" parent="1">
          <mxGeometry x="720" y="68" width="270" height="30" as="geometry" />
        </mxCell>
      </root>
    </mxGraphModel>
  </diagram>
</mxfile>
